<?xml version="1.0"?>
<svg xmlns="http://www.w3.org/2000/svg" height="512px" viewBox="0 0 128 128" width="512px"><g><path d="m97.379 38.643 3.231-3.571a1.749 1.749 0 0 0 -.882-2.874l-54.065-13.18a1.75 1.75 0 0 0 -2.115 1.282l-1.584 6.5-5.9-1.439a1.75 1.75 0 0 0 -2.115 1.286l-3.756 15.4a1.75 1.75 0 0 0 1.286 2.114l25.035 6.1v7.956a1.75 1.75 0 0 0 1.75 1.75h.515v18.44a10.684 10.684 0 0 0 -4.829 4.855h-12.9v-.762a1.749 1.749 0 0 0 -1.75-1.75h-9.9a13.514 13.514 0 0 0 -13.5-13.139 1.75 1.75 0 0 0 0 3.5 10.019 10.019 0 0 1 10.007 10.007v14.407a10.018 10.018 0 0 1 -10.007 10.007 1.75 1.75 0 0 0 0 3.5 13.514 13.514 0 0 0 13.489-13.141h9.9a1.75 1.75 0 0 0 1.75-1.75v-1.561h12.91a10.62 10.62 0 1 0 14.151-14.222v-18.382h.364a1.75 1.75 0 0 0 1.75-1.75v-4.617l14.052 3.426a1.745 1.745 0 0 0 1.323-.2 1.745 1.745 0 0 0 .791-1.081l1.342-5.5 5.688 1.387a6.8 6.8 0 0 0 3.973-12.99zm-50.845-15.811 49.51 12.068-10.21 11.285-42.469-10.355zm-8.99 69.559h-8.137v-8.138h8.137zm3.5-3.311v-2.318h11.881a10.209 10.209 0 0 0 0 2.318zm29.572-1.159a7.129 7.129 0 1 1 -7.129-7.129 7.136 7.136 0 0 1 7.129 7.129zm-6.016-10.57a10.164 10.164 0 0 0 -2.318.015v-17.39h2.318zm2.11-20.875h-6.7v-5.353l6.7 1.633zm16.681-3.255-49.384-12.041 2.927-12 4.2 1.024-1.584 6.496a1.749 1.749 0 0 0 1.286 2.114l43.482 10.6zm14.838-7.416a3.311 3.311 0 0 1 -3.994 2.427l-4.534-1.1 5.044-5.574 1.055.258a3.307 3.307 0 0 1 2.429 3.994z" fill="#FFFFFF"/><path d="m112.514 47.485-5.978-1.457a1.75 1.75 0 1 0 -.829 3.4l5.978 1.457a1.75 1.75 0 1 0 .829-3.4z" fill="#FFFFFF"/><path d="m107.561 44.739a1.737 1.737 0 0 0 .907-.255l4.262-2.59a1.75 1.75 0 1 0 -1.817-2.991l-4.263 2.591a1.75 1.75 0 0 0 .911 3.245z" fill="#FFFFFF"/><path d="m106.712 51.688a1.75 1.75 0 0 0 -2.991 1.819l2.591 4.263a1.751 1.751 0 0 0 2.992-1.819z" fill="#FFFFFF"/></g></svg>
