<?xml version="1.0"?>
<svg xmlns="http://www.w3.org/2000/svg" height="512px" viewBox="-2 0 512 512" width="512px"><path d="m204.609375 264.167969c-2.050781 0-4.097656-.785157-5.65625-2.34375l-5.65625-5.65625c-3.128906-3.128907-3.128906-8.183594 0-11.3125 3.128906-3.128907 8.183594-3.128907 11.3125 0l5.65625 5.65625c3.125 3.128906 3.125 8.183593 0 11.3125-1.5625 1.558593-3.609375 2.34375-5.65625 2.34375zm0 0" fill="#FFFFFF"/><path d="m198.945312 258.511719c-3.488281 0-6.6875-2.296875-7.6875-5.816407l-8.984374-31.574218c-1.210938-4.25 1.253906-8.671875 5.503906-9.882813 4.214844-1.207031 8.671875 1.257813 9.878906 5.503907l8.984375 31.578124c1.207031 4.246094-1.257813 8.671876-5.503906 9.878907-.722657.214843-1.464844.3125-2.191407.3125zm0 0" fill="#FFFFFF"/><path d="m198.960938 258.511719c-.730469 0-1.464844-.105469-2.191407-.3125l-31.609375-8.96875c-4.25-1.207031-6.710937-5.628907-5.503906-9.878907 1.207031-4.253906 5.625-6.726562 9.878906-5.511718l31.609375 8.96875c4.246094 1.207031 6.710938 5.632812 5.503907 9.878906-1 3.527344-4.199219 5.824219-7.6875 5.824219zm0 0" fill="#FFFFFF"/><path d="m159.34375 241.550781c-2.046875 0-4.097656-.78125-5.65625-2.34375-3.128906-3.128906-3.128906-8.191406 0-11.3125l22.625-22.613281c3.128906-3.128906 8.183594-3.128906 11.3125 0 3.128906 3.125 3.128906 8.191406 0 11.3125l-22.625 22.613281c-1.558594 1.5625-3.609375 2.34375-5.65625 2.34375zm0 0" fill="#FFFFFF"/><path d="m81.542969 163.769531c-2.046875 0-4.09375-.785156-5.65625-2.34375-3.125-3.121093-3.125-8.1875 0-11.3125l22.625-22.632812c3.128906-3.128907 8.183593-3.128907 11.3125 0 3.128906 3.121093 3.128906 8.183593 0 11.3125l-22.625 22.632812c-1.558594 1.566407-3.605469 2.34375-5.65625 2.34375zm0 0" fill="#FFFFFF"/><path d="m189.96875 226.9375c-2.046875 0-4.097656-.785156-5.65625-2.34375l-154.65625-154.648438c-3.128906-3.128906-3.128906-8.183593 0-11.3125 3.128906-3.128906 8.183594-3.128906 11.3125 0l154.65625 154.648438c3.128906 3.125 3.128906 8.183594 0 11.3125-1.5625 1.558594-3.609375 2.34375-5.65625 2.34375zm0 0" fill="#FFFFFF"/><path d="m167.34375 249.542969c-2.046875 0-4.097656-.78125-5.65625-2.34375l-154.65625-154.625c-3.128906-3.117188-3.128906-8.183594 0-11.308594 3.128906-3.128906 8.183594-3.128906 11.3125 0l154.65625 154.621094c3.128906 3.121093 3.128906 8.183593 0 11.3125-1.558594 1.5625-3.609375 2.34375-5.65625 2.34375zm0 0" fill="#FFFFFF"/><path d="m12.6875 94.921875c-2.046875 0-4.09375-.785156-5.65625-2.347656-9.359375-9.359375-9.359375-24.582031 0-33.941407 9.367188-9.359374 24.585938-9.335937 33.9375 0 3.128906 3.121094 3.128906 8.183594.007812 11.3125-3.121093 3.125-8.191406 3.117188-11.320312 0-3.113281-3.121093-8.199219-3.121093-11.3125 0-3.121094 3.117188-3.121094 8.191407 0 11.320313 3.128906 3.125 3.128906 8.183594 0 11.308594-1.558594 1.5625-3.609375 2.347656-5.65625 2.347656zm0 0" fill="#FFFFFF"/><path d="m12.6875 128.855469c-2.046875 0-4.09375-.785157-5.65625-2.34375-4.527344-4.527344-7.03125-10.558594-7.03125-16.976563 0-6.414062 2.503906-12.4375 7.03125-16.96875 3.128906-3.117187 8.191406-3.125 11.320312.007813 3.121094 3.128906 3.121094 8.195312-.007812 11.3125-1.511719 1.503906-2.34375 3.511719-2.34375 5.648437 0 2.136719.832031 4.152344 2.34375 5.664063 3.128906 3.128906 3.128906 8.183593 0 11.3125-1.558594 1.558593-3.609375 2.34375-5.65625 2.34375zm0 0" fill="#FFFFFF"/><path d="m66.902344 183.078125c-2.046875 0-4.09375-.78125-5.65625-2.34375l-54.214844-54.222656c-3.128906-3.128907-3.128906-8.191407 0-11.3125 3.128906-3.128907 8.183594-3.128907 11.3125 0l54.214844 54.226562c3.128906 3.125 3.128906 8.191407 0 11.308594-1.558594 1.570313-3.605469 2.34375-5.65625 2.34375zm0 0" fill="#FFFFFF"/><path d="m12.6875 106.230469c-2.046875 0-4.09375-.78125-5.65625-2.34375-3.128906-3.117188-3.128906-8.183594 0-11.3125l28.28125-28.285157c3.128906-3.128906 8.183594-3.128906 11.3125 0 3.128906 3.117188 3.128906 8.183594 0 11.3125l-28.28125 28.285157c-1.558594 1.5625-3.609375 2.34375-5.65625 2.34375zm0 0" fill="#FFFFFF"/><path d="m500.71875 512h-344.039062c-4.421876 0-8-3.574219-8-8v-273.113281c0-4.414063 3.578124-8 8-8 4.425781 0 8 3.585937 8 8v265.113281h328.039062v-436.6875l-43.3125-43.3125h-284.726562v169.65625c0 4.414062-3.574219 8-8 8-4.421876 0-8-3.585938-8-8v-177.65625c0-4.414062 3.578124-8 8-8h296.039062c2.128906 0 4.160156.839844 5.65625 2.34375l48 48c1.496094 1.496094 2.34375 3.527344 2.34375 5.65625v448c0 4.425781-3.574219 8-8 8zm0 0" fill="#FFFFFF"/><path d="m452.71875 64c-4.421875 0-8-3.585938-8-8v-48c0-4.414062 3.578125-8 8-8 4.425781 0 8 3.585938 8 8v48c0 4.414062-3.574219 8-8 8zm0 0" fill="#FFFFFF"/><path d="m500.71875 64h-48c-4.421875 0-8-3.585938-8-8s3.578125-8 8-8h48c4.425781 0 8 3.585938 8 8s-3.574219 8-8 8zm0 0" fill="#FFFFFF"/><path d="m252.632812 160.144531h-32c-4.425781 0-8-3.585937-8-8v-32c0-4.417969 3.574219-8 8-8h32c4.421876 0 8 3.582031 8 8v32c0 4.414063-3.578124 8-8 8zm-24-16h16v-16h-16zm0 0" fill="#FFFFFF"/><path d="m436.65625 144.144531h-152.023438c-4.425781 0-8-3.585937-8-8 0-4.417969 3.574219-8 8-8h152.023438c4.421875 0 8 3.582031 8 8 0 4.414063-3.578125 8-8 8zm0 0" fill="#FFFFFF"/><path d="m252.632812 224.144531h-32c-4.425781 0-8-3.585937-8-8v-32c0-4.417969 3.574219-8 8-8h32c4.421876 0 8 3.582031 8 8v32c0 4.414063-3.578124 8-8 8zm-24-16h16v-16h-16zm0 0" fill="#FFFFFF"/><path d="m436.65625 208.144531h-152.023438c-4.425781 0-8-3.585937-8-8 0-4.417969 3.574219-8 8-8h152.023438c4.421875 0 8 3.582031 8 8 0 4.414063-3.578125 8-8 8zm0 0" fill="#FFFFFF"/><path d="m436.65625 272.144531h-152.023438c-4.425781 0-8-3.578125-8-8 0-4.417969 3.574219-8 8-8h152.023438c4.421875 0 8 3.582031 8 8 0 4.414063-3.578125 8-8 8zm0 0" fill="#FFFFFF"/><path d="m252.632812 352.160156h-32c-4.425781 0-8-3.574218-8-8v-32c0-4.425781 3.574219-8 8-8h32c4.421876 0 8 3.574219 8 8v32c0 4.414063-3.578124 8-8 8zm-24-16h16v-16h-16zm0 0" fill="#FFFFFF"/><path d="m436.65625 336.160156h-152.023438c-4.425781 0-8-3.574218-8-8 0-4.425781 3.574219-8 8-8h152.023438c4.421875 0 8 3.574219 8 8 0 4.425782-3.578125 8-8 8zm0 0" fill="#FFFFFF"/><path d="m228.609375 288.128906c-2.050781 0-4.097656-.785156-5.65625-2.34375l-7.984375-7.984375c-3.128906-3.128906-3.128906-8.183593 0-11.3125 3.128906-3.128906 8.183594-3.128906 11.3125 0l7.984375 7.984375c3.125 3.128906 3.125 8.183594 0 11.3125-1.5625 1.558594-3.609375 2.34375-5.65625 2.34375zm0 0" fill="#FFFFFF"/><path d="m228.609375 288.128906c-2.050781 0-4.097656-.785156-5.65625-2.34375-3.128906-3.128906-3.128906-8.183594 0-11.3125l23.976563-23.992187c3.125-3.128907 8.183593-3.121094 11.308593 0 3.128907 3.128906 3.128907 8.191406 0 11.320312l-23.972656 23.992188c-1.5625 1.550781-3.609375 2.335937-5.65625 2.335937zm0 0" fill="#FFFFFF"/><path d="m348.511719 432.015625h-127.917969c-4.425781 0-8-3.574219-8-8 0-4.421875 3.574219-8 8-8h127.910156c4.425782 0 8 3.578125 8 8 0 4.425781-3.574218 8-7.992187 8zm0 0" fill="#FFFFFF"/><path d="m292.457031 456.046875h-71.855469c-4.425781 0-8-3.574219-8-8 0-4.421875 3.574219-8 8-8h71.855469c4.421875 0 8 3.578125 8 8 0 4.425781-3.585937 8-8 8zm0 0" fill="#FFFFFF"/><path d="m427.433594 464c-1.273438 0-2.554688-.304688-3.722656-.921875l-11.117188-5.832031-11.121094 5.832031c-2.671875 1.425781-5.960937 1.1875-8.425781-.605469-2.460937-1.792968-3.695313-4.824218-3.175781-7.824218l2.128906-12.367188-8.984375-8.753906c-2.183594-2.128906-2.96875-5.304688-2.03125-8.199219s3.441406-5.007813 6.457031-5.449219l12.421875-1.824218 5.5625-11.246094c2.703125-5.457032 11.636719-5.457032 14.34375 0l5.558594 11.246094 12.425781 1.824218c3.015625.441406 5.511719 2.546875 6.453125 5.449219.945313 2.902344.160157 6.078125-2.03125 8.199219l-8.984375 8.753906 1.855469 10.824219c.351563.894531.539063 1.871093.539063 2.894531 0 4.425781-3.578126 8-8 8-.042969.007812-.097657.007812-.152344 0zm-14.839844-23.800781c1.277344 0 2.550781.304687 3.71875.921875l.496094.246094-.097656-.535157c-.445313-2.59375.417968-5.238281 2.304687-7.089843l.390625-.382813-.542969-.078125c-2.597656-.378906-4.847656-2.015625-6.015625-4.371094l-.246094-.503906-.25.503906c-1.167968 2.355469-3.414062 3.992188-6.015624 4.371094l-.542969.078125.390625.382813c1.886718 1.84375 2.753906 4.496093 2.304687 7.089843l-.097656.535157.496094-.246094c1.152343-.617188 2.425781-.921875 3.707031-.921875zm0 0" fill="#FFFFFF"/></svg>
