<?xml version="1.0"?>
<svg xmlns="http://www.w3.org/2000/svg" viewBox="0 0 64 64" width="512px" height="512px"><g id="Direction"><path d="M61.6,32.2l-8-6A1,1,0,0,0,53,26H38V22H51a1,1,0,0,0,1-1V9a1,1,0,0,0-1-1H38V3a1,1,0,0,0-1-1H27a1,1,0,0,0-1,1V8H13a1,1,0,0,0-.515.143l-10,6a1,1,0,0,0,0,1.714l10,6A1,1,0,0,0,13,22H26v4H13a1,1,0,0,0-1,1V39a1,1,0,0,0,1,1H26V61a1,1,0,0,0,1,1H37a1,1,0,0,0,1-1V40H53a1,1,0,0,0,.6-.2l8-6a1,1,0,0,0,0-1.6ZM28,4h8V8H28ZM4.944,15l8.333-5H50V20H13.277ZM28,22h8v4H28Zm8,38H28V40h8ZM52.667,38H14V28H52.667l6.666,5Z" fill="#FFFFFF"/></g></svg>
