<?xml version="1.0"?>
<svg xmlns="http://www.w3.org/2000/svg" width="512px" height="512px" viewBox="0 0 128 128"><g><path d="M79.188,128H48.813a1.75,1.75,0,0,1-1.75-1.75V99a10.762,10.762,0,0,1,10.75-10.75H70.188A10.762,10.762,0,0,1,80.938,99v27.25A1.75,1.75,0,0,1,79.188,128Zm-28.625-3.5H77.438V99a7.258,7.258,0,0,0-7.25-7.25H57.813A7.258,7.258,0,0,0,50.563,99Z" fill="#FFFFFF"/><path d="M64,128a1.75,1.75,0,0,1-1.75-1.75V90a1.75,1.75,0,0,1,3.5,0v36.25A1.75,1.75,0,0,1,64,128Z" fill="#FFFFFF"/><path d="M121.56,87.105a1.755,1.755,0,0,1-.648-.124L87.422,73.637a1.751,1.751,0,0,1-1.1-1.626V63.4a1.751,1.751,0,0,1,2.4-1.626l33.49,13.345a1.751,1.751,0,0,1,1.1,1.626v8.611a1.749,1.749,0,0,1-1.75,1.75ZM89.819,70.824l29.991,11.95V77.931L89.819,65.98Z" fill="#FFFFFF"/><path d="M6.44,87.105a1.749,1.749,0,0,1-1.75-1.75V76.744a1.751,1.751,0,0,1,1.1-1.626L39.283,61.773a1.751,1.751,0,0,1,2.4,1.626v8.612a1.751,1.751,0,0,1-1.1,1.626L7.088,86.981A1.755,1.755,0,0,1,6.44,87.105Zm1.75-9.174v4.843l29.991-11.95V65.98Z" fill="#FFFFFF"/><path d="M96.655,57.242a1.748,1.748,0,0,1-.672-.134L64,43.81l-31.984,13.3a1.75,1.75,0,0,1-2.422-1.616V46.828a1.751,1.751,0,0,1,1.078-1.616L63.328,31.634a1.758,1.758,0,0,1,1.344,0L97.327,45.212a1.751,1.751,0,0,1,1.078,1.616v8.664a1.748,1.748,0,0,1-1.75,1.75ZM33.094,48v4.873L63.328,40.3a1.758,1.758,0,0,1,1.344,0L94.905,52.869V48L64,35.146Z" fill="#FFFFFF"/><path d="M113.188,128H14.813a1.749,1.749,0,0,1-1.75-1.75V82.02a1.749,1.749,0,0,1,1.1-1.626l24.016-9.57v-18.9a1.749,1.749,0,0,1,1.078-1.616L63.328,40.3a1.758,1.758,0,0,1,1.344,0L88.741,50.306a1.749,1.749,0,0,1,1.078,1.616v18.9l24.016,9.57a1.75,1.75,0,0,1,1.1,1.626v44.23A1.75,1.75,0,0,1,113.188,128Zm-96.625-3.5h94.875V83.206L87.422,73.637a1.751,1.751,0,0,1-1.1-1.626V53.09L64,43.81,41.681,53.09V72.011a1.751,1.751,0,0,1-1.1,1.626L16.563,83.206Z" fill="#FFFFFF"/><path d="M59.882,36.713a1.75,1.75,0,0,1-1.75-1.75V23.006H48.265a1.749,1.749,0,0,1-1.75-1.75v-8a1.749,1.749,0,0,1,1.75-1.75h9.867V1.75A1.75,1.75,0,0,1,59.882,0h8a1.749,1.749,0,0,1,1.75,1.75v9.756H79.5a1.749,1.749,0,0,1,1.75,1.75v8a1.749,1.749,0,0,1-1.75,1.75H69.632V34.864A1.749,1.749,0,0,1,67.21,36.48L64,35.146l-3.446,1.433A1.748,1.748,0,0,1,59.882,36.713ZM50.015,19.506h9.867a1.75,1.75,0,0,1,1.75,1.75V32.34l1.7-.706a1.758,1.758,0,0,1,1.344,0l1.46.607V21.256a1.749,1.749,0,0,1,1.75-1.75H77.75v-4.5H67.882a1.749,1.749,0,0,1-1.75-1.75V3.5h-4.5v9.756a1.75,1.75,0,0,1-1.75,1.75H50.015Z" fill="#FFFFFF"/><path d="M69.667,75.083H58.333a1.75,1.75,0,0,1-1.75-1.75V54.667a1.75,1.75,0,0,1,1.75-1.75H69.667a1.749,1.749,0,0,1,1.75,1.75V73.333A1.749,1.749,0,0,1,69.667,75.083Zm-9.584-3.5h7.834V56.417H60.083Z" fill="#FFFFFF"/></g></svg>
