<?xml version="1.0"?>
<svg xmlns="http://www.w3.org/2000/svg" id="Capa_1" enable-background="new 0 0 512 512" height="512px" viewBox="0 0 512 512" width="512px"><g><path d="m449.804 437.197-27.804-27.803v-41.894c0-1.989-.79-3.897-2.196-5.303l-27.804-27.803v-214.394h22.5c4.143 0 7.5-3.358 7.5-7.5v-30c0-2.792-1.552-5.354-4.026-6.647l-130.206-68.052c-9.766-5.104-20.75-7.801-31.768-7.801-11.019 0-22.004 2.697-31.768 7.801l-130.206 68.052c-2.474 1.293-4.026 3.855-4.026 6.647v30c0 4.142 3.357 7.5 7.5 7.5h22.5v214.394l-27.804 27.803c-1.406 1.406-2.196 3.314-2.196 5.303v41.894l-27.804 27.803c-1.406 1.406-2.196 3.314-2.196 5.303v62c0 4.142 3.357 7.5 7.5 7.5h377c4.143 0 7.5-3.358 7.5-7.5v-62c0-1.989-.79-3.897-2.196-5.303zm-72.804-107.197h-242v-180h242zm-145.82-308.905c7.629-3.988 16.212-6.095 24.82-6.095 8.607 0 17.19 2.107 24.82 6.095l103.139 53.905h-255.918zm-126.18 68.905h302v15h-302zm272 30v15h-242v-15zm-246.393 225h250.786l15 15h-280.786zm-27.803 72.803c1.406-1.406 2.196-3.314 2.196-5.303v-37.5h302v30h-279.5c-4.143 0-7.5 3.358-7.5 7.5s3.357 7.5 7.5 7.5h283.893l15 15h-340.786zm-27.804 79.197v-47h362v47z" fill="#FFFFFF"/></g></svg>
