<?xml version="1.0"?>
<svg xmlns="http://www.w3.org/2000/svg" id="Capa_1" enable-background="new 0 0 512 512" height="512px" viewBox="0 0 512 512" width="512px"><path d="m106 296h20v20c0 5.523 4.478 10 10 10s10-4.477 10-10v-20h100v20c0 5.523 4.478 10 10 10s10-4.477 10-10v-20h100v20c0 5.523 4.478 10 10 10s10-4.477 10-10v-20h20c5.522 0 10-4.477 10-10s-4.478-10-10-10h-20v-20c0-5.523-4.478-10-10-10s-10 4.477-10 10v20h-100v-20c0-5.523-4.478-10-10-10s-10 4.477-10 10v20h-100v-20c0-5.523-4.478-10-10-10s-10 4.477-10 10v20h-20c-5.522 0-10 4.477-10 10s4.478 10 10 10z" fill="#FFFFFF"/><circle cx="256" cy="436" r="10" fill="#FFFFFF"/><path d="m10 446h201c5.522 0 10-4.477 10-10s-4.478-10-10-10h-191v-20c0-11.028 8.972-20 20-20h432c11.028 0 20 8.972 20 20v20h-191c-5.522 0-10 4.477-10 10s4.478 10 10 10h201c5.522 0 10-4.477 10-10v-30c0-18.604-12.767-34.282-30-38.734v-161.266c16.542 0 30-13.458 30-30v-20c0-16.542-13.458-30-30-30h-3.82l-27.236-54.472c-1.694-3.388-5.156-5.528-8.944-5.528h-372c-3.788 0-7.25 2.14-8.944 5.528l-27.236 54.472h-3.82c-16.542 0-30 13.458-30 30v20c0 16.542 13.458 30 30 30v161.266c-17.233 4.452-30 20.13-30 38.734v30c0 5.523 4.478 10 10 10zm66.181-360h359.639l20 40h-399.64zm-56.181 90v-20c0-5.514 4.486-10 10-10h452c5.514 0 10 4.486 10 10v20c0 5.514-4.486 10-10 10h-452c-5.514 0-10-4.486-10-10zm442 30v160h-412v-160z" fill="#FFFFFF"/></svg>
