<?xml version="1.0"?>
<svg xmlns="http://www.w3.org/2000/svg" id="Layer_1" enable-background="new 0 0 512 512" height="512px" viewBox="0 0 512 512" width="512px"><g><path d="m416.5 231.5c-23.521 0-45.084 8.548-61.745 22.7l-51.519-52.853 9.977-29.442h26.331c12.407 0 22.5-10.093 22.5-22.5s-10.093-22.5-22.5-22.5h-55c-12.407 0-22.5 10.093-22.5 22.5s10.093 22.5 22.5 22.5h12.832l-8.229 24.284h-12.993c-4.142 0-7.5 3.358-7.5 7.5s3.358 7.5 7.5 7.5h7.91l-34.4 101.514-90.97-101.514h84.921c4.142 0 7.5-3.358 7.5-7.5s-3.358-7.5-7.5-7.5h-94.531l12.354-35.409c.843-2.418 1.731-4.74 2.66-6.969h8.05c16.818 0 30.5-13.682 30.5-30.5 0-4.399-.937-8.583-2.62-12.365 8.599-4.698 16.552-6.447 22.018-6.447h19.717c4.142 0 7.5-3.358 7.5-7.5s-3.358-7.5-7.5-7.5h-19.717c-9.629 0-20.627 3.111-31.412 9.567-5.133-3.923-11.542-6.256-18.486-6.256h-41c-6.341 0-11.5 5.159-11.5 11.5v38c0 6.341 5.159 11.5 11.5 11.5h16.852c-.246.671-.488 1.348-.726 2.03l-27.489 78.787c-7.757-2.041-15.897-3.128-24.285-3.128-52.659.001-95.5 42.842-95.5 95.501s42.841 95.5 95.5 95.5 95.5-42.841 95.5-95.5c0-38.99-23.487-72.597-57.056-87.417l8.422-24.138 104.695 116.83c1.423 1.587 3.454 2.495 5.585 2.495h68.666c3.967 49.039 45.143 87.73 95.187 87.73 52.659 0 95.5-42.841 95.5-95.5s-42.84-95.5-95.499-95.5zm-139.456-82.095c0-4.136 3.364-7.5 7.5-7.5h55c4.136 0 7.5 3.364 7.5 7.5s-3.364 7.5-7.5 7.5h-31.57c-.094-.002-.189-.002-.283 0h-23.147c-4.135 0-7.5-3.364-7.5-7.5zm-89.396-26.093c0 8.546-6.953 15.5-15.5 15.5h-.421c4.806-7.808 10.137-13.989 15.562-18.825.235 1.071.359 2.183.359 3.325zm-53 15.499v-31h37.5c1.887 0 3.696.339 5.37.959-8.526 7.629-16.464 17.599-22.93 30.041zm41.352 188.189c0 44.388-36.112 80.5-80.5 80.5s-80.5-36.112-80.5-80.5 36.112-80.5 80.5-80.5c6.659 0 13.132.813 19.325 2.345l-4.913 14.08c-4.639-1.043-9.463-1.593-14.413-1.593-36.209 0-65.668 29.459-65.668 65.668 0 10.258 2.312 20.093 6.87 29.229 1.85 3.707 6.354 5.213 10.06 3.363 3.706-1.849 5.212-6.353 3.362-10.06-3.511-7.038-5.292-14.619-5.292-22.532 0-27.938 22.73-50.668 50.668-50.668 3.221 0 6.372.302 9.428.88l-7.62 21.84c-.598-.038-1.201-.058-1.808-.058-15.443 0-28.007 12.564-28.007 28.007s12.564 28.007 28.007 28.007 28.007-12.564 28.007-28.007c0-9.513-4.768-17.933-12.039-22.998l7.62-21.839c16.091 8.499 27.082 25.408 27.082 44.836 0 27.938-22.73 50.668-50.669 50.668-9.493 0-18.751-2.652-26.775-7.67-3.513-2.197-8.139-1.129-10.335 2.382-2.196 3.512-1.129 8.14 2.382 10.335 10.412 6.511 22.42 9.952 34.729 9.952 36.21 0 65.669-29.459 65.669-65.668 0-25.976-15.16-48.477-37.097-59.121l4.913-14.08c27.718 12.731 47.014 40.755 47.014 73.202zm-67.493 0c0 7.172-5.835 13.007-13.007 13.007s-13.007-5.835-13.007-13.007c0-5.931 3.99-10.947 9.427-12.506l-3.501 10.035c-1.364 3.911.7 8.188 4.611 9.552.818.285 1.651.42 2.471.42 3.101 0 6.002-1.938 7.082-5.031l3.499-10.028c1.525 2.132 2.425 4.742 2.425 7.558zm283.687-12.902c-1.021 1.778-1.852 3.678-2.466 5.672h-23.381c1.204-8.393 4.473-16.129 9.274-22.674zm23.312 20.672c3.016 0 5.739-1.807 6.911-4.585 1.172-2.779.565-5.99-1.54-8.149l-6.667-6.84c.744-.133 1.509-.202 2.29-.202 7.172 0 13.007 5.835 13.007 13.007s-5.835 13.007-13.007 13.007c-4.694 0-8.815-2.5-11.102-6.237h10.108zm-64.279-15h-14.905c1.496-16.725 8.128-31.993 18.305-44.212l10.417 10.687c-7.482 9.425-12.433 20.946-13.817 33.525zm-7.114-54.998c-12.924 15.013-21.269 34.076-22.842 54.997h-58.164l34.726-102.476zm72.387 142.728c-41.767 0-76.207-31.974-80.128-72.73h14.917c3.855 32.561 31.63 57.899 65.211 57.899 36.209 0 65.668-29.459 65.668-65.668 0-13.179-3.906-25.902-11.297-36.792-2.326-3.428-6.99-4.319-10.417-1.995-3.427 2.326-4.32 6.99-1.995 10.417 5.697 8.396 8.709 18.206 8.709 28.37 0 27.938-22.73 50.668-50.668 50.668-25.297 0-46.324-18.635-50.074-42.899h22.894c3.035 12.183 14.07 21.237 27.179 21.237 15.443 0 28.007-12.564 28.007-28.007s-12.564-28.007-28.007-28.007c-4.95 0-9.604 1.291-13.644 3.554l-16.682-17.114c8.461-6.341 18.963-10.101 30.326-10.101 7.292 0 14.332 1.522 20.923 4.524 3.769 1.716 8.217.053 9.934-3.717s.052-8.217-3.717-9.934c-8.557-3.897-17.688-5.873-27.14-5.873-15.432 0-29.638 5.351-40.86 14.295l-10.39-10.659c13.931-11.53 31.796-18.467 51.25-18.467 44.388 0 80.5 36.112 80.5 80.5s-36.111 80.499-80.499 80.499z" fill="#FFFFFF"/></g></svg>
