<?xml version="1.0" encoding="iso-8859-1"?>
<!-- Generator: Adobe Illustrator 19.0.0, SVG Export Plug-In . SVG Version: 6.00 Build 0)  -->
<svg xmlns="http://www.w3.org/2000/svg" xmlns:xlink="http://www.w3.org/1999/xlink" version="1.1" id="Capa_1" x="0px" y="0px" viewBox="0 0 512 512" style="enable-background:new 0 0 512 512;" xml:space="preserve" width="512px" height="512px">
<g>
	<g>
		<path d="M271,75.5h-60v119h30v-30h30c24.813,0,45-19.963,45-44.5S295.813,75.5,271,75.5z M271,134.5h-30v-29h30    c8.271,0,15,6.505,15,14.5S279.271,134.5,271,134.5z" fill="#FFFFFF"/>
	</g>
</g>
<g>
	<g>
		<path d="M331,0H181c-24.813,0-45,20.187-45,45v180c0,24.813,20.187,45,45,45h60v30h-90v90h90v122h30V390h90v-90h-90v-30h60    c24.813,0,45-20.187,45-45V45C376,20.187,355.813,0,331,0z M331,330v30H181v-30H331z M346,225c0,8.271-6.729,15-15,15H181    c-8.271,0-15-6.729-15-15V45c0-8.271,6.729-15,15-15h150c8.271,0,15,6.729,15,15V225z" fill="#FFFFFF"/>
	</g>
</g>
<g>
</g>
<g>
</g>
<g>
</g>
<g>
</g>
<g>
</g>
<g>
</g>
<g>
</g>
<g>
</g>
<g>
</g>
<g>
</g>
<g>
</g>
<g>
</g>
<g>
</g>
<g>
</g>
<g>
</g>
</svg>
