<?xml version="1.0"?>
<svg xmlns="http://www.w3.org/2000/svg" height="512px" viewBox="0 0 128 128" width="512px"><g id="Layer_2" data-name="Layer 2"><path d="m112.928 27.875-10.009-8.542a1.749 1.749 0 0 0 -1.136-.419h-11.12l-2.763-17.438a1.75 1.75 0 0 0 -1.733-1.476h-44.334a1.749 1.749 0 0 0 -1.712 1.388l-3.709 17.526h-10.2a1.749 1.749 0 0 0 -1.136.419l-10.004 8.542a1.75 1.75 0 0 0 -.614 1.331v8.542a1.75 1.75 0 0 0 1.75 1.75h8.1l2.81 82.954a5.728 5.728 0 0 0 5.746 5.548h62.272a5.729 5.729 0 0 0 5.746-5.551l2.81-82.952h8.1a1.75 1.75 0 0 0 1.75-1.75v-8.541a1.75 1.75 0 0 0 -.614-1.331zm-69.677-24.375h41.422l2.446 15.414h-5.319l-1.745-9.642a1.749 1.749 0 0 0 -1.722-1.439h-28.666a1.749 1.749 0 0 0 -1.722 1.439l-1.745 9.642h-6.211zm34.99 15.414h-28.482l1.37-7.581h25.742zm19.143 103.415a2.241 2.241 0 0 1 -2.248 2.171h-62.272a2.241 2.241 0 0 1 -2.248-2.169l-2.805-82.831h72.379zm12.658-86.329h-92.084v-5.987l8.9-7.6h74.275l8.9 7.6z" fill="#FFFFFF"/><path d="m45.879 97.731h14.688l4.9 4.9a1.77 1.77 0 0 0 2.475 0 1.749 1.749 0 0 0 0-2.475l-2.429-2.429h16.6a6.75 6.75 0 0 0 5.846-10.125l-7.344-12.72 1.795-6.7a1.75 1.75 0 0 0 -3.381-.906l-.881 3.324-8.3-14.38a6.75 6.75 0 0 0 -11.691 0l-7.347 12.719-6.7 1.795a1.75 1.75 0 1 0 .906 3.381l3.318-.889-8.3 14.38a6.75 6.75 0 0 0 5.846 10.125zm-2.814-8.375 8.3-14.38.889 3.319a1.75 1.75 0 0 0 3.381-.906l-1.795-6.7 7.344-12.72a3.25 3.25 0 0 1 5.629 0l8.3 14.38-3.313-.89a1.75 1.75 0 1 0 -.906 3.381l6.7 1.8 7.344 12.72a3.25 3.25 0 0 1 -2.814 4.875h-16.6l2.429-2.43a1.75 1.75 0 0 0 -2.475-2.475l-4.9 4.9h-14.699a3.25 3.25 0 0 1 -2.814-4.875z" fill="#FFFFFF"/></g></svg>
