<?xml version="1.0"?>
<svg xmlns="http://www.w3.org/2000/svg" height="512px" viewBox="-46 0 512 512" width="512px"><path d="m210 200c5.519531 0 10-4.480469 10-10s-4.480469-10-10-10-10 4.480469-10 10 4.480469 10 10 10zm0 0" fill="#FFFFFF"/><path d="m270 0h-120c-16.542969 0-30 13.457031-30 30v30h-90c-16.542969 0-30 13.457031-30 30v40c0 5.523438 4.476562 10 10 10h11.015625l37.066406 345.316406c1.695313 15.210938 14.515625 26.683594 29.816407 26.683594h244.203124c15.300782 0 28.121094-11.46875 29.824219-26.722656l37.058594-345.277344h11.015625c5.523438 0 10-4.476562 10-10v-40c0-16.542969-13.457031-30-30-30h-90v-30c0-16.542969-13.457031-30-30-30zm-130 30c0-5.515625 4.484375-10 10-10h120c5.515625 0 10 4.484375 10 10v30h-140zm202.042969 453.101562c-.566407 5.074219-4.84375 8.898438-9.941407 8.898438h-244.203124c-5.101563 0-9.375-3.824219-9.933594-8.855469l-36.832032-343.144531h337.734376zm57.957031-393.101562v30c-43.195312 0-334.886719 0-380 0v-30c0-5.515625 4.484375-10 10-10h360c5.515625 0 10 4.484375 10 10zm0 0" fill="#FFFFFF"/><path d="m210 452c5.523438 0 10-4.476562 10-10v-212c0-5.523438-4.476562-10-10-10s-10 4.476562-10 10v212c0 5.523438 4.476562 10 10 10zm0 0" fill="#FFFFFF"/><path d="m289.210938 451.96875c.265624.019531.535156.03125.800781.03125 5.164062 0 9.542969-3.972656 9.957031-9.207031l20-252c.4375-5.507813-3.671875-10.324219-9.179688-10.761719-5.488281-.445312-10.320312 3.671875-10.757812 9.179688l-20 252c-.4375 5.503906 3.671875 10.320312 9.179688 10.757812zm0 0" fill="#FFFFFF"/><path d="m120.03125 442.789062c.414062 5.238282 4.792969 9.210938 9.957031 9.210938.265625 0 .535157-.011719.800781-.03125 5.507813-.4375 9.617188-5.253906 9.179688-10.761719l-20-252c-.4375-5.503906-5.265625-9.621093-10.757812-9.175781-5.507813.4375-9.617188 5.253906-9.179688 10.757812zm0 0" fill="#FFFFFF"/></svg>
