<?xml version="1.0"?>
<svg xmlns="http://www.w3.org/2000/svg" height="512px" viewBox="0 -32 480.03962 480" width="512px"><path d="m470.722656 18.472656-94.835937 15.804688-255.753907-33.359375c-40.957031-5.359375-81.3125 13.488281-103.496093 48.328125-22.183594 34.84375-22.183594 79.382812 0 114.226562 22.183593 34.839844 62.539062 53.6875 103.496093 48.328125l22.605469-2.949219 25.410157 152.464844c.640624 3.859375 3.980468 6.6875 7.890624 6.6875h32c-.019531 17.664063-14.335937 31.980469-32 32h-16c-17.664062-.019531-31.980468-14.335937-32-32-.027343-26.496094-21.5-47.972656-48-48h-72c-4.417968 0-7.9999995 3.582032-7.9999995 8 0 4.417969 3.5820315 8 7.9999995 8h72c17.664063.019532 31.980469 14.335938 32 32 .03125 26.496094 21.503907 47.972656 48 48h16c26.5-.027344 47.972657-21.503906 48-48h32c2.351563 0 4.585938-1.03125 6.105469-2.828125 1.519531-1.792969 2.171875-4.164062 1.785157-6.484375l-14.445313-86.6875h22.554687c4.417969 0 8-3.582031 8-8v-32c0-4.417968-3.582031-8-8-8h-30.554687l-4.574219-27.433594 138.976563-18.121093 28.867187 4.808593c1.027344.484376 2.148438.738282 3.285156.746094.191407 0 .347657-.09375.535157-.109375l62.148437 10.359375c.4375.070313.875.109375 1.316406.109375 4.417969-.003906 8-3.582031 8-8v-160c0-2.351562-1.035156-4.585937-2.828124-6.105469-1.796876-1.519531-4.167969-2.171874-6.488282-1.785156zm-352.660156 177.46875c-34.785156 4.535156-69.050781-11.480468-87.886719-41.074218-18.835937-29.597657-18.835937-67.417969 0-97.015626 18.835938-29.59375 53.101563-45.609374 87.886719-41.074218l249.976562 32.609375v113.953125zm145.976562 44.0625v16h-17.222656l-2.667968-16zm-17.445312 112h-63.777344l-24.203125-145.222656 62.425781-8.140625zm217.445312-175.085937-48-7.996094v-64.917969c0-4.417968-3.582031-8-8-8-4.417968 0-8 3.582032-8 8v62.25l-16-2.664062v-114.453125l80-13.328125zm0 0" fill="#FFFFFF"/><path d="m136.039062 64.003906h-72c-4.417968 0-8 3.582032-8 8 0 4.417969 3.582032 8 8 8h72c4.417969 0 8-3.582031 8-8 0-4.417968-3.582031-8-8-8zm0 0" fill="#FFFFFF"/><path d="m136.039062 96.003906h-72c-4.417968 0-8 3.582032-8 8 0 4.417969 3.582032 8 8 8h72c4.417969 0 8-3.582031 8-8 0-4.417968-3.582031-8-8-8zm0 0" fill="#FFFFFF"/><path d="m136.039062 128.003906h-72c-4.417968 0-8 3.582032-8 8 0 4.417969 3.582032 8 8 8h72c4.417969 0 8-3.582031 8-8 0-4.417968-3.582031-8-8-8zm0 0" fill="#FFFFFF"/></svg>
