<?xml version="1.0"?>
<svg xmlns="http://www.w3.org/2000/svg" height="512px" viewBox="-21 -57 682.66669 682" width="512px"><path d="m237.015625 332.144531h-18.75v-18.75h18.75zm-31.25 0h-18.75v-18.75h18.75zm0 0" fill="#FFFFFF"/><path d="m347.210938 264.230469h-270.394532l.035156 85.589843 18.75-.007812-.023437-66.832031h232.894531l.023438 66.839843 18.75-.007812zm0 0" fill="#FFFFFF"/><path d="m486.332031 320.894531v-13.929687h-18.75v13.929687h-34.886719v56.738281h88.519532v-56.738281zm16.136719 37.988281h-51.019531v-19.238281h51.019531zm0 0" fill="#FFFFFF"/><path d="m603.429688 41.472656h-94.367188v18.75h86.203125l25.984375 27.929688v17.082031h-136.5625v-89.925781l-17.390625-17.390625h-293.992187l-17.390626 17.390625v89.925781h-137.164062v-17.089844l25.984375-27.921875h86.804687v-18.75h-94.96875l-36.570312 39.300782v121.792968l36.484375 36.488282h49.320313l27.109374-27.113282 27.117188 27.113282h49.3125l27.109375-27.113282 27.117187 27.113282h49.320313l27.109375-27.113282 27.109375 27.113282h49.320313l27.109374-27.113282 27.117188 27.113282h49.3125l27.109375-27.113282 27.117187 27.113282h49.320313l36.484375-36.488282v-121.792968zm-428.765626-18.394531 6.40625-6.410156h278.457032l6.410156 6.410156v82.15625h-291.273438zm-96.621093 197.226563h-33.789063l-25.503906-25.503907v-70.816406h84.789062v70.816406zm103.539062 0h-33.789062l-25.496094-25.503907v-70.816406h84.789063v70.816406zm103.539063 0h-33.789063l-25.503906-25.503907v-70.816406h84.796875v70.816406zm103.546875 0h-33.789063l-25.503906-25.503907v-70.816406h84.789062v70.816406zm103.539062 0h-33.789062l-25.496094-25.503907v-70.816406h84.789063v70.816406zm129.042969-25.503907-25.503906 25.503907h-33.789063l-25.503906-25.503907v-70.816406h84.796875zm0 0" fill="#FFFFFF"/><path d="m221.390625 509.773438v-85.835938h50.609375v-18.75h-31.875v-44.414062h-56.210938v44.414062h-31.878906v18.75h50.613282v85.835938zm-18.726563-130.25h18.710938v25.664062h-18.710938zm0 0" fill="#FFFFFF"/><path d="m108.574219 374.191406h-31.753907v144.957032h113.175782v-30.234376c0-15.445312-12.558594-28.007812-28.003906-28.007812h-26.285157v-59.582031c0-14.960938-12.171875-27.132813-27.132812-27.132813zm53.417969 105.464844c5.101562 0 9.253906 4.152344 9.253906 9.257812v11.484376h-75.675782v-107.457032h13.003907c4.625 0 8.382812 3.757813 8.382812 8.382813v78.332031zm0 0" fill="#FFFFFF"/><path d="m347.21875 374.191406h-31.753906c-14.960938 0-27.136719 12.171875-27.136719 27.132813v59.582031h-26.28125c-15.445313 0-28.007813 12.5625-28.007813 28.007812v30.234376h113.179688zm-18.75 126.207032h-75.679688v-11.484376c0-5.105468 4.15625-9.257812 9.257813-9.257812h45.03125v-78.332031c0-4.625 3.761719-8.382813 8.386719-8.382813h13.003906zm0 0" fill="#FFFFFF"/><path d="m428.835938 400.484375h18.75v67.8125h-18.75zm0 0" fill="#FFFFFF"/><path d="m608.101562 546.660156h-45.523437v-282.429687h-171.242187v282.429687h-358.839844v-285.613281h-18.75v304.363281h613.109375v-304.964844h-18.75zm-198.015624-263.679687h133.742187v263.679687h-133.742187zm0 0" fill="#FFFFFF"/></svg>
