<?xml version="1.0"?>
<svg xmlns="http://www.w3.org/2000/svg" viewBox="0 0 64 64" width="512px" height="512px"><g id="Chocolate-sweet"><path d="M51,24H49V3a1,1,0,0,0-1-1H16a1,1,0,0,0-1,1V24H13a1,1,0,0,0-1,1V61a1,1,0,0,0,1,1H51a1,1,0,0,0,1-1V25A1,1,0,0,0,51,24ZM41,4h6V16H41Zm0,14h6v6H41ZM33,4h6V16H33Zm0,14h6v6a1.007,1.007,0,0,0-.73.32L33,29.96ZM25,4h6V16H25Zm0,14h6V30H25Zm0,14h6v.11l-6,6.42ZM17,4h6V16H17Zm0,14h6V30H17Zm0,14h6v5.83l-6-3.12Zm-3-6h1v7.67l-1-.52Zm0,9.41,10.54,5.48a1.009,1.009,0,0,0,1.19-.21L39.43,26h3.14L25.78,44.75,14,38.44ZM50,60H14V40.71l11.53,6.17A1,1,0,0,0,26,47a1.039,1.039,0,0,0,.75-.33L45.26,26H50Z" fill="#FFFFFF"/><path d="M42,56v2h5a1,1,0,0,0,1-1V52H46v4Z" fill="#FFFFFF"/></g></svg>
