<?xml version="1.0" encoding="iso-8859-1"?>
<!-- Generator: Adobe Illustrator 19.0.0, SVG Export Plug-In . SVG Version: 6.00 Build 0)  -->
<svg xmlns="http://www.w3.org/2000/svg" xmlns:xlink="http://www.w3.org/1999/xlink" version="1.1" id="Capa_1" x="0px" y="0px" viewBox="0 0 512 512" style="enable-background:new 0 0 512 512;" xml:space="preserve" width="512px" height="512px">
<g>
	<g>
		<path d="M458.667,127.995H53.333C23.936,127.995,0,151.931,0,181.328v277.333c0,29.397,23.936,53.333,53.333,53.333h405.333    c29.397,0,53.333-23.936,53.333-53.333V181.328C512,151.931,488.064,127.995,458.667,127.995z M490.667,458.661    c0,17.643-14.357,32-32,32H53.333c-17.643,0-32-14.357-32-32V181.328c0-17.643,14.357-32,32-32h405.333c17.643,0,32,14.357,32,32    V458.661z" fill="#FFFFFF"/>
	</g>
</g>
<g>
	<g>
		<path d="M422.656,130.341l-160-128c-3.904-3.115-9.429-3.115-13.333,0l-160,128c-4.587,3.691-5.333,10.389-1.664,14.997    c3.691,4.565,10.389,5.333,14.997,1.643L256,24.315l153.344,122.688c1.963,1.557,4.331,2.325,6.656,2.325    c3.115,0,6.229-1.365,8.32-3.989C427.989,140.731,427.243,134.032,422.656,130.341z" fill="#FFFFFF"/>
	</g>
</g>
<g>
	<g>
		<path d="M425.067,367.717c-1.941-3.136-5.376-5.056-9.067-5.056H96c-3.691,0-7.125,1.92-9.067,5.056    c-1.941,3.136-2.133,7.061-0.469,10.368L96,397.179c9.109,18.197,27.371,29.483,47.701,29.483h224.597    c20.331,0,38.592-11.285,47.701-29.483l9.536-19.093C427.2,374.8,427.008,370.853,425.067,367.717z M396.907,387.643    c-5.461,10.901-16.427,17.685-28.608,17.685H143.701c-12.181,0-23.168-6.784-28.629-17.685l-1.813-3.648h285.483L396.907,387.643z    " fill="#FFFFFF"/>
	</g>
</g>
<g>
	<g>
		<path d="M255.957,286.821c-0.661-5.845-5.845-10.155-11.776-9.429c-30.827,3.413-58.901,20.736-77.013,47.552    c-3.285,4.885-2.005,11.499,2.88,14.805c1.835,1.216,3.904,1.813,5.952,1.813c3.413,0,6.784-1.643,8.875-4.693    c14.571-21.611,37.056-35.563,61.653-38.272C252.373,297.936,256.597,292.667,255.957,286.821z" fill="#FFFFFF"/>
	</g>
</g>
<g>
	<g>
		<path d="M405.312,372.475C399.061,295.184,333.483,234.661,256,234.661c-77.419,0-143.019,60.523-149.291,137.813    c-0.469,5.867,3.904,11.029,9.771,11.499c5.845,0.491,11.029-3.904,11.499-9.771C133.355,307.92,189.611,255.995,256,255.995    c66.432,0,122.667,51.925,128.043,118.187c0.448,5.589,5.12,9.813,10.624,9.813c0.277,0,0.555,0,0.875-0.021    C401.408,383.483,405.781,378.341,405.312,372.475z" fill="#FFFFFF"/>
	</g>
</g>
<g>
	<g>
		<path d="M256,213.328c-11.755,0-21.333,9.579-21.333,21.333c0,11.755,9.579,21.333,21.333,21.333s21.333-9.579,21.333-21.333    C277.333,222.907,267.755,213.328,256,213.328z" fill="#FFFFFF"/>
	</g>
</g>
<g>
</g>
<g>
</g>
<g>
</g>
<g>
</g>
<g>
</g>
<g>
</g>
<g>
</g>
<g>
</g>
<g>
</g>
<g>
</g>
<g>
</g>
<g>
</g>
<g>
</g>
<g>
</g>
<g>
</g>
</svg>
