<?xml version="1.0"?>
<svg xmlns="http://www.w3.org/2000/svg" height="512px" viewBox="0 0 512 512" width="512px"><g id="outline"><path d="m21.11 430h16.001v24h-16.001z" transform="matrix(.5 -.866 .866 .5 -368.23 246.215)" fill="#FFFFFF"/><path d="m17.11 462h24v16.001h-24z" transform="matrix(.866 -.5 .5 .866 -231.087 77.515)" fill="#FFFFFF"/><path d="m45.359 472h16v24h-16z" fill="#FFFFFF"/><path d="m69.608 458h15.999v24h-15.999z" transform="matrix(.5 -.866 .866 .5 -368.226 302.206)" fill="#FFFFFF"/><path d="m65.608 434h24v15.999h-24z" transform="matrix(.866 -.5 .5 .866 -210.613 98.029)" fill="#FFFFFF"/><path d="m429.359 120h16v24h-16z" fill="#FFFFFF"/><path d="m405.11 134h16.001v24h-16.001z" transform="matrix(.5 -.866 .866 .5 80.119 430.768)" fill="#FFFFFF"/><path d="m401.11 166h24v16.001h-24z" transform="matrix(.866 -.5 .5 .866 -31.655 229.853)" fill="#FFFFFF"/><path d="m429.359 176h16v24h-16z" fill="#FFFFFF"/><path d="m453.608 162h15.999v24h-15.999z" transform="matrix(.5 -.866 .866 .5 80.113 486.761)" fill="#FFFFFF"/><path d="m449.608 138h24v15.999h-24z" transform="matrix(.866 -.5 .5 .866 -11.153 250.378)" fill="#FFFFFF"/><path d="m138.641 16h16v24h-16z" fill="#FFFFFF"/><path d="m114.392 30h15.999v24h-15.999z" transform="matrix(.5 -.866 .866 .5 24.822 126.994)" fill="#FFFFFF"/><path d="m110.392 62h24v15.999h-24z" transform="matrix(.866 -.5 .5 .866 -18.603 70.578)" fill="#FFFFFF"/><path d="m138.641 72h16v24h-16z" fill="#FFFFFF"/><path d="m162.889 58h16.001v24h-16.001z" transform="matrix(.5 -.866 .866 .5 24.824 182.996)" fill="#FFFFFF"/><path d="m158.889 34h24v16.001h-24z" transform="matrix(.866 -.5 .5 .866 1.893 91.066)" fill="#FFFFFF"/><path d="m45.359 416h16v24h-16z" fill="#FFFFFF"/><path d="m400 288c0-1.122-.011-2.243-.033-3.4-.087-3.458-.286-6.836-.59-10.012a143.484 143.484 0 0 0 -26.849-71.215c-2.442-3.355-5.073-6.659-7.822-9.822a143.2 143.2 0 0 0 -68.706-43.915v-21.636a8 8 0 0 0 -8-8 32.057 32.057 0 0 0 -24-30.987v-73.013h-16v73.013a32.057 32.057 0 0 0 -24 30.987 8 8 0 0 0 -8 8v21.636a143.205 143.205 0 0 0 -68.709 43.917c-2.746 3.16-5.377 6.464-7.82 9.821a143.449 143.449 0 0 0 -26.845 71.184c-.307 3.2-.506 6.583-.594 10.088-.012.637-.013 1.282-.018 1.924a52.7 52.7 0 0 1 -26.214 29.588l-9.373 4.687a8 8 0 0 0 0 14.31l6.875 3.438a53.013 53.013 0 0 1 27.755 34.6l1.187 4.748a8 8 0 0 0 15.522 0l1.187-4.749a53.182 53.182 0 0 1 3.879-10.577c.137.227.267.456.406.683a143.207 143.207 0 0 0 121.885 68.691c.293.009.588.011.882.011s.589 0 .882-.011a143.936 143.936 0 0 0 143.113-143.989zm-33.033 63.822c-16.944 2.767-35.361 4.858-54.73 6.231a300.975 300.975 0 0 0 7.707-64.538c16.824-1.347 32.918-3.223 47.883-5.615q8.3-1.32 16.145-2.872.028 1.479.028 2.972a127.734 127.734 0 0 1 -17.033 63.822zm-110.967 64.178c-12.164 0-25.071-15.1-34.434-40.708 11.286.464 22.789.708 34.434.708s23.148-.244 34.434-.708c-9.363 25.608-22.27 40.708-34.434 40.708zm0-56c-13.407 0-26.619-.323-39.5-.947-4.8-18.188-7.947-40.023-8.431-64.435 15.571.909 31.637 1.382 47.931 1.382s32.36-.473 47.933-1.382c-.485 24.412-3.627 46.247-8.431 64.435-12.883.624-26.095.947-39.502.947zm-110.973-8.179c-.666-1.156-1.3-2.314-1.925-3.473a53.075 53.075 0 0 1 13.6-9.755l6.875-3.438a8 8 0 0 0 0-14.31l-9.373-4.687a52.7 52.7 0 0 1 -26.2-29.533c0-.542.011-1.078.021-1.6q7.838 1.539 16.141 2.871c14.968 2.392 31.063 4.269 47.888 5.616a300.975 300.975 0 0 0 7.707 64.538c-19.369-1.371-37.788-3.461-54.734-6.229zm86.973-215.821h48v10.01a146.609 146.609 0 0 0 -48 0zm23.193 24.029q.807 0 1.613 0c12.921.7 26.571 18.229 35.849 47.156-12 .538-24.259.815-36.655.815s-24.656-.277-36.655-.815c9.278-28.926 22.927-46.452 35.848-47.156zm.807 63.971c13.884 0 27.605-.346 41-1.009a281.042 281.042 0 0 1 6.862 55.6c-15.526.925-31.573 1.4-47.864 1.4s-32.338-.479-47.864-1.4a281.042 281.042 0 0 1 6.862-55.6c13.404.663 27.12 1.009 41.004 1.009zm126.577 45c-5.552 1.114-11.324 2.156-17.268 3.1-14.225 2.272-29.5 4.072-45.487 5.378a301.862 301.862 0 0 0 -6.63-55.455c17.219-1.218 33.733-2.99 49.151-5.285a127.485 127.485 0 0 1 20.234 52.262zm-31.633-66.817c-13.279 1.749-27.306 3.114-41.833 4.083a182.974 182.974 0 0 0 -6.111-17.478 101.912 101.912 0 0 0 -13.762-24.417 127.168 127.168 0 0 1 61.706 37.81zm-94.944-98.183a16.019 16.019 0 0 1 16 16h-32a16.019 16.019 0 0 1 16-16zm-33.233 60.371a101.912 101.912 0 0 0 -13.762 24.417 182.974 182.974 0 0 0 -6.116 17.476c-14.527-.969-28.554-2.334-41.833-4.084a127.171 127.171 0 0 1 61.711-37.809zm-73.111 52.368c15.418 2.295 31.933 4.067 49.152 5.285a301.862 301.862 0 0 0 -6.63 55.455c-15.984-1.306-31.265-3.106-45.491-5.379-5.942-.946-11.713-1.988-17.265-3.1a127.474 127.474 0 0 1 20.234-52.261zm-52.442 111.412a68.47 68.47 0 0 0 22.786-21.805 68.489 68.489 0 0 0 22.786 21.805 68.964 68.964 0 0 0 -22.786 24.457 68.982 68.982 0 0 0 -22.786-24.457zm60.362 41.711c14.8 1.988 30.486 3.5 46.763 4.533 1.443 4.451 2.989 8.746 4.666 12.817 4.154 10.089 8.9 18.223 14.09 24.543a126.862 126.862 0 0 1 -65.519-41.893zm131.33 41.893c5.194-6.321 9.935-14.454 14.089-24.543 1.677-4.071 3.223-8.366 4.666-12.817 16.277-1.029 31.963-2.545 46.762-4.533a126.87 126.87 0 0 1 -65.517 41.893z" fill="#FFFFFF"/><path d="m100.7 162.593 6.875-3.438a8 8 0 0 0 0-14.31l-9.373-4.687a52.725 52.725 0 0 1 -26.612-30.687 8 8 0 0 0 -15.18 0 52.725 52.725 0 0 1 -26.61 30.687l-9.373 4.687a8 8 0 0 0 0 14.31l6.875 3.438a53.013 53.013 0 0 1 27.755 34.6l1.187 4.748a8 8 0 0 0 15.522 0l1.187-4.749a53.014 53.014 0 0 1 27.747-34.599zm-36.7 14.015a68.982 68.982 0 0 0 -22.786-24.457 68.47 68.47 0 0 0 22.786-21.805 68.489 68.489 0 0 0 22.786 21.805 68.964 68.964 0 0 0 -22.786 24.457z" fill="#FFFFFF"/><path d="m451.578 432.845-9.373-4.687a52.725 52.725 0 0 1 -26.615-30.687 8 8 0 0 0 -15.18 0 52.725 52.725 0 0 1 -26.61 30.687l-9.373 4.687a8 8 0 0 0 0 14.31l6.875 3.438a53.013 53.013 0 0 1 27.755 34.6l1.187 4.748a8 8 0 0 0 15.522 0l1.187-4.749a53.014 53.014 0 0 1 27.755-34.6l6.875-3.438a8 8 0 0 0 0-14.31zm-43.578 31.763a68.982 68.982 0 0 0 -22.786-24.457 68.47 68.47 0 0 0 22.786-21.805 68.489 68.489 0 0 0 22.786 21.805 68.964 68.964 0 0 0 -22.786 24.457z" fill="#FFFFFF"/></g></svg>
