<?xml version="1.0"?>
<svg xmlns="http://www.w3.org/2000/svg" viewBox="0 0 64 64" width="512px" height="512px"><g id="outline"><path d="M33,14.032V2H31V14.032a24.015,24.015,0,1,0,2,0ZM49.739,25H45.457a21.9,21.9,0,0,0-4.814-7.241A21.845,21.845,0,0,1,49.739,25ZM44.1,49H37.385a94.468,94.468,0,0,0,.6-10h7.993A31.6,31.6,0,0,1,44.1,49Zm-9.22,10.532A30.32,30.32,0,0,0,37.136,51h6.14C41.207,55.427,38.226,58.431,34.881,59.532ZM20.724,51h6.14a30.32,30.32,0,0,0,2.255,8.532C25.774,58.431,22.793,55.427,20.724,51ZM19.9,49a31.6,31.6,0,0,1-1.877-10h7.993a94.468,94.468,0,0,0,.6,10Zm8.716-22h6.77a92.373,92.373,0,0,1,.61,10h-7.99A92.373,92.373,0,0,1,28.615,27Zm8.521-2a30.32,30.32,0,0,0-2.255-8.532c3.345,1.1,6.326,4.105,8.4,8.532Zm-2.025,0H28.889c1.017-6.7,2.54-9,3.111-9S34.094,18.3,35.111,25Zm-5.992-8.532A30.32,30.32,0,0,0,26.864,25h-6.14C22.793,20.573,25.774,17.569,29.119,16.468ZM19.9,27h6.716a94.468,94.468,0,0,0-.6,10H18.022A31.6,31.6,0,0,1,19.9,27Zm8.716,22a92.373,92.373,0,0,1-.61-10h7.99a92.373,92.373,0,0,1-.61,10Zm9.37-12a94.468,94.468,0,0,0-.6-10H44.1a31.6,31.6,0,0,1,1.877,10ZM23.357,17.759A21.9,21.9,0,0,0,18.543,25H14.261A21.845,21.845,0,0,1,23.357,17.759ZM12.945,27h4.821a33.942,33.942,0,0,0-1.752,10H10.022A21.963,21.963,0,0,1,12.945,27ZM10.022,39h5.992a33.942,33.942,0,0,0,1.752,10H12.945A21.963,21.963,0,0,1,10.022,39Zm4.239,12h4.282a21.9,21.9,0,0,0,4.814,7.241A21.845,21.845,0,0,1,14.261,51Zm14.628,0h6.222c-1.017,6.7-2.54,9-3.111,9S29.906,57.7,28.889,51Zm11.754,7.241A21.9,21.9,0,0,0,45.457,51h4.282A21.845,21.845,0,0,1,40.643,58.241ZM51.055,49H46.234a33.942,33.942,0,0,0,1.752-10h5.992A21.963,21.963,0,0,1,51.055,49Zm2.923-12H47.986a33.942,33.942,0,0,0-1.752-10h4.821A21.963,21.963,0,0,1,53.978,37Z" fill="#FFFFFF"/><path d="M61,17a4,4,0,0,1-4-4,1,1,0,0,0-2,0,4,4,0,0,1-4,4,1,1,0,0,0,0,2,4,4,0,0,1,4,4,1,1,0,0,0,2,0,4,4,0,0,1,4-4,1,1,0,0,0,0-2Zm-5,2.69A6.044,6.044,0,0,0,54.31,18,6.044,6.044,0,0,0,56,16.31,6.044,6.044,0,0,0,57.69,18,6.044,6.044,0,0,0,56,19.69Z" fill="#FFFFFF"/><path d="M9,23a1,1,0,0,0,1-1,5.006,5.006,0,0,1,5-5,1,1,0,0,0,0-2,5.006,5.006,0,0,1-5-5,1,1,0,0,0-2,0,5.006,5.006,0,0,1-5,5,1,1,0,0,0,0,2,5.006,5.006,0,0,1,5,5A1,1,0,0,0,9,23ZM6.587,16A7.054,7.054,0,0,0,9,13.587,7.054,7.054,0,0,0,11.413,16,7.054,7.054,0,0,0,9,18.413,7.054,7.054,0,0,0,6.587,16Z" fill="#FFFFFF"/></g></svg>
