<?xml version="1.0" encoding="iso-8859-1"?>
<!-- Generator: Adobe Illustrator 19.0.0, SVG Export Plug-In . SVG Version: 6.00 Build 0)  -->
<svg xmlns="http://www.w3.org/2000/svg" xmlns:xlink="http://www.w3.org/1999/xlink" version="1.1" id="Capa_1" x="0px" y="0px" viewBox="0 0 511.997 511.997" style="enable-background:new 0 0 511.997 511.997;" xml:space="preserve" width="512px" height="512px">
<g>
	<g>
		<path d="M499.489,69.05H160.913c-4.146,0-7.507,3.361-7.507,7.507s3.361,7.507,7.507,7.507h336.073v29.027H15.014V84.064h100.19    c4.146,0,7.507-3.361,7.507-7.507s-3.36-7.507-7.507-7.507H12.511C5.613,69.05,0,74.663,0,81.562v34.031    c0,6.899,5.613,12.511,12.511,12.511h23c0.188,0.059,0.378,0.116,0.573,0.161c32.361,7.468,36.438,33.462,36.808,36.528v54.78    c-12.645,1.414-24.343,6.378-33.515,14.353c-12.429,10.807-19.237,26.127-19.691,44.305c-0.026,1.09-0.025,1.75-0.024,1.911    v150.294c0,6.899,5.613,12.511,12.511,12.511h96.452c6.899,0,12.511-5.613,12.511-12.511V280.181c0,0,0.007-0.685-0.024-1.952    c-0.453-18.177-7.261-33.497-19.691-44.304c-9.172-7.975-20.87-12.938-33.516-14.353v-54.78    c0.368-3.058,4.442-29.059,36.808-36.528c0.195-0.045,0.385-0.101,0.573-0.161h85.825c0.188,0.059,0.378,0.116,0.573,0.161    c32.361,7.468,36.438,33.462,36.808,36.528v54.78c-12.646,1.414-24.344,6.378-33.516,14.353    c-12.428,10.807-19.236,26.127-19.69,44.305c-0.029,1.214-0.025,1.891-0.025,1.89v150.316c0,6.899,5.613,12.511,12.511,12.511    h96.454c6.899,0,12.511-5.613,12.511-12.511v-73.345c0-4.146-3.361-7.507-7.507-7.507s-7.507,3.361-7.507,7.507v70.843h-91.449    V280.078c0-0.06-0.001-0.573,0.021-1.474c0.345-13.85,5.37-25.381,14.532-33.347c8.232-7.158,19.302-11.1,31.171-11.1    s22.939,3.942,31.171,11.1c9.162,7.966,14.187,19.498,14.532,33.346c0.022,0.902,0.021,1.416,0.021,1.518v30.595    c0,4.146,3.36,7.507,7.507,7.507c4.147,0,7.507-3.361,7.507-7.507v-30.547c0,0,0.006-0.681-0.025-1.94    c-0.454-18.177-7.262-33.497-19.69-44.304c-9.172-7.975-20.87-12.938-33.516-14.353v-54.781    c0.368-3.057,4.441-29.058,36.808-36.527c0.195-0.045,0.385-0.101,0.573-0.161h85.825c0.188,0.059,0.378,0.116,0.573,0.161    c32.372,7.47,36.442,33.48,36.808,36.531v54.777c-12.645,1.414-24.344,6.378-33.516,14.353    c-12.428,10.807-19.237,26.127-19.691,44.305c-0.027,1.108-0.025,1.772-0.024,1.919v150.286c0,6.899,5.613,12.511,12.511,12.511    h96.452c6.899,0,12.511-5.613,12.511-12.511V280.181c0,0,0.007-0.685-0.024-1.952c-0.453-18.177-7.261-33.496-19.69-44.303    c-9.172-7.975-20.87-12.939-33.516-14.353v-54.781c0.368-3.057,4.441-29.058,36.808-36.527c0.195-0.045,0.385-0.101,0.573-0.161    h23c6.899,0,12.511-5.613,12.511-12.511V81.562C512,74.663,506.387,69.05,499.489,69.05z M111.571,245.256    c9.162,7.966,14.187,19.498,14.532,33.346c0.022,0.892,0.021,1.402,0.021,1.518v147.814H34.675V280.12c0-0.016,0-0.039,0-0.054    c-0.001-0.062-0.002-0.572,0.021-1.463c0.345-13.85,5.37-25.381,14.532-33.347c8.232-7.158,19.303-11.1,31.171-11.1    C92.268,234.156,103.339,238.098,111.571,245.256z M80.401,142.188c-2.539-4.312-6.162-9.167-11.268-13.731h22.64    C86.955,132.753,83.227,137.483,80.401,142.188z M256.002,142.188c-2.539-4.312-6.162-9.167-11.268-13.731h22.639    C262.557,132.752,258.827,137.484,256.002,142.188z M462.773,245.255c9.161,7.967,14.186,19.499,14.531,33.347    c0.022,0.892,0.021,1.402,0.021,1.518v147.814h-91.448V280.12c0-0.016,0-0.039,0-0.054c-0.001-0.062-0.002-0.572,0.021-1.463    c0.345-13.85,5.37-25.382,14.533-33.348c8.232-7.158,19.302-11.1,31.171-11.1C443.471,234.155,454.541,238.097,462.773,245.255z     M431.602,142.188c-2.539-4.312-6.162-9.167-11.267-13.731h22.639C438.157,132.753,434.428,137.483,431.602,142.188z" fill="#FFFFFF"/>
	</g>
</g>
<g>
</g>
<g>
</g>
<g>
</g>
<g>
</g>
<g>
</g>
<g>
</g>
<g>
</g>
<g>
</g>
<g>
</g>
<g>
</g>
<g>
</g>
<g>
</g>
<g>
</g>
<g>
</g>
<g>
</g>
</svg>
