<?xml version="1.0"?>
<svg xmlns="http://www.w3.org/2000/svg" id="Capa_1" enable-background="new 0 0 512 512" height="512px" viewBox="0 0 512 512" width="512px"><g><path d="m201.888 202.059-9.152-149.709c11.159-22.084-.707-45.857-1.241-46.901-1.709-3.345-5.148-5.449-8.904-5.449h-61.625c-3.756 0-7.195 2.104-8.904 5.449-.534 1.044-12.39 24.8-1.252 46.878l-1.985 32.469c-.337 5.513 3.859 10.255 9.371 10.592 5.51.336 10.255-3.858 10.592-9.371l1.586-25.946h42.798l9.082 148.551c.232 3.797 2.405 7.05 5.908 8.523 1.709.816 26.359 13.347 28.975 55.481h-130.729c2.616-42.134 27.266-54.665 28.975-55.481 3.503-1.474 5.676-4.727 5.908-8.523l2.126-34.783c.337-5.513-3.859-10.255-9.371-10.592-5.511-.334-10.255 3.858-10.592 9.371l-1.8 29.439c-11.292 7.457-35.486 29.13-35.486 77.924v196.79c0 19.424 15.803 35.227 35.227 35.227h100.752c19.424 0 35.227-15.803 35.227-35.227v-196.79c.001-48.792-24.194-70.466-35.486-77.922zm-74.567-161.988c-2.386-7.349-.989-15.072.509-20.071h47.897c1.498 5 2.895 12.722.508 20.071zm90.054 404.98h-131.206v-152.424h131.206zm-15.227 46.949h-100.752c-8.396 0-15.227-6.831-15.227-15.227v-11.722h131.206v11.722c0 8.396-6.831 15.227-15.227 15.227z" fill="#FFFFFF"/><path d="m151.772 387.84c22.335 0 40.506-18.171 40.506-40.506s-18.171-40.506-40.506-40.506-40.506 18.171-40.506 40.506 18.171 40.506 40.506 40.506zm0-61.012c11.307 0 20.506 9.199 20.506 20.506s-9.199 20.506-20.506 20.506-20.506-9.199-20.506-20.506 9.198-20.506 20.506-20.506z" fill="#FFFFFF"/><path d="m182.277 405.621h-59.417c-5.523 0-10 4.477-10 10s4.477 10 10 10h59.417c5.523 0 10-4.477 10-10s-4.477-10-10-10z" fill="#FFFFFF"/><path d="m107.945 134.88c2.883 4.405 8.958 5.706 13.447 3.02 4.769-2.853 6.259-9.259 3.293-13.938-2.85-4.497-8.897-5.912-13.478-3.254-4.862 2.821-6.464 9.5-3.262 14.172.36.55-.37-.54 0 0z" fill="#FFFFFF"/><path d="m445.711 142.79c-.114-5.44-4.557-9.79-9.998-9.79h-21.391c-1.947-25.473-27.446-43.454-52.111-36.809-1.749.47-3.75-.335-4.867-1.96-9.732-14.161-25.779-22.804-42.925-23.122-14.297-.282-28.182 5.443-38.286 15.532-10.147 10.132-16.004 24.262-16.004 38.601v156.704c0 16.571 13.482 30.053 30.053 30.053.683 0 1.359-.031 2.032-.076 1.894 10.215 3.995 20.377 6.278 30.33 4.27 18.615 8.942 36.982 9.965 56.145 1.888 36.368-9.22 52.507-13.558 57.364-6.794 1.381-11.922 7.4-11.922 14.595v26.749c0 8.213 6.682 14.895 14.895 14.895h127.478c8.213 0 14.895-6.682 14.895-14.895v-26.749c0-7.203-5.141-13.226-11.946-14.599-1.63-1.804-4.198-5.157-6.658-10.519-3.816-8.318-8.108-23.197-6.881-46.83 1.544-29.139 10.813-57.183 16.119-85.74 5.999-32.276 9.938-64.941 12.328-97.676 1.809-24.776 3.022-47.355 2.504-72.203s.009.417 0 0zm-165.582 139.157v-156.704c0-18.403 15.272-34.495 33.92-34.137 10.706.198 20.729 5.601 26.813 14.453 5.93 8.628 16.602 12.622 26.551 9.943 12.814-3.454 26.082 5.931 26.987 19.194.833 12.216-9.119 22.98-21.402 22.98-3.25 0-9.707-.004-17.286-.012-7.348-.009-15.753-.021-23.322-.036-17.535 0-32.157 14.558-32.157 32.1v92.22c0 5.44-4.62 10.05-10.051 10.05-5.543.002-10.053-4.508-10.053-10.051zm140.116 210.053h-117.268v-16.537h117.268zm-9.03-182.985c-5.475 29.46-14.835 58.273-16.428 88.346-1.206 23.223 2.014 42.77 9.569 58.099h-85.496c7.556-15.329 10.775-34.875 9.569-58.113-1.085-20.329-5.914-39.81-10.443-59.564-2.57-11.204-4.907-22.681-6.965-34.199 5.836-5.636 9.214-13.52 9.214-21.636v-92.216c0-6.599 5.511-12.098 12.115-12.098 7.576.014 15.986.025 23.341.033 7.587.009 14.05.014 17.302.014 16.215 0 31.358-9.862 37.931-24.68h14.825c-.032 5.506-.132 11.012-.282 16.517.03-.976.054-1.952.08-2.928-.026.976-.053 1.952-.08 2.928-.003.097-.003.097 0 0s.182-6.647 0 0c-1.416 46.745-5.701 93.488-14.252 139.497z" fill="#FFFFFF"/></g></svg>
