<?xml version="1.0" encoding="iso-8859-1"?>
<!-- Generator: Adobe Illustrator 19.0.0, SVG Export Plug-In . SVG Version: 6.00 Build 0)  -->
<svg xmlns="http://www.w3.org/2000/svg" xmlns:xlink="http://www.w3.org/1999/xlink" version="1.1" id="Capa_1" x="0px" y="0px" viewBox="0 0 512 512" style="enable-background:new 0 0 512 512;" xml:space="preserve" width="512px" height="512px">
<g>
	<g>
		<path d="M404.282,173.24c-15.933-6.365-28.732-19.134-35.116-35.035c-1.141-2.843-3.896-4.706-6.96-4.706H128.5    c-4.142,0-7.5,3.358-7.5,7.5c0,4.142,3.358,7.5,7.5,7.5h228.821C365,164.449,378.022,177.443,394,185.1v141.801    c-15.978,7.656-29,20.65-36.678,36.599H77.678C70,347.552,56.978,334.558,41,326.901V185.099c15.978-7.656,29-20.65,36.678-36.599    H96.5c4.142,0,7.5-3.358,7.5-7.5c0-4.142-3.358-7.5-7.5-7.5H72.792c-3.063,0-5.819,1.863-6.96,4.706    c-6.383,15.9-19.182,28.669-35.115,35.034c-2.849,1.138-4.718,3.897-4.718,6.965v151.591c0,3.068,1.869,5.827,4.718,6.965    c15.933,6.364,28.732,19.133,35.115,35.033c1.141,2.843,3.896,4.706,6.96,4.706h289.415c3.063,0,5.819-1.863,6.96-4.706    c6.383-15.9,19.182-28.669,35.115-35.033c2.85-1.138,4.718-3.896,4.718-6.965V180.205C409,177.137,407.131,174.378,404.282,173.24    z" fill="#FFFFFF"/>
	</g>
</g>
<g>
	<g>
		<path d="M504.5,0h-30c-4.142,0-7.5,3.358-7.5,7.5v27H324.706V25c0-4.142-3.358-7.5-7.5-7.5h-26c-4.142,0-7.5,3.358-7.5,7.5v9.5    H151.294V25c0-4.142-3.358-7.5-7.5-7.5h-26c-4.142,0-7.5,3.358-7.5,7.5v9.5H22.5c-6.017,0-11.668,2.346-15.894,6.587    C2.346,45.332,0,50.983,0,57c0,12.407,10.093,22.5,22.5,22.5h87.794v28H56.549c-6.443,0-11.791,4.833-12.439,11.241    c-1.747,17.238-15.564,31.014-32.854,32.757C4.839,152.145,0,157.486,0,163.924v184.152c0,6.438,4.839,11.78,11.255,12.427    c17.291,1.743,31.108,15.519,32.855,32.756c0.648,6.408,5.996,11.241,12.439,11.241H320c4.142,0,7.5-3.358,7.5-7.5    c0-4.142-3.358-7.5-7.5-7.5H58.756C55.469,367.001,37.55,349.129,15,345.854V166.147c22.548-3.275,40.467-21.149,43.756-43.647    h317.488c3.288,22.499,21.207,40.372,43.756,43.647v179.707c-22.548,3.275-40.467,21.149-43.756,43.646H352    c-4.142,0-7.5,3.358-7.5,7.5c0,4.142,3.358,7.5,7.5,7.5h26.451c6.443,0,11.791-4.833,12.439-11.241    c1.747-17.237,15.564-31.013,32.854-32.756c6.417-0.647,11.256-5.989,11.256-12.427V163.924c0-6.438-4.839-11.78-11.255-12.427    c-17.291-1.743-31.108-15.52-32.855-32.756c-0.648-6.408-5.996-11.241-12.439-11.241h-53.745v-28H467v16.167    c0,4.142,3.358,7.5,7.5,7.5c4.142,0,7.5-3.358,7.5-7.5V15h15v482h-15V127.833c0-4.142-3.358-7.5-7.5-7.5    c-4.142,0-7.5,3.358-7.5,7.5V504.5c0,4.142,3.358,7.5,7.5,7.5h30c4.142,0,7.5-3.358,7.5-7.5V7.5C512,3.358,508.642,0,504.5,0z     M110.294,64.5H22.5c-4.136,0-7.5-3.364-7.5-7.5c0-2,0.779-3.878,2.213-5.306C18.622,50.279,20.5,49.5,22.5,49.5h87.794V64.5z     M136.294,107.5h-11v-75h11V107.5z M283.705,107.5H151.294v-28h132.411V107.5z M283.706,64.5H151.294v-15h132.412V64.5z     M309.706,107.5h-11v-75h11V107.5z M467,64.5H324.706v-15H467V64.5z" fill="#FFFFFF"/>
	</g>
</g>
<g>
	<g>
		<path d="M160.492,256c8.01-6.354,13.163-16.162,13.163-27.156c0-19.109-15.547-34.656-34.656-34.656h-31.121    c-4.142,0-7.5,3.358-7.5,7.5V256v54.312c0,4.142,3.358,7.5,7.5,7.5h31.121c19.109,0,34.656-15.546,34.656-34.656    C173.655,272.161,168.502,262.353,160.492,256z M138.999,302.812h-23.621V263.5h23.621c10.838,0,19.656,8.818,19.656,19.656    S149.837,302.812,138.999,302.812z M138.999,248.5h-23.621v-39.312h23.621c10.838,0,19.656,8.817,19.656,19.656    S149.837,248.5,138.999,248.5z" fill="#FFFFFF"/>
	</g>
</g>
<g>
	<g>
		<path d="M217.5,194.188c-20.202,0-36.638,16.436-36.638,36.638V256v54.312c0,4.142,3.358,7.5,7.5,7.5c4.142,0,7.5-3.358,7.5-7.5    V263.5h43.276v46.812c0,4.142,3.358,7.5,7.5,7.5c4.142,0,7.5-3.358,7.5-7.5V256v-25.174    C254.138,210.624,237.702,194.188,217.5,194.188z M239.138,248.5h-43.276v-17.674c0-11.931,9.707-21.638,21.638-21.638    c11.931,0,21.638,9.707,21.638,21.638V248.5z" fill="#FFFFFF"/>
	</g>
</g>
<g>
	<g>
		<path d="M311.166,261.632c13.628-4.669,23.456-17.598,23.456-32.788c0-19.109-15.547-34.656-34.656-34.656h-31.121    c-4.142,0-7.5,3.358-7.5,7.5V256v54.312c0,4.142,3.358,7.5,7.5,7.5c4.142,0,7.5-3.358,7.5-7.5V263.5h18.985l25.083,50.166    c1.314,2.628,3.962,4.148,6.714,4.147c1.127,0,2.271-0.255,3.348-0.793c3.705-1.852,5.207-6.357,3.354-10.062L311.166,261.632z     M276.345,248.5v-39.312h23.621c10.838,0,19.656,8.817,19.656,19.656s-8.818,19.656-19.656,19.656H276.345z" fill="#FFFFFF"/>
	</g>
</g>
<g>
</g>
<g>
</g>
<g>
</g>
<g>
</g>
<g>
</g>
<g>
</g>
<g>
</g>
<g>
</g>
<g>
</g>
<g>
</g>
<g>
</g>
<g>
</g>
<g>
</g>
<g>
</g>
<g>
</g>
</svg>
