<?xml version="1.0"?>
<svg xmlns="http://www.w3.org/2000/svg" id="Capa_1" enable-background="new 0 0 511.925 511.925" height="512px" viewBox="0 0 511.925 511.925" width="512px"><path d="m62.784 232.73-14.166-4.933c-1.694 4.866-3.235 9.858-4.58 14.836l14.481 3.91c1.252-4.634 2.687-9.281 4.265-13.813z" fill="#FFFFFF"/><path d="m38.098 273.09 14.889 1.82c.584-4.772 1.345-9.578 2.263-14.281l-14.723-2.872c-.985 5.051-1.802 10.209-2.429 15.333z" fill="#FFFFFF"/><path d="m473.827 273.089c-13.428-109.794-107.09-192.589-217.865-192.589-.005 0 .004 0-.001 0-87.813 0-166.997 52.136-201.712 132.812l13.778 5.929c32.347-75.17 106.116-123.741 187.935-123.741 103.206 0 190.466 77.13 202.976 179.411z" fill="#FFFFFF"/><path d="m437.461 272.897c-6.397-43.039-28.124-82.581-61.178-111.344-33.387-29.053-76.118-45.053-120.321-45.053-67.838 0-129.896 37.279-161.959 97.287l13.23 7.068c29.448-55.116 86.438-89.355 148.729-89.355 82.844 0 154.493 61.736 166.662 143.603z" fill="#FFFFFF"/><path d="m74.464 272.897 14.837 2.205c.701-4.718 1.615-9.458 2.716-14.088l-14.594-3.469c-1.199 5.047-2.195 10.212-2.959 15.352z" fill="#FFFFFF"/><path d="m101.017 233.792-13.785-5.913c-2.047 4.773-3.912 9.693-5.542 14.624l14.241 4.709c1.496-4.525 3.207-9.04 5.086-13.42z" fill="#FFFFFF"/><path d="m255.962 167.5c63.663 0 118.424 45.374 130.21 107.89l14.74-2.779c-13.121-69.597-74.081-120.11-144.95-120.11-47.696 0-92.702 23.313-120.392 62.361l12.235 8.677c24.883-35.09 65.316-56.039 108.157-56.039z" fill="#FFFFFF"/><path d="m111.012 272.61 14.74 2.779c.874-4.633 2.01-9.27 3.377-13.781l-14.354-4.352c-1.524 5.027-2.79 10.193-3.763 15.354z" fill="#FFFFFF"/><path d="m140.226 235.536-13.092-7.322c-2.564 4.585-4.907 9.358-6.961 14.185l13.802 5.875c1.844-4.334 3.948-8.62 6.251-12.738z" fill="#FFFFFF"/><path d="m488.546 194.094-13.647 6.225c13.277 29.113 20.481 60.088 21.451 92.182h-129.142c-2.254-33.14-19.349-63.892-46.693-83.37l-8.702 12.218c25.454 18.131 40.65 47.534 40.65 78.652v7.5h159v-7.501c-.001-36.932-7.711-72.564-22.917-105.906z" fill="#FFFFFF"/><path d="m255.962 59.5c89.172 0 170.596 48.957 212.496 127.764l13.244-7.042c-44.509-83.716-131.008-135.722-225.74-135.722-52.718 0-103.331 15.925-146.366 46.053l8.603 12.288c40.501-28.354 88.138-43.341 137.763-43.341z" fill="#FFFFFF"/><path d="m159.462 300c0-53.21 43.29-96.5 96.5-96.5 15.481 0 30.275 3.571 43.97 10.613l6.859-13.34c-15.615-8.029-33.191-12.273-50.83-12.273-58.959 0-107.378 46.004-111.25 104h-129.134c2.167-70.953 35.045-136.564 90.96-180.959l-9.327-11.747c-61.485 48.816-96.748 121.789-96.748 200.206v7.5h159z" fill="#FFFFFF"/><path d="m302.105 317.3c-16.437 0-31.876 6.413-43.475 18.056l-2.668 2.678-2.668-2.678c-11.598-11.644-27.038-18.056-43.473-18.056-16.345 0-31.724 6.353-43.302 17.888-11.644 11.599-18.057 27.038-18.057 43.474 0 16.344 6.353 31.723 17.888 43.303l53.954 54.164 10.627-10.586-53.954-54.164c-8.715-8.749-13.515-20.368-13.515-32.717 0-12.418 4.845-24.083 13.643-32.846 8.748-8.715 20.367-13.515 32.716-13.515 12.418 0 24.083 4.845 32.846 13.642l13.295 13.347 13.295-13.347c8.763-8.797 20.429-13.642 32.848-13.642 12.348 0 23.966 4.8 32.715 13.516 8.797 8.763 13.643 20.428 13.643 32.846 0 12.349-4.8 23.968-13.515 32.717l-78.985 79.292-14.445-14.501-10.627 10.586 25.072 25.17 89.612-89.961c11.536-11.58 17.888-26.958 17.888-43.303 0-16.436-6.413-31.875-18.057-43.473-11.579-11.537-26.957-17.89-43.301-17.89z" fill="#FFFFFF"/><path d="m248.462 0h15v26h-15z" fill="#FFFFFF"/><path d="m124.403 28.641h15v26h-15z" transform="matrix(.899 -.438 .438 .899 -4.905 62.036)" fill="#FFFFFF"/><path d="m25.455 108.768h15v26h-15z" transform="matrix(.616 -.788 .788 .616 -83.288 72.769)" fill="#FFFFFF"/><path d="m367.022 34.141h26v15h-26z" transform="matrix(.438 -.899 .899 .438 176.016 364.956)" fill="#FFFFFF"/><path d="m465.969 114.268h26v15h-26z" transform="matrix(.788 -.616 .616 .788 26.572 320.704)" fill="#FFFFFF"/><path d="m290.512 367.114-10.627-10.586c5.927-5.951 13.818-9.228 22.218-9.228 8.354 0 16.213 3.247 22.13 9.142l-10.586 10.627c-3.087-3.075-7.187-4.769-11.544-4.769-4.383 0-8.499 1.71-11.591 4.814z" fill="#FFFFFF"/></svg>
