<?xml version="1.0"?>
<svg xmlns="http://www.w3.org/2000/svg" height="512px" viewBox="0 -13 512.00101 512" width="512px"><path d="m216.5625 44.023438c2.734375-1.796876 3.984375-5.34375 3.027344-8.464844-.933594-3.050782-3.777344-5.261719-6.980469-5.355469-6.40625-.183594-10.15625 7.539063-5.984375 12.449219 2.457031 2.890625 6.789062 3.445312 9.9375 1.371094zm0 0" fill="#FFFFFF"/><path d="m308.402344 232.160156c2.171875 0 4.328125-.933594 5.828125-2.746094 2.644531-3.210937 2.191406-7.972656-1.019531-10.632812-3.21875-2.644531-7.980469-2.191406-10.628907 1.019531-2.65625 3.21875-2.203125 7.972657 1.015625 10.628907 1.398438 1.167968 3.113282 1.730468 4.804688 1.730468zm0 0" fill="#FFFFFF"/><path d="m343.867188 256.289062c2.65625 0 5.234374-1.398437 6.613281-3.882812 2.023437-3.65625.703125-8.246094-2.949219-10.269531-3.644531-2.023438-8.234375-.695313-10.257812 2.949219-2.023438 3.644531-.707032 8.246093 2.949218 10.257812 1.15625.644531 2.40625.945312 3.644532.945312zm0 0" fill="#FFFFFF"/><path d="m278 201.890625c1.710938 0 3.421875-.574219 4.839844-1.761719 3.191406-2.675781 3.617187-7.4375.9375-10.628906-2.667969-3.203125-7.429688-3.625-10.628906-.949219-3.203126 2.679688-3.625 7.441407-.949219 10.640625 1.5 1.78125 3.636719 2.699219 5.800781 2.699219zm0 0" fill="#FFFFFF"/><path d="m234.582031 128.132812c.9375 0 1.890625-.171874 2.808594-.542968 3.875-1.550782 5.746094-5.949219 4.199219-9.816406-1.550782-3.867188-5.953125-5.746094-9.816406-4.199219-3.875 1.550781-5.75 5.949219-4.199219 9.816406 1.179687 2.949219 4.019531 4.742187 7.007812 4.742187zm0 0" fill="#FFFFFF"/><path d="m221.152344 87.351562c.632812 0 1.289062-.078124 1.933594-.25 4.027343-1.066406 6.433593-5.195312 5.363281-9.230468-1.054688-4.027344-5.191407-6.433594-9.21875-5.367188-4.039063 1.066406-6.441407 5.195313-5.375 9.222656.894531 3.390626 3.957031 5.625 7.296875 5.625zm0 0" fill="#FFFFFF"/><path d="m246.851562 163.003906c1.402344 2.394532 3.925782 3.742188 6.523438 3.742188 1.289062 0 2.597656-.332032 3.796875-1.035156 3.601563-2.105469 4.820313-6.722657 2.71875-10.328126-2.105469-3.59375-6.726563-4.8125-10.328125-2.707031-3.605469 2.101563-4.8125 6.722657-2.710938 10.328125zm0 0" fill="#FFFFFF"/><path d="m376.863281 270.292969c1.691407 2.574219 4.933594 3.859375 7.929688 3.171875 3.128906-.722656 5.550781-3.40625 5.855469-6.621094.296874-3.144531-1.429688-6.207031-4.285157-7.5625-2.792969-1.324219-6.21875-.765625-8.453125 1.371094-2.589844 2.484375-3.085937 6.660156-1.046875 9.640625zm0 0" fill="#FFFFFF"/><path d="m504.449219 398.3125h-50.332031c-4.171876 0-7.550782 3.382812-7.550782 7.550781 0 8.601563-7 15.601563-15.601562 15.601563h-13.589844v-30.511719h27.984375c20.269531 0 38.769531-9.371094 50.761719-25.710937 11.996094-16.339844 15.386718-36.800782 9.308594-56.136719-11.523438-36.664063-42.125-63.804688-79.859376-70.832031-54.21875-10.09375-126.199218-43.617188-161.238281-145.988282-1.347656-3.945312-5.640625-6.050781-9.585937-4.699218-3.945313 1.351562-6.046875 5.644531-4.699219 9.589843 16.949219 49.519531 43.914063 88.488281 80.144531 115.8125 26.730469 20.164063 57.890625 33.664063 92.613282 40.128907 32.234374 6.003906 58.375 29.191406 68.21875 60.515624 3.546874 11.277344 2.835937 23.050782-1.792969 33.53125h-183.261719c-18.980469 0-37.988281-4.488281-54.96875-12.980468l-60.066406-30.03125c-19.074219-9.535156-40.421875-14.578125-61.734375-14.578125h-27.015625c-4.171875 0-7.550782 3.378906-7.550782 7.550781 0 4.167969 3.378907 7.550781 7.550782 7.550781h27.015625c18.980469 0 37.992187 4.488281 54.980469 12.984375l60.066406 30.027344c19.0625 9.535156 40.40625 14.578125 61.722656 14.578125h172.804688c-8.863282 8.703125-20.675782 13.585937-33.414063 13.585937h-139.386719c-18.984375 0-37.996094-4.488281-54.976562-12.980468l-60.066406-30.03125c-19.070313-9.535156-40.414063-14.574219-61.734376-14.574219h-114.09375v-13.59375h56.878907c4.167969 0 7.550781-3.378906 7.550781-7.546875 0-4.171875-3.382812-7.550781-7.550781-7.550781h-56.878907v-66.386719c0-23.804688 4.960938-46.875 14.746094-68.574219 10.671875-23.660156 16.085938-48.820312 16.085938-74.777343v-64.738282h186.195312c2.316406 19.953125 5.777344 38.953125 10.3125 56.570313 1.039063 4.039062 5.15625 6.46875 9.191406 5.429687 4.039063-1.039062 6.46875-5.152344 5.429688-9.191406-4.855469-18.875-8.441406-39.4375-10.652344-61.121094-.394531-3.855468-3.636718-6.785156-7.511718-6.785156h-200.515626c-4.171874 0-7.550781 3.382812-7.550781 7.550781v72.289063c0 23.800781-4.960937 46.871094-14.75 68.570312-10.671875 23.660156-16.082031 48.820313-16.082031 74.777344 0 0 .0585938 103.53125.0820312 103.6875.0078126.066406 9.7187498 57.78125 9.7187498 57.78125.609375 3.632812 3.757813 6.296875 7.445313 6.296875h17.214844v30.511719h-26.910157c-4.171875 0-7.550781 3.378906-7.550781 7.550781v50.332031c0 4.171875 3.378906 7.550782 7.550781 7.550782h423.414063c44.683594 0 81.035156-36.351563 81.035156-81.035157 0-4.167969-3.378906-7.550781-7.550781-7.550781zm-102.171875-7.359375v30.511719h-54.355469v-30.511719zm-158.035156-14.574219c19.066406 9.535156 40.414062 14.574219 61.730468 14.574219h26.847656v30.511719h-230.75v-30.511719h11.808594c3.433594 0 6.433594-2.316406 7.304688-5.636719l13.585937-51.808594c17.113281.789063 34.085938 5.179688 49.40625 12.835938zm-227.765626-43.011718h102.71875l-11.140624 42.484374h-84.421876zm33.085938 57.585937h37.40625v30.511719h-37.40625zm381.402344 80.84375h-415.863282v-35.230469h415.863282c14.328125 0 26.390625-9.863281 29.761718-23.152344h35.742188c-3.753906 32.816407-31.699219 58.382813-65.503906 58.382813zm0 0" fill="#FFFFFF"/></svg>
