<?xml version="1.0" encoding="iso-8859-1"?>
<!-- Generator: Adobe Illustrator 19.0.0, SVG Export Plug-In . SVG Version: 6.00 Build 0)  -->
<svg xmlns="http://www.w3.org/2000/svg" xmlns:xlink="http://www.w3.org/1999/xlink" version="1.1" id="Capa_1" x="0px" y="0px" viewBox="0 0 480 480" style="enable-background:new 0 0 480 480;" xml:space="preserve" width="512px" height="512px">
<g>
	<g>
		<g>
			<path d="M200,176c4.418,0,8-3.582,8-8v-8c0-4.418-3.582-8-8-8s-8,3.582-8,8v8C192,172.418,195.582,176,200,176z" fill="#FFFFFF"/>
			<path d="M280,176c4.418,0,8-3.582,8-8v-8c0-4.418-3.582-8-8-8s-8,3.582-8,8v8C272,172.418,275.582,176,280,176z" fill="#FFFFFF"/>
			<path d="M219.555,198.696c0.279,0.186,0.569,0.355,0.869,0.504l16,8c3.954,1.975,8.761,0.37,10.736-3.584     c1.975-3.954,0.37-8.761-3.584-10.736l-7.896-3.944l10.976-16.456c2.452-3.676,1.46-8.644-2.216-11.096     c-3.676-2.452-8.644-1.46-11.096,2.216l-16,24C214.891,191.274,215.88,196.242,219.555,198.696z" fill="#FFFFFF"/>
			<path d="M204.744,224.08c17.296,19.474,47.104,21.239,66.578,3.942c1.391-1.235,2.707-2.552,3.942-3.942l2.4-2.4l-11.336-11.28     l-2.4,2.4c-11.441,13.208-31.423,14.642-44.631,3.201c-1.142-0.989-2.212-2.059-3.201-3.201l-2.4-2.4l-11.344,11.28     L204.744,224.08z" fill="#FFFFFF"/>
			<path d="M416,318.192V312c-0.057-48.577-39.423-87.943-88-88h-0.8c4.656-10.093,7.509-20.923,8.432-32H336     c17.673,0,32-14.327,32-32s-14.327-32-32-32V80h64V64h-64.472C331.42,27.586,300.645,0.05,264,0h-48     c-36.645,0.05-67.42,27.586-71.528,64H144v64c-17.673,0-32,14.327-32,32s14.327,32,32,32h0.408     c0.923,11.077,3.776,21.907,8.432,32H152c-48.577,0.057-87.943,39.423-88,88v6.192C38.777,337.844,24.02,368.025,24,400v80h432     v-80C455.98,368.025,441.223,337.844,416,318.192z M336,144c8.837,0,16,7.163,16,16s-7.163,16-16,16V144z M144,176     c-8.837,0-16-7.163-16-16s7.163-16,16-16V176z M328,240c38.071,0.047,69.525,29.724,71.784,67.728     C385.033,300.026,368.64,296.003,352,296h-72v-24.8c15.081-6.972,28.106-17.718,37.816-31.2H328z M216,16h48     c27.826,0.035,51.419,20.465,55.432,48H160.568C164.581,36.465,188.174,16.035,216,16z M160,128V80h160v12.688l-10.328,10.32     c-18.159,18.185-46.371,21.66-68.4,8.424L204.12,89.144c-3.787-2.275-8.702-1.05-10.978,2.738C192.395,93.125,192,94.549,192,96     v8.936c0.004,10.332-6.606,19.508-16.408,22.776L160,132.896V128z M160,149.76l20.656-6.88     c14.603-4.855,25.118-17.667,27.032-32.936l25.344,15.2c27.898,16.754,63.572,12.675,86.968-9.944V184c0,44.183-35.817,80-80,80     s-80-35.817-80-80V149.76z M264,276.8V312c0,13.255-10.745,24-24,24s-24-10.745-24-24v-35.2     C231.723,281.013,248.277,281.013,264,276.8z M152,240h10.184c9.71,13.482,22.735,24.228,37.816,31.2V296h-72     c-16.64,0.003-33.033,4.026-47.784,11.728C82.475,269.724,113.929,240.047,152,240z M168,312v56     c-0.021,7.549-3.573,14.654-9.6,19.2L120,416v-20l16-12c10.048-7.575,15.969-19.417,16-32v-40H168z M104,464H40v-16h64V464z      M104,392v40H40v-32c0.057-48.577,39.423-87.943,88-88h8v40c-0.021,7.549-3.573,14.654-9.6,19.2l-19.2,14.4     C105.186,387.111,104,389.482,104,392z M360,448v16H120v-28l48-36c10.048-7.575,15.969-19.417,16-32v-56h16     c0,22.091,17.909,40,40,40c22.091,0,40-17.909,40-40h16v56c0.031,12.583,5.952,24.425,16,32l48,36V448z M360,416l-38.4-28.8     c-6.027-4.547-9.579-11.651-9.6-19.2v-56h16v40c0.031,12.583,5.952,24.425,16,32l16,12V416z M440,464h-64v-16h64V464z M440,432     h-64v-40c0-2.518-1.186-4.889-3.2-6.4l-19.2-14.4c-6.027-4.547-9.579-11.651-9.6-19.2v-40h8c48.577,0.057,87.943,39.423,88,88     V432z" fill="#FFFFFF"/>
		</g>
	</g>
</g>
<g>
</g>
<g>
</g>
<g>
</g>
<g>
</g>
<g>
</g>
<g>
</g>
<g>
</g>
<g>
</g>
<g>
</g>
<g>
</g>
<g>
</g>
<g>
</g>
<g>
</g>
<g>
</g>
<g>
</g>
</svg>
