<?xml version="1.0"?>
<svg xmlns="http://www.w3.org/2000/svg" height="512px" viewBox="-16 0 480 480.10467" width="512px"><path d="m180.371094 85.113281c-4.042969 1.609375-6.054688 6.15625-4.53125 10.230469 1.523437 4.078125 6.023437 6.1875 10.132812 4.753906 14.226563-5.34375 29.914063-5.34375 44.140625 0 4.109375 1.433594 8.609375-.675781 10.132813-4.753906 1.523437-4.074219-.488282-8.621094-4.53125-10.230469-17.84375-6.683593-37.5-6.683593-55.34375 0zm0 0" fill="#FFFFFF"/><path d="m255.898438 67.800781c3.683593-.003906 6.890624-2.523437 7.765624-6.101562s-.808593-7.292969-4.078124-8.996094c-32.308594-16.734375-70.730469-16.734375-103.039063 0-2.640625 1.253906-4.390625 3.851563-4.558594 6.769531-.167969 2.921875 1.273438 5.699219 3.753907 7.246094 2.480468 1.546875 5.609374 1.621094 8.15625.1875 27.699218-14.34375 60.636718-14.34375 88.335937 0 1.132813.585938 2.390625.894531 3.664063.894531zm0 0" fill="#FFFFFF"/><path d="m141.898438 34.570312c40.636718-24.769531 91.699218-24.769531 132.335937 0 3.757813 2.097657 8.503906.847657 10.742187-2.828124 2.234376-3.679688 1.15625-8.46875-2.4375-10.835938-45.734374-27.875-103.207031-27.875-148.945312 0-3.777344 2.292969-4.980469 7.210938-2.6875 10.992188 2.292969 3.777343 7.214844 4.980468 10.992188 2.6875zm0 0" fill="#FFFFFF"/><path d="m440.066406 112.105469h-48c-4.417968 0-8 3.582031-8 8v190.800781l-91.496094 33.300781c-9.199218-8.988281-21.195312-14.566406-34-15.804687l-17.933593-49.28125 99.605469-36.304688c4.152343-1.503906 6.300781-6.085937 4.800781-10.238281l-23.304688-64.128906c9.035157-12.332031 13.910157-27.21875 13.929688-42.503907.015625-8.390624-1.449219-16.714843-4.335938-24.59375-1.503906-4.152343-6.089843-6.300781-10.242187-4.800781l-315.757813 114.914063c-4.15625 1.503906-6.308593 6.09375-4.800781 10.246094 4.886719 13.394531 13.648438 25.027343 25.175781 33.417968l-4 1.464844c-4.15625 1.503906-6.304687 6.089844-4.800781 10.246094l21.929688 60.160156c.722656 2 2.207031 3.628906 4.132812 4.527344 1.921875.902344 4.125 1 6.121094.273437l22.527344-8.207031 2.730468 7.496094c.722656 2 2.214844 3.628906 4.144532 4.527344 1.921874.898437 4.125.996093 6.117187.261718l103.386719-37.597656 19.542968 53.726562c-12.921874 18.277344-13.699218 42.496094-1.976562 61.5625 11.722656 19.066407 33.683594 29.304688 55.824219 26.023438 22.136719-3.277344 40.1875-19.445312 45.878906-41.089844l76.800781-27.917968v101.519531c0 4.417969 3.582032 8 8 8 4.417969 0 8-3.582031 8-8v-344h32v344c0 4.417969 3.582032 8 8 8 4.417969 0 8-3.582031 8-8v-352c0-4.417969-3.582031-8-8-8zm-421.207031 111.472656 299.65625-109.027344c.765625 3.75 1.152344 7.566407 1.152344 11.394531-.011719 23.53125-14.707031 44.554688-36.800781 52.648438l-195.535157 71.199219c-9.28125 3.414062-19.3125 4.246093-29.023437 2.398437-3.621094-.570312-7.15625-1.574218-10.539063-2.984375-12.390625-4.8125-22.644531-13.90625-28.910156-25.628906zm32.3125 90.398437-16.449219-45.070312 10.082032-3.679688c.742187.261719 1.484374.429688 2.230468.660157.984375.3125 1.953125.617187 2.917969.867187.394531.101563.800781.253906 1.175781.351563l1.832032 5.039062 13.234374 36.417969zm32.800781-3.414062-11.371094-31.257812-3.695312-10.144532c.992188 0 1.976562-.085937 2.96875-.152344 7.148438-.328124 14.203125-1.742187 20.929688-4.183593l195.527343-71.199219c3.589844-1.339844 7.066407-2.964844 10.398438-4.855469v.09375c2.03125-1.132812 4-2.398437 5.914062-3.679687.550781-.382813 1.070313-.800782 1.597657-1.199219 1.089843-.800781 2.199218-1.601563 3.25-2.398437l17.773437 48.917968-99.070313 36.121094c-.207031.054688-.410156.128906-.617187.199219l-140.871094 51.257812zm119.0625-17.824219 22.542969-8.203125 16.273437 44.714844c-2.625.539062-5.210937 1.265625-7.730468 2.183594-2.433594.902344-4.800782 1.96875-7.085938 3.199218-.726562.390626-1.410156.871094-2.121094 1.289063-1.511718.886719-3.007812 1.789063-4.421874 2.816406-.183594.132813-.402344.230469-.59375.367188zm89.601563 98.230469v.070312c-3.367188 19.125-19.984375 33.070313-39.402344 33.066407-19.417969-.003907-36.027344-13.949219-39.390625-33.074219-3.359375-19.125 7.5-37.902344 25.75-44.527344 4.285156-1.539062 8.800781-2.351562 13.351562-2.398437h.433594c11.929688.046875 23.222656 5.394531 30.816406 14.597656 2.902344 3.5 5.167969 7.484375 6.6875 11.769531 2.414063 6.5625 3.03125 13.648438 1.785157 20.527344zm91.429687-37.425781-74.863281 27.203125c0-.242188-.082031-.472656-.097656-.714844-.125-1.742188-.398438-3.46875-.6875-5.199219-.144531-.800781-.207031-1.648437-.382813-2.457031-.535156-2.523438-1.246094-5.007812-2.136718-7.429688-.914063-2.539062-2.011719-5.011718-3.28125-7.394531l81.449218-29.621093zm0 0" fill="#FFFFFF"/></svg>
