<?xml version="1.0"?>
<svg xmlns="http://www.w3.org/2000/svg" height="512px" viewBox="0 0 512 512" width="512px"><path d="m256 312c-5.519531 0-10 4.480469-10 10s4.480469 10 10 10 10-4.480469 10-10-4.480469-10-10-10zm0 0" fill="#FFFFFF"/><path d="m376 0c-17.363281 0-33.21875 9.007812-42.246094 23.25-5.628906-2.140625-11.628906-3.25-17.753906-3.25-24.144531 0-44.351562 17.207031-48.996094 40h-11.003906c-16.542969 0-30 13.457031-30 30s13.457031 30 30 30h180c16.574219 0 30-13.425781 30-30 0-16.542969-13.457031-30-30-30h-11.015625c.667969-3.277344 1.015625-6.628906 1.015625-10 0-27.570312-22.429688-50-50-50zm0 20c16.542969 0 30 13.457031 30 30 0 3.421875-.59375 6.804688-1.71875 10h-39.289062c-2.019532-9.921875-7.023438-18.996094-14.347657-26.035156 5.414063-8.550782 14.925781-13.964844 25.355469-13.964844zm70 70c0 5.519531-4.480469 10-10 10h-180c-5.515625 0-10-4.484375-10-10s4.484375-10 10-10h20c5.523438 0 10-4.476562 10-10 0-16.542969 13.457031-30 30-30 16.707031 0 30 13.570312 30 30 0 5.523438 4.476562 10 10 10h80c5.515625 0 10 4.484375 10 10zm0 0" fill="#FFFFFF"/><path d="m482 272h-246c-16.542969 0-30 13.457031-30 30v40c0 16.542969 13.457031 30 30 30h10v20h-10c-16.574219 0-30 13.425781-30 30 0 13.035156 8.359375 24.152344 20 28.28125v41.71875h-66v-10c0-16.542969-13.457031-30-30-30h-10v-70c0-13.035156-8.359375-24.152344-20-28.28125v-173.71875h20c4.5625 0 8.550781-3.089844 9.683594-7.511719l23.78125-92.488281h16.535156c5.523438 0 10-4.476562 10-10s-4.476562-10-10-10h-3.820312l-17.234376-34.472656c-1.695312-3.386719-5.15625-5.527344-8.945312-5.527344h-40v-10c0-5.523438-4.476562-10-10-10s-10 4.476562-10 10v10h-40c-3.789062 0-7.25 2.140625-8.945312 5.527344l-17.234376 34.472656h-3.820312c-5.523438 0-10 4.476562-10 10s4.476562 10 10 10h16.535156l23.78125 92.488281c1.132813 4.421875 5.121094 7.511719 9.683594 7.511719h20v173.71875c-11.640625 4.128906-20 15.246094-20 28.28125v70h-10c-16.542969 0-30 13.457031-30 30v10h-10c-5.523438 0-10 4.476562-10 10s4.476562 10 10 10h492c5.523438 0 10-4.476562 10-10s-4.476562-10-10-10h-10v-41.703125c11.390625-4.019531 20-14.964844 20-28.296875 0-16.542969-13.457031-30-30-30h-10v-20h10c16.542969 0 30-13.457031 30-30v-40c0-16.542969-13.457031-30-30-30zm-435.820312-232h87.640624l10 20h-107.640624zm21.574218 120-20.566406-80h85.625l-20.566406 80h-12.246094v-50c0-5.523438-4.476562-10-10-10s-10 4.476562-10 10v50zm178.246094 292h20v40h-20zm186 0v40h-146v-40zm-352-70c0-5.515625 4.484375-10 10-10s10 4.484375 10 10v70h-20zm-40 100c0-5.515625 4.484375-10 10-10h80c5.515625 0 10 4.484375 10 10v10h-100zm412 10v-40h20v40zm40-70c0 5.519531-4.480469 10-10 10h-246c-5.515625 0-10-4.484375-10-10 0-5.519531 4.480469-10 10-10h246c5.515625 0 10 4.484375 10 10zm-40-30h-186v-20h186zm40-50c0 5.515625-4.484375 10-10 10h-246c-5.515625 0-10-4.484375-10-10v-40c0-5.515625 4.484375-10 10-10h246c5.515625 0 10 4.484375 10 10zm0 0" fill="#FFFFFF"/><path d="m462 312h-166c-5.523438 0-10 4.476562-10 10s4.476562 10 10 10h166c5.523438 0 10-4.476562 10-10s-4.476562-10-10-10zm0 0" fill="#FFFFFF"/></svg>
