<?xml version="1.0" encoding="iso-8859-1"?>
<!-- Generator: Adobe Illustrator 19.0.0, SVG Export Plug-In . SVG Version: 6.00 Build 0)  -->
<svg xmlns="http://www.w3.org/2000/svg" xmlns:xlink="http://www.w3.org/1999/xlink" version="1.1" id="Capa_1" x="0px" y="0px" viewBox="0 0 512 512" style="enable-background:new 0 0 512 512;" xml:space="preserve" width="512px" height="512px">
<g>
	<g>
		<g>
			<path d="M90,452c-5.52,0-10,4.48-10,10c0,5.52,4.48,10,10,10s10-4.48,10-10C100,456.48,95.52,452,90,452z" fill="#FFFFFF"/>
			<path d="M482,452h-10v-10c0-16.542-13.458-30-30-30H306v-2.15c0-28.6,17.159-53.943,43.714-64.565     c16.686-6.674,30.824-18.065,40.887-32.937c2.51-3.707,4.732-7.604,6.618-11.565c0.032-0.058,0.057-0.12,0.088-0.179     c0.054-0.115,0.115-0.228,0.169-0.342c0.023-0.049,0.044-0.098,0.067-0.147c0.044-0.096,0.091-0.191,0.131-0.289     c5.522-11.88,8.326-24.552,8.326-37.676V256c0-5.523-4.478-10-10-10h-89.659c1.779-16.871,10.904-32.148,25.202-41.677     c10.552-7.027,19.301-16.661,25.308-27.872c5.985-11.205,9.149-23.831,9.149-36.512V136c0-5.523-4.478-10-10-10h-90v-16     c0-49.626,40.374-90,90-90c49.626,0,90,40.374,90,90v46c0,5.523,4.478,10,10,10c5.522,0,10-4.477,10-10v-46     C466,49.346,416.654,0,356,0c-44.319,0-82.595,26.348-100,64.2C238.595,26.348,200.319,0,156,0C95.346,0,46,49.346,46,110v46     c0,5.523,4.477,10,10,10s10-4.477,10-10v-46c0-49.626,40.374-90,90-90c49.626,0,90,40.374,90,90v16h-90c-5.523,0-10,4.477-10,10     v3.94c0,25.935,12.88,50.002,34.457,64.383c7.821,5.208,14.308,12.353,18.752,20.649c3.486,6.524,5.66,13.698,6.445,21.028H116     c-5.523,0-10,4.477-10,10v6.15c0,36.826,22.094,69.458,56.286,83.135c12.958,5.183,23.938,14.028,31.754,25.583     C201.864,382.42,206,395.9,206,409.85V412H70c-16.542,0-30,13.458-30,30v10H30c-16.542,0-30,13.458-30,30v20     c0,5.523,4.477,10,10,10h492c5.522,0,10-4.477,10-10v-20C512,465.458,498.542,452,482,452z M191.546,187.679     c-14.301-9.532-23.45-24.906-25.228-41.779h179.358c-0.784,7.33-2.979,14.601-6.46,21.117     c-4.451,8.307-10.938,15.451-18.762,20.662c-19.884,13.252-32.382,34.733-34.219,58.321H225.76     c-0.841-10.615-3.88-21.038-8.916-30.463C210.844,204.338,202.095,194.704,191.546,187.679z M169.714,326.715     c-25.357-10.143-42.147-33.808-43.61-60.815c28.222,0,232.663,0,259.792,0c-0.374,6.87-1.76,13.661-4.123,20.1H196     c-5.523,0-10,4.477-10,10s4.477,9.9,10,9.9h174.419c-7.443,9.178-17.062,16.387-28.133,20.815     C308.094,340.392,286,373.024,286,409.85V412h-60v-2.15c0-17.964-5.325-35.322-15.397-50.193     C200.539,344.781,186.4,333.39,169.714,326.715z M492,492H20v-10c0-5.514,4.486-10,10-10h20c5.523,0,10-4.477,10-10v-20     c0-5.514,4.486-10,10-10c6.054,0,361.504,0,372,0c5.514,0,10,4.486,10,10v10H130c-5.523,0-10,4.477-10,10s4.477,10,10,10     c18.055,0,342.629,0,352,0c5.514,0,10,4.486,10,10V492z" fill="#FFFFFF"/>
			<path d="M56,226c5.523,0,10-4.477,10-10v-20c0-5.523-4.477-10-10-10s-10,4.477-10,10v20C46,221.523,50.477,226,56,226z" fill="#FFFFFF"/>
			<path d="M56,286c5.523,0,10-4.477,10-10v-20c0-5.523-4.477-10-10-10s-10,4.477-10,10v20C46,281.523,50.477,286,56,286z" fill="#FFFFFF"/>
			<path d="M466,196c0-5.523-4.478-10-10-10c-5.522,0-10,4.477-10,10v20c0,5.523,4.478,10,10,10c5.522,0,10-4.477,10-10V196z" fill="#FFFFFF"/>
			<path d="M456,246c-5.522,0-10,4.477-10,10v20c0,5.523,4.478,10,10,10c5.522,0,10-4.477,10-10v-20     C466,250.477,461.522,246,456,246z" fill="#FFFFFF"/>
		</g>
	</g>
</g>
<g>
</g>
<g>
</g>
<g>
</g>
<g>
</g>
<g>
</g>
<g>
</g>
<g>
</g>
<g>
</g>
<g>
</g>
<g>
</g>
<g>
</g>
<g>
</g>
<g>
</g>
<g>
</g>
<g>
</g>
</svg>
