<?xml version="1.0"?>
<svg xmlns="http://www.w3.org/2000/svg" id="Capa_1" enable-background="new 0 0 512 512" height="512px" viewBox="0 0 512 512" width="512px"><path d="m480.485 435.243-180.485-180.485v-136l-86-86-86 86v60.485h-128v300h512v-44zm-192.485-308v20h-148v-20zm-32 308h-84v-20h84zm0-32h-84v-20h84zm0-32h-84v-20h84zm0-32h-84v-20h84zm-116-32v-20h148v20zm116-148v40.111c-9.908-12.255-25.05-20.111-42-20.111s-32.093 7.856-42 20.111v-40.111zm-42 32c23.159 0 42 18.841 42 42v42h-84v-42c0-23.16 18.841-42 42-42zm54 84v-116h20v116zm-108-116v116h-20v-116zm-20 160h20v148h-20zm32 128h84v20h-84zm96-128h20v148h-20zm32 32.485 115.515 115.515h-115.515zm-20.485-236.485h-131.03l65.515-65.515zm-151.515 76v20h-116v-20zm-116 32h116v244h-116zm488 244h-67.515l-132.485-132.485v-63.03l175.515 175.515h24.485z" fill="#FFFFFF"/><path d="m70 335.243c20.953 0 38-17.047 38-38s-17.047-38-38-38-38 17.047-38 38 17.047 38 38 38zm0-64c14.336 0 26 11.663 26 26s-11.664 26-26 26-26-11.663-26-26 11.664-26 26-26z" fill="#FFFFFF"/><path d="m70 355.243c-20.953 0-38 17.047-38 38s17.047 38 38 38 38-17.047 38-38-17.047-38-38-38zm0 64c-14.336 0-26-11.663-26-26s11.664-26 26-26 26 11.663 26 26-11.664 26-26 26z" fill="#FFFFFF"/></svg>
