<?xml version="1.0"?>
<svg xmlns="http://www.w3.org/2000/svg" id="Layer_1" data-name="Layer 1" viewBox="0 0 128 128" width="512px" height="512px"><path d="M121.5,110.75h-7.7a10.227,10.227,0,0,1-8.378-4.357L70.752,57.1A13.749,13.749,0,0,0,59.51,51.25h-2.8V47.67H64a1.751,1.751,0,0,0,1.75-1.75V39.333c0-.062-.012-.121-.018-.182,0-.037,0-.073-.011-.109a1.743,1.743,0,0,0-.125-.42c-.01-.021-.023-.041-.034-.062a1.756,1.756,0,0,0-.211-.327c-.014-.016-.02-.036-.035-.052L36.566,5.347a1.806,1.806,0,0,0-2.632,0L5.184,38.181c-.015.016-.021.036-.035.052a1.756,1.756,0,0,0-.211.327c-.011.021-.024.041-.034.062a1.743,1.743,0,0,0-.125.42c-.006.036-.007.072-.011.109-.006.061-.018.12-.018.182V45.92A1.751,1.751,0,0,0,6.5,47.67h7.292V121.5a1.75,1.75,0,0,0,1.75,1.75h6a1.751,1.751,0,0,0,1.75-1.75v-9H47.208v9a1.751,1.751,0,0,0,1.75,1.75h6a1.75,1.75,0,0,0,1.75-1.75v-52a10.3,10.3,0,0,1,6.841,3.882l34.638,44.548a13.817,13.817,0,0,0,10.853,5.318H121.5a1.751,1.751,0,0,0,1.75-1.75v-9A1.751,1.751,0,0,0,121.5,110.75ZM35.25,9.156,60.142,37.583H10.358Zm-27,31.927h54V44.17h-54ZM47.208,85H23.292V76.5H47.208ZM23.292,88.5H47.208V97H23.292ZM47.208,73H23.292V47.67H47.208ZM19.792,119.75h-2.5V47.67h2.5v72.08ZM23.292,109v-8.5H47.208V109ZM53.208,119.75h-2.5V47.67h2.5Zm66.542,0H109.04a10.3,10.3,0,0,1-8.089-3.964L66.313,71.238a13.816,13.816,0,0,0-9.605-5.245V54.75h2.8a10.245,10.245,0,0,1,8.378,4.357l34.669,49.3A13.73,13.73,0,0,0,113.8,114.25h5.95Z" fill="#FFFFFF"/><path d="M52.087,32.181,40.71,19.188a1.75,1.75,0,1,0-2.632,2.306L49.455,34.486a1.749,1.749,0,1,0,2.632-2.3Z" fill="#FFFFFF"/><path d="M35.25,68.087a7.75,7.75,0,1,0-7.75-7.75A7.759,7.759,0,0,0,35.25,68.087Zm0-12A4.25,4.25,0,1,1,31,60.337,4.255,4.255,0,0,1,35.25,56.087Z" fill="#FFFFFF"/></svg>
