<?xml version="1.0" encoding="iso-8859-1"?>
<!-- Generator: Adobe Illustrator 19.0.0, SVG Export Plug-In . SVG Version: 6.00 Build 0)  -->
<svg xmlns="http://www.w3.org/2000/svg" xmlns:xlink="http://www.w3.org/1999/xlink" version="1.1" id="Layer_1" x="0px" y="0px" viewBox="0 0 503.744 503.744" style="enable-background:new 0 0 503.744 503.744;" xml:space="preserve" width="512px" height="512px">
<g>
	<g>
		<path d="M428.252,227.84l-3.534-7.101c-14.227-28.756-21.739-60.668-21.756-91.816c0.856-15.343,6.606-35.043,10.802-49.421    c1.242-4.272,2.384-8.184,3.29-11.566c3.508-13.152,3.559-24.845,0.151-34.757C406.672,2.543,388.576,0,369.38,0    s-37.292,2.543-47.826,33.179c-3.408,9.913-3.357,21.605,0.151,34.766c0.906,3.374,2.048,7.286,3.29,11.558    c4.197,14.378,9.946,34.077,10.786,48.951c0,31.618-7.512,63.53-21.739,92.286l-3.374,6.774c-0.015,0.03-0.03,0.06-0.044,0.089    l-3.414-6.868c-14.227-28.748-21.739-60.659-21.756-91.816c0.856-15.335,6.606-35.034,10.802-49.412    c1.242-4.281,2.384-8.184,3.29-11.566c3.508-13.153,3.559-24.845,0.151-34.757c-10.534-30.644-28.63-33.179-47.826-33.179    s-37.292,2.535-47.826,33.179c-3.408,9.913-3.357,21.605,0.151,34.757c0.906,3.383,2.048,7.285,3.29,11.566    c4.197,14.378,9.946,34.077,10.786,48.951c0,31.618-7.512,63.53-21.739,92.278l-3.414,6.868c-0.015-0.03-0.03-0.06-0.044-0.089    l-3.374-6.774c-14.227-28.756-21.739-60.668-21.756-91.816c0.856-15.343,6.606-35.043,10.802-49.421    c1.242-4.272,2.384-8.184,3.29-11.566c3.508-13.152,3.559-24.845,0.151-34.757C171.656,2.543,153.56,0,134.364,0    S97.072,2.543,86.538,33.179c-3.408,9.913-3.357,21.605,0.151,34.766c0.906,3.374,2.048,7.286,3.29,11.558    c4.197,14.378,9.946,34.077,10.786,48.951c0,31.618-7.512,63.53-21.739,92.286l-3.534,7.101    c-14.495,29.058-32.525,65.217-33.456,99.504v41.967c0,28.722,8.142,54.432,16.485,78.311    c12.834,36.713,30.351,56.119,50.663,56.119h50.361c12.472,0,23.733-7.086,33.601-21.093    c9.865,13.898,21.187,21.097,33.547,21.097h50.361c12.36,0,23.682-7.199,33.547-21.097c9.868,14.007,21.129,21.093,33.601,21.093    h50.361c20.312,0,37.829-19.406,50.663-56.119c8.343-23.879,16.485-49.588,16.485-78.311v-42.194    C460.776,293.057,442.747,256.898,428.252,227.84z M337.426,38.643c7.176-20.883,15.889-21.857,31.954-21.857    s24.777,0.974,31.954,21.857c2.3,6.698,2.132,15.1-0.504,24.962c-0.873,3.273-1.981,7.059-3.181,11.197    c-2.22,7.595-4.847,16.597-7.038,25.92h-42.449c-2.193-9.284-4.826-18.309-7.051-25.92c-1.2-4.138-2.308-7.923-3.181-11.197    C335.295,53.743,335.127,45.341,337.426,38.643z M351.453,117.509h35.888c-0.548,3.723-0.954,7.396-1.148,10.944    c0,10.348,0.756,20.723,2.219,31.023h-38.086c1.477-10.421,2.237-20.949,2.234-31.493    C352.371,124.604,351.982,121.089,351.453,117.509z M219.918,38.647c7.176-20.883,15.889-21.857,31.954-21.857    s24.777,0.974,31.954,21.857c2.3,6.69,2.132,15.091-0.504,24.962c-0.873,3.265-1.981,7.05-3.181,11.197    c-2.22,7.594-4.846,16.595-7.038,25.916h-42.45c-2.193-9.283-4.825-18.306-7.05-25.916c-1.2-4.146-2.308-7.932-3.181-11.197    C217.786,53.738,217.618,45.336,219.918,38.647z M233.944,117.509h35.889c-0.548,3.724-0.954,7.398-1.149,10.948    c0,10.346,0.756,20.72,2.219,31.02h-38.087c1.477-10.421,2.237-20.947,2.235-31.49    C234.863,124.607,234.473,121.09,233.944,117.509z M102.41,38.643c7.176-20.883,15.889-21.857,31.954-21.857    c16.065,0,24.777,0.974,31.954,21.857c2.3,6.698,2.132,15.1-0.504,24.962c-0.873,3.273-1.981,7.059-3.181,11.197    c-2.22,7.595-4.847,16.597-7.038,25.92h-42.449c-2.193-9.284-4.826-18.309-7.051-25.92c-1.2-4.138-2.308-7.923-3.181-11.197    C100.278,53.743,100.11,45.341,102.41,38.643z M116.437,117.509h35.888c-0.548,3.723-0.953,7.396-1.148,10.944    c0,10.348,0.756,20.723,2.219,31.023h-38.086c1.477-10.421,2.237-20.949,2.234-31.493    C117.354,124.604,116.965,121.089,116.437,117.509z M159.544,486.954h-50.361c-12.162,0-24.845-16.35-34.816-44.863    c-7.865-22.52-15.545-46.684-15.545-72.78v-41.732c0.823-30.351,17.937-64.671,31.694-92.252l3.559-7.151    c8.16-16.495,14.254-33.966,18.193-51.913h44.174c3.94,17.901,10.039,35.396,18.21,51.913l3.391,6.824    c1.878,3.762,3.805,7.639,5.744,11.598c-11.975,25.098-23.503,53.515-24.243,80.75v41.967c0,28.714,8.142,54.432,16.485,78.311    c2.383,6.818,4.929,13.036,7.623,18.646C177.862,476.431,169.473,486.954,159.544,486.954z M277.052,486.957h-50.361    c-12.162,0-24.845-16.359-34.816-44.871c-7.865-22.52-15.545-46.684-15.545-72.771v-41.741    c0.823-30.351,17.937-64.663,31.694-92.244l3.559-7.151c8.16-16.498,14.253-33.971,18.192-51.916h44.175    c3.94,17.9,10.038,35.396,18.209,51.916l3.559,7.151c13.757,27.581,30.871,61.893,31.694,92.017v41.967    c0,26.087-7.68,50.252-15.545,72.771C301.897,470.598,289.215,486.957,277.052,486.957z M444.921,369.311    c0,26.095-7.68,50.26-15.545,72.771c-9.971,28.521-22.654,44.871-34.816,44.871H344.2c-9.929,0-18.317-10.523-24.107-20.682    c2.694-5.611,5.24-11.829,7.623-18.646c8.343-23.879,16.485-49.597,16.485-78.311v-42.194    c-0.74-27.054-12.268-55.434-24.243-80.524c1.939-3.958,3.866-7.835,5.744-11.597l3.391-6.824    c8.16-16.495,14.254-33.966,18.193-51.913h44.174c3.94,17.901,10.039,35.396,18.21,51.913l3.559,7.151    c13.757,27.581,30.871,61.902,31.694,92.017V369.311z" fill="#FFFFFF"/>
	</g>
</g>
<g>
</g>
<g>
</g>
<g>
</g>
<g>
</g>
<g>
</g>
<g>
</g>
<g>
</g>
<g>
</g>
<g>
</g>
<g>
</g>
<g>
</g>
<g>
</g>
<g>
</g>
<g>
</g>
<g>
</g>
</svg>
