<?xml version="1.0"?>
<svg xmlns="http://www.w3.org/2000/svg" height="512px" viewBox="0 0 59 60" width="512px"><g id="Page-1" fill="none" fill-rule="evenodd"><g id="015---Toilet" fill="rgb(0,0,0)" fill-rule="nonzero"><path id="Shape" d="m56 28h-33v-22c1.6568542 0 3-1.34314575 3-3s-1.3431458-3-3-3h-20c-1.65685425 0-3 1.34314575-3 3s1.34314575 3 3 3v21c.00440864 3.8641657 3.13583434 6.9955914 7 7h1v24c0 1.1045695.8954305 2 2 2h16c1.1045695 0 2-.8954305 2-2v-5c0-1.6568542 1.3431458-3 3-3h8c7.1762751-.008266 12.991734-5.8237249 13-13v-3h1c1.6568542 0 3-1.3431458 3-3s-1.3431458-3-3-3zm-54-25c0-.55228475.44771525-1 1-1h20c.5522847 0 1 .44771525 1 1s-.4477153 1-1 1h-20c-.55228475 0-1-.44771525-1-1zm3 24v-21h16v26h-11c-2.76005315-.0033061-4.99669388-2.2399468-5-5zm48 10c-.0071635 6.0721626-4.9278374 10.9928365-11 11h-8c-2.7600532.0033061-4.9966939 2.2399468-5 5v5h-16v-24h40zm3-5h-33v-2h33c.5522847 0 1 .4477153 1 1s-.4477153 1-1 1z" fill="#FFFFFF"/><path id="Shape" d="m8 8c-.55228475 0-1 .44771525-1 1v2c0 .5522847.44771525 1 1 1s1-.4477153 1-1v-2c0-.55228475-.44771525-1-1-1z" fill="#FFFFFF"/><path id="Shape" d="m8 14c-.55228475 0-1 .4477153-1 1v10c0 .5522847.44771525 1 1 1s1-.4477153 1-1v-10c0-.5522847-.44771525-1-1-1z" fill="#FFFFFF"/></g></g></svg>
