<?xml version="1.0" encoding="iso-8859-1"?>
<!-- Generator: Adobe Illustrator 19.0.0, SVG Export Plug-In . SVG Version: 6.00 Build 0)  -->
<svg xmlns="http://www.w3.org/2000/svg" xmlns:xlink="http://www.w3.org/1999/xlink" version="1.1" id="Capa_1" x="0px" y="0px" viewBox="0 0 512 512" style="enable-background:new 0 0 512 512;" xml:space="preserve" width="512px" height="512px">
<g>
	<g>
		<path d="M511.94,190.868c-0.264-2.077-1.384-3.948-3.088-5.163c-0.861-0.613-21.416-15.177-50.699-28.857    c-39.792-18.587-74.955-26.109-104.506-22.355c-41.5,5.27-70.975,43.319-65.707,84.82c0.297,2.335,0.707,4.637,1.208,6.908    c-24.598,13.253-48.929,31.649-68.55,57.159c-3.253-7.953-6.669-15.832-10.263-23.622c-3.703-8.027-7.605-15.956-11.668-23.802    c0.633-0.513,1.273-1.01,1.897-1.54c42.706-36.311,47.911-100.595,11.602-143.302C185.939,60.264,143.63,35.558,86.415,17.68    C44.17,4.479,9.986,0.238,8.551,0.064C6.48-0.186,4.385,0.439,2.79,1.796C1.195,3.151,0.24,5.111,0.154,7.203    C0.095,8.647-1.218,43.068,5.016,86.886c8.442,59.346,26.02,105.078,52.248,135.926c20.081,23.619,48.716,35.767,77.527,35.767    c17.738,0,35.539-4.621,51.453-13.99c3.578,6.967,7.029,14,10.316,21.113c17.504,37.884,30.913,77.86,39.853,118.817    c12.199,55.885,13.258,102.573,12.115,119.456c-0.284,4.132,2.835,7.713,6.967,7.998c0.175,0.012,0.35,0.018,0.523,0.018    c3.907,0,7.202-3.028,7.475-6.985c0.142-2.062,3.298-51.315-12.301-123.116c-6.054-27.868-14.136-55.291-24.113-81.948    c18.381-26.65,42.331-45.672,66.824-59.236c5.027,11.295,12.794,21.241,22.843,29.026c13.432,10.406,29.587,15.902,46.305,15.902    c3.222,0,6.465-0.204,9.713-0.616h-0.001c69.928-8.88,134.756-85.137,137.481-88.379    C511.587,195.036,512.204,192.944,511.94,190.868z M191.454,222.445c-19.153-34.718-41.844-67.49-67.766-97.792    c-2.692-3.147-7.426-3.516-10.575-0.824c-3.147,2.692-3.516,7.427-0.824,10.575c25.663,30,48.082,62.478,66.93,96.906    c-35.672,21.378-82.72,14.493-110.528-18.212C18.77,154.381,15.032,46.886,15.028,16.189    c30.296,4.941,135.79,25.922,185.711,84.639C231.515,137.027,227.29,191.399,191.454,222.445z M458.611,225.851    c-21.714,17.877-54.562,40.073-87.74,44.286c0,0,0,0-0.001,0c-16.123,2.047-32.088-2.307-44.941-12.264    c-8.284-6.417-14.622-14.67-18.641-24.041c27.881-13.25,55.275-19.959,74.781-23.335c4.082-0.706,6.818-4.587,6.112-8.669    c-0.707-4.082-4.59-6.813-8.67-6.111c-19.984,3.458-47.806,10.253-76.414,23.521c-0.095-0.604-0.198-1.206-0.276-1.816    c-4.228-33.295,19.42-63.823,52.715-68.049c4.298-0.546,8.66-0.798,13.063-0.798c29.588,0,60.771,11.405,82.963,21.749    c18.314,8.537,33.311,17.607,41.588,22.93C486.463,200.477,474.212,213.008,458.611,225.851z" fill="#FFFFFF"/>
	</g>
</g>
<g>
	<g>
		<path d="M101.37,99.983c-2.737-2.861-5.555-5.751-8.375-8.587c-2.92-2.937-7.668-2.949-10.606-0.029    c-2.937,2.92-2.95,7.669-0.029,10.606c2.751,2.767,5.5,5.585,8.168,8.376c1.473,1.541,3.446,2.317,5.422,2.317    c1.863,0,3.729-0.69,5.182-2.079C104.125,107.725,104.231,102.977,101.37,99.983z" fill="#FFFFFF"/>
	</g>
</g>
<g>
	<g>
		<path d="M423.675,191.053c-0.023,0-0.047,0-0.07,0c-0.179,0.001-4.453,0.046-11.758,0.6c-4.131,0.313-7.225,3.915-6.912,8.045    c0.298,3.938,3.586,6.934,7.471,6.934c0.189,0,0.382-0.007,0.574-0.022c6.754-0.512,10.729-0.558,10.768-0.558    c4.14-0.04,7.465-3.428,7.427-7.569C431.135,194.365,427.785,191.053,423.675,191.053z" fill="#FFFFFF"/>
	</g>
</g>
<g>
</g>
<g>
</g>
<g>
</g>
<g>
</g>
<g>
</g>
<g>
</g>
<g>
</g>
<g>
</g>
<g>
</g>
<g>
</g>
<g>
</g>
<g>
</g>
<g>
</g>
<g>
</g>
<g>
</g>
</svg>
