<?xml version="1.0"?>
<svg xmlns="http://www.w3.org/2000/svg" height="512px" viewBox="0 0 480 480" width="512px"><path d="m400 464v-56h-16v56h-136v-128h-16v128h-136v-56h-16v56h-80v16h480v-16zm0 0" fill="#FFFFFF"/><path d="m232 24h16v16h-16zm0 0" fill="#FFFFFF"/><path d="m172.121094 55.425781 11.3125-11.3125 11.3125 11.3125-11.3125 11.3125zm0 0" fill="#FFFFFF"/><path d="m152 104h16v16h-16zm0 0" fill="#FFFFFF"/><path d="m172.121094 168.570312 11.3125-11.316406 11.3125 11.316406-11.3125 11.3125zm0 0" fill="#FFFFFF"/><path d="m232 184h16v16h-16zm0 0" fill="#FFFFFF"/><path d="m285.253906 168.570312 11.3125-11.3125 11.316406 11.3125-11.316406 11.3125zm0 0" fill="#FFFFFF"/><path d="m312 104h16v16h-16zm0 0" fill="#FFFFFF"/><path d="m285.253906 55.433594 11.316406-11.3125 11.3125 11.3125-11.3125 11.316406zm0 0" fill="#FFFFFF"/><path d="m232 0h16v16h-16zm0 0" fill="#FFFFFF"/><path d="m155.148438 38.457031 11.3125-11.3125 11.3125 11.3125-11.3125 11.316407zm0 0" fill="#FFFFFF"/><path d="m128 104h16v16h-16zm0 0" fill="#FFFFFF"/><path d="m155.144531 185.535156 11.3125-11.316406 11.3125 11.316406-11.3125 11.3125zm0 0" fill="#FFFFFF"/><path d="m232 208h16v16h-16zm0 0" fill="#FFFFFF"/><path d="m302.21875 185.539062 11.3125-11.3125 11.316406 11.3125-11.316406 11.3125zm0 0" fill="#FFFFFF"/><path d="m336 104h16v16h-16zm0 0" fill="#FFFFFF"/><path d="m302.222656 38.460938 11.3125-11.3125 11.316406 11.3125-11.316406 11.316406zm0 0" fill="#FFFFFF"/><path d="m455.335938 368h-7.335938c-23.414062.03125-43.402344 16.917969-47.335938 40h7.335938c23.414062-.03125 43.402344-16.917969 47.335938-40zm0 0" fill="#FFFFFF"/><path d="m376 408h7.335938c-3.933594-23.082031-23.921876-39.96875-47.335938-40h-7.335938c3.933594 23.082031 23.921876 39.96875 47.335938 40zm0 0" fill="#FFFFFF"/><path d="m72 408h7.335938c-3.933594-23.082031-23.921876-39.96875-47.335938-40h-7.335938c3.933594 23.082031 23.921876 39.96875 47.335938 40zm0 0" fill="#FFFFFF"/><path d="m151.335938 368h-7.335938c-23.414062.03125-43.402344 16.917969-47.335938 40h7.335938c23.414062-.03125 43.402344-16.917969 47.335938-40zm0 0" fill="#FFFFFF"/><path d="m240 333.40625c8.875-7.414062 14.59375-17.929688 16-29.40625-1.4375-11.46875-7.152344-21.972656-16-29.40625-8.875 7.414062-14.59375 17.929688-16 29.40625 1.4375 11.46875 7.152344 21.972656 16 29.40625zm0 0" fill="#FFFFFF"/><path d="m184 320h-7.335938c3.933594 23.082031 23.921876 39.96875 47.335938 40h7.335938c-3.933594-23.082031-23.921876-39.96875-47.335938-40zm0 0" fill="#FFFFFF"/><path d="m303.335938 320h-7.335938c-23.414062.03125-43.402344 16.917969-47.335938 40h7.335938c23.414062-.03125 43.402344-16.917969 47.335938-40zm0 0" fill="#FFFFFF"/><path d="m201.367188 408c3.402343 9.582031 12.464843 15.988281 22.632812 16h6.632812c-3.402343-9.582031-12.464843-15.988281-22.632812-16zm0 0" fill="#FFFFFF"/><path d="m280 112c0 22.089844-17.910156 40-40 40s-40-17.910156-40-40 17.910156-40 40-40 40 17.910156 40 40zm0 0" fill="#FFFFFF"/></svg>
