<?xml version="1.0" encoding="iso-8859-1"?>
<!-- Generator: Adobe Illustrator 19.0.0, SVG Export Plug-In . SVG Version: 6.00 Build 0)  -->
<svg xmlns="http://www.w3.org/2000/svg" xmlns:xlink="http://www.w3.org/1999/xlink" version="1.1" id="Capa_1" x="0px" y="0px" viewBox="0 0 512.001 512.001" style="enable-background:new 0 0 512.001 512.001;" xml:space="preserve" width="512px" height="512px">
<g>
	<g>
		<path d="M230.597,446.36c-9.856-4.298-21.026-11.088-36.485-20.486c-9.363-5.691-19.976-12.143-32.782-19.557    c-55.774-32.292-128.747-23.348-155.421-11.383c-5.039,2.26-7.29,8.177-5.031,13.216c2.26,5.039,8.175,7.291,13.216,5.031    c17.211-7.72,84.4-20.135,137.216,10.443c12.621,7.307,23.137,13.699,32.414,19.339c16.131,9.805,27.785,16.89,38.88,21.728    c1.301,0.567,2.657,0.836,3.992,0.836c3.857,0,7.53-2.244,9.17-6.003C237.973,454.46,235.659,448.567,230.597,446.36z" fill="#FFFFFF"/>
	</g>
</g>
<g>
	<g>
		<path d="M255.976,451.965c-5.522,0-9.999,4.477-9.999,9.999s4.477,9.999,9.999,9.999h0.047c5.522,0,9.975-4.477,9.975-9.999    S261.499,451.965,255.976,451.965z" fill="#FFFFFF"/>
	</g>
</g>
<g>
	<g>
		<path d="M506.092,394.933c-26.674-11.965-99.647-20.908-155.421,11.383c-12.804,7.413-23.416,13.864-32.778,19.555    c-15.372,9.344-26.478,16.095-36.286,20.399c-5.057,2.219-7.358,8.116-5.139,13.174c1.645,3.751,5.313,5.984,9.162,5.984    c1.341,0,2.705-0.272,4.013-0.846c11.025-4.836,22.608-11.878,38.639-21.623c9.276-5.639,19.791-12.031,32.41-19.337    c52.814-30.578,120.006-18.163,137.216-10.443c5.042,2.261,10.957,0.008,13.216-5.03    C513.383,403.11,511.13,397.193,506.092,394.933z" fill="#FFFFFF"/>
	</g>
</g>
<g>
	<g>
		<path d="M376.808,239.758c-5.209-13.799-15.879-25.063-27.844-29.399c-17.194-6.231-34.375-0.965-43.77,13.417    c-6.289,9.627-6.183,18.529-6.097,25.682c0.075,6.214-0.014,9.928-2.69,13.988c-3.092,4.69-5.736,5.734-10.539,7.63    c-4.981,1.966-11.179,4.414-17.533,11.148c-6.077,6.441-9.205,16.312-8.369,26.406c0.954,11.516,6.72,21.834,16.236,29.054    c6.821,5.175,16.226,7.904,26.509,7.904c4.219-0.001,8.586-0.46,12.981-1.398c12.748-2.722,36.672-11.922,53.676-42.968    C384.362,273.847,381.69,252.687,376.808,239.758z M351.831,291.615c-13.174,24.053-30.911,31.01-40.311,33.017    c-11.196,2.391-19.509-0.058-23.228-2.88c-6.658-5.05-8.117-11.424-8.395-14.773c-0.443-5.338,1.331-9.279,2.985-11.031    c3.297-3.495,6.248-4.66,10.332-6.272c5.935-2.344,13.323-5.26,19.891-15.224c6.18-9.374,6.074-18.168,5.99-25.233    c-0.07-5.789-0.12-9.972,2.842-14.505c2.997-4.588,7.456-6.967,12.75-6.967c2.343,0,4.849,0.466,7.466,1.414    c4.96,1.798,12.113,7.501,15.948,17.661C361.501,255.826,363.173,270.906,351.831,291.615z" fill="#FFFFFF"/>
	</g>
</g>
<g>
	<g>
		<path d="M262.188,363.198c-5.191-10.26-12.955-14.62-19.192-18.121c-5.419-3.043-8.591-4.976-10.769-9.323    c-2.516-5.023-2.098-7.836-1.339-12.943c0.788-5.296,1.767-11.888-0.888-20.758c-2.539-8.483-9.523-16.128-18.683-20.451    c-10.448-4.931-22.268-5.096-33.279-0.467c-11.132,4.68-20.619,16.249-25.38,30.946c-4.018,12.4-8.012,37.72,10.373,67.969    c16.211,26.673,35.872,34.938,49.511,37.175c2.97,0.488,5.96,0.725,8.924,0.725c11.564,0,22.707-3.617,30.456-10.138    C265.915,396.038,269.944,378.526,262.188,363.198z M239.048,392.51c-4.037,3.396-12.552,6.738-23.27,4.98    c-9.498-1.559-23.395-7.651-35.658-27.828c-14.243-23.435-11.4-42.275-8.437-51.419c3.528-10.888,9.805-16.864,14.109-18.675    c3.1-1.303,5.963-1.771,8.478-1.771c3.735,0,6.697,1.032,8.512,1.889c4.845,2.286,7.369,5.791,8.06,8.1    c1.378,4.603,0.912,7.74,0.266,12.084c-0.938,6.312-2.105,14.169,3.24,24.839c5.029,10.039,12.697,14.345,18.858,17.804    c5.048,2.835,8.696,4.881,11.141,9.713C247.915,379.28,245.984,386.674,239.048,392.51z" fill="#FFFFFF"/>
	</g>
</g>
<g>
	<g>
		<path d="M511.925,174.178c-0.544-10.381-5.488-20.087-13.547-26.613L402.18,69.251c-23.258-18.838-52.55-29.213-82.481-29.213    H165.771c-28.008,0-55.475,7.669-79.432,22.179L44.786,87.384h-34.76c-5.522,0-9.999,4.477-9.999,9.999V248.11    c0,5.522,4.477,9.999,9.999,9.999H124.35c26.687,0,51.779-10.391,70.652-29.261l45.837-45.829    c4.118-4.118,9.592-6.385,15.415-6.385h85.241c8.334,0,16.169-3.246,22.061-9.138c5.253-5.253,8.532-11.703,9.673-18.535    l75.042,58.464c0.154,0.119,0.31,0.234,0.469,0.344c16.044,11.065,37.692,9.092,51.476-4.691l0.998-0.999    C508.565,194.728,512.468,184.559,511.925,174.178z M487.069,187.938l-0.998,0.999c-6.894,6.895-17.689,7.935-25.765,2.514    l-98.317-76.596c-2.012-1.567-4.432-2.241-6.794-2.09c-4.755-2.453-10.153-3.785-15.878-3.785H217.967    c-11.321,0-22.322,3.264-31.812,9.436l-34.003,22.116l-0.124,0.08c-4.64,2.995-5.972,9.184-2.977,13.824    c2.995,4.641,9.184,5.972,13.824,2.977l34.184-22.232c6.237-4.057,13.468-6.201,20.909-6.201h121.349    c5.974,0,10.906,3.295,13.193,8.815c2.287,5.519,1.129,11.337-3.096,15.561c-2.115,2.116-4.927,3.281-7.919,3.281h-85.241    c-11.165,0-21.662,4.348-29.555,12.242l-45.836,45.828c-15.096,15.092-35.165,23.405-56.512,23.405H20.024V107.378h27.552    c1.827,0,3.618-0.5,5.18-1.446l43.942-26.613c20.832-12.618,44.717-19.286,69.072-19.286h153.926    c25.362,0,50.185,8.792,69.874,24.739l96.198,78.315c3.736,3.026,5.931,7.335,6.182,12.135S490.469,184.537,487.069,187.938z" fill="#FFFFFF"/>
	</g>
</g>
<g>
</g>
<g>
</g>
<g>
</g>
<g>
</g>
<g>
</g>
<g>
</g>
<g>
</g>
<g>
</g>
<g>
</g>
<g>
</g>
<g>
</g>
<g>
</g>
<g>
</g>
<g>
</g>
<g>
</g>
</svg>
