<?xml version="1.0" encoding="iso-8859-1"?>
<!-- Generator: Adobe Illustrator 19.0.0, SVG Export Plug-In . SVG Version: 6.00 Build 0)  -->
<svg xmlns="http://www.w3.org/2000/svg" xmlns:xlink="http://www.w3.org/1999/xlink" version="1.1" id="Capa_1" x="0px" y="0px" viewBox="0 0 512 512" style="enable-background:new 0 0 512 512;" xml:space="preserve" width="512px" height="512px">
<g>
	<g>
		<path d="M426.836,0H85.165C60.276,0,40.028,20.249,40.028,45.137v341.671c0,24.888,20.248,45.137,45.137,45.137h64.44    c4.199,0,7.604-3.405,7.604-7.604s-3.405-7.604-7.604-7.604h-64.44c-16.503,0-29.929-13.427-29.929-29.929V45.137    c0.001-16.503,13.427-29.929,29.929-29.929h341.671c16.503,0,29.929,13.427,29.929,29.929v68.181c0,4.199,3.405,7.604,7.604,7.604    s7.604-3.405,7.604-7.604V45.137C471.972,20.249,451.725,0,426.836,0z" fill="#FFFFFF"/>
	</g>
</g>
<g>
	<g>
		<path d="M464.368,131.062c-4.199,0-7.604,3.405-7.604,7.604v248.142c0,16.503-13.426,29.929-29.929,29.929h-64.44    c-4.199,0-7.604,3.405-7.604,7.604s3.405,7.604,7.604,7.604h64.44c24.888,0,45.137-20.249,45.137-45.137V138.666    C471.972,134.466,468.568,131.062,464.368,131.062z" fill="#FFFFFF"/>
	</g>
</g>
<g>
	<g>
		<path d="M337.053,348.518c-4.199,0-7.604,3.405-7.604,7.604v128.536c0,6.69-5.443,12.134-12.134,12.134h-66.468v-140.67    c0-4.199-3.405-7.604-7.604-7.604s-7.604,3.405-7.604,7.604v140.67h-15.206v-140.67c0-4.199-3.405-7.604-7.604-7.604    s-7.604,3.405-7.604,7.604v140.67h-10.537c-6.69,0-12.134-5.443-12.134-12.134V356.122c0-4.199-3.405-7.604-7.604-7.604    s-7.604,3.405-7.604,7.604v128.536c0,15.076,12.266,27.342,27.342,27.342h18.141h30.415h74.072    c15.076,0,27.342-12.266,27.342-27.342V356.122C344.657,351.923,341.252,348.518,337.053,348.518z" fill="#FFFFFF"/>
	</g>
</g>
<g>
	<g>
		<path d="M166.07,274.331h-15.752c-16.959,0-30.755,13.797-30.755,30.755v51.379c0,16.958,13.797,30.754,30.755,30.754    c4.199,0,7.604-3.405,7.604-7.604s-3.405-7.604-7.604-7.604c-8.573,0-15.548-6.974-15.548-15.547v-51.379    c0-8.573,6.974-15.548,15.548-15.548h15.752c4.199,0,7.604-3.405,7.604-7.604S170.269,274.331,166.07,274.331z" fill="#FFFFFF"/>
	</g>
</g>
<g>
	<g>
		<path d="M361.684,274.331H191.418c-4.199,0-7.604,3.405-7.604,7.604s3.405,7.604,7.604,7.604h170.266    c8.573,0,15.547,6.974,15.547,15.548v51.379c0,8.573-6.974,15.547-15.547,15.547c-4.199,0-7.604,3.405-7.604,7.604    s3.405,7.604,7.604,7.604c16.959,0,30.755-13.797,30.755-30.754v-51.379C392.439,288.128,378.643,274.331,361.684,274.331z" fill="#FFFFFF"/>
	</g>
</g>
<g>
	<g>
		<path d="M354.038,323.171H157.966c-4.199,0-7.604,3.405-7.604,7.604s3.405,7.604,7.604,7.604h196.072    c4.199,0,7.604-3.405,7.604-7.604S358.238,323.171,354.038,323.171z" fill="#FFFFFF"/>
	</g>
</g>
<g>
	<g>
		<path d="M399.218,79.673c-3.386-0.841-6.917,0.731-8.554,3.817l-30.999,58.455l-31.007-58.456    c-1.636-3.084-5.164-4.658-8.554-3.816c-3.388,0.844-5.768,3.886-5.768,7.379v100.362c0,4.199,3.405,7.604,7.604,7.604    s7.604-3.405,7.604-7.604v-69.799l23.404,44.123c1.319,2.486,3.903,4.04,6.718,4.04c2.815,0,5.399-1.555,6.717-4.041    l23.394-44.115v69.792c0.001,4.199,3.406,7.604,7.605,7.604s7.604-3.405,7.604-7.604V87.052    C404.986,83.559,402.606,80.516,399.218,79.673z" fill="#FFFFFF"/>
	</g>
</g>
<g>
	<g>
		<path d="M197.769,184.722L159.751,84.355c-1.119-2.955-3.95-4.91-7.111-4.91c-3.161,0-5.992,1.955-7.111,4.91l-38.018,100.367    c-1.487,3.928,0.49,8.317,4.417,9.804c3.929,1.488,8.317-0.491,9.804-4.417l12.261-32.366h37.294l12.261,32.366    c1.152,3.041,4.042,4.912,7.112,4.912c0.895,0,1.806-0.159,2.692-0.495C197.279,193.039,199.256,188.649,197.769,184.722z     M139.753,142.534l12.886-34.02l12.886,34.02H139.753z" fill="#FFFFFF"/>
	</g>
</g>
<g>
	<g>
		<path d="M281.902,79.444h-69.953c-4.199,0-7.604,3.405-7.604,7.604c0,4.199,3.405,7.604,7.604,7.604h27.373v92.763    c0,4.2,3.405,7.605,7.604,7.605s7.604-3.405,7.604-7.604V94.652h27.372c4.199,0,7.604-3.405,7.604-7.604    C289.506,82.849,286.102,79.444,281.902,79.444z" fill="#FFFFFF"/>
	</g>
</g>
<g>
</g>
<g>
</g>
<g>
</g>
<g>
</g>
<g>
</g>
<g>
</g>
<g>
</g>
<g>
</g>
<g>
</g>
<g>
</g>
<g>
</g>
<g>
</g>
<g>
</g>
<g>
</g>
<g>
</g>
</svg>
