<?xml version="1.0"?>
<svg xmlns="http://www.w3.org/2000/svg" id="Layer_3" enable-background="new 0 0 64 64" height="512px" viewBox="0 0 64 64" width="512px"><g><path d="m44 7h-27v-5c0-.347-.18-.668-.474-.851-.295-.183-.663-.198-.973-.044l-3.553 1.777-3.553-1.777c-.31-.154-.678-.139-.973.044-.294.183-.474.504-.474.851v5h-3c-.552 0-1 .447-1 1v6.184c-1.161.414-2 1.514-2 2.816s.839 2.402 2 2.816v4.369c-1.161.413-2 1.513-2 2.815s.839 2.402 2 2.816v4.369c-1.161.413-2 1.513-2 2.815s.839 2.402 2 2.816v4.369c-1.161.413-2 1.513-2 2.815s.839 2.402 2 2.816v12.184c0 .553.448 1 1 1h40c2.757 0 5-2.243 5-5v-46c0-2.757-2.243-5-5-5zm-5 2v52h-4v-52zm-30-5.382 2.553 1.276c.281.141.613.141.895 0l2.552-1.276v3.382h-6zm-5 12.382h4c.551 0 1 .448 1 1s-.449 1-1 1h-4c-.551 0-1-.448-1-1s.449-1 1-1zm0 10h4c.551 0 1 .448 1 1s-.449 1-1 1h-4c-.551 0-1-.448-1-1s.449-1 1-1zm0 10h4c.551 0 1 .448 1 1s-.449 1-1 1h-4c-.551 0-1-.448-1-1s.449-1 1-1zm0 10h4c.551 0 1 .448 1 1s-.449 1-1 1h-4c-.551 0-1-.448-1-1s.449-1 1-1zm1 4h3c1.654 0 3-1.346 3-3s-1.346-3-3-3h-3v-4h3c1.654 0 3-1.346 3-3s-1.346-3-3-3h-3v-4h3c1.654 0 3-1.346 3-3s-1.346-3-3-3h-3v-4h3c1.654 0 3-1.346 3-3s-1.346-3-3-3h-3v-5h28v52h-28zm42 8c0 1.654-1.346 3-3 3h-3v-52h3c1.654 0 3 1.346 3 3z" fill="#FFFFFF"/><path d="m63 6c0-2.757-2.243-5-5-5s-5 2.243-5 5v46c0 .131.029.255.075.37l-.003.001 4 10c.152.38.519.629.928.629s.776-.249.929-.629l4-10-.003-.001c.045-.115.074-.239.074-.37zm-7.523 47h5.046l-.8 2h-3.446zm-.477-44h2v42h-2zm4 42v-42h2v42zm-1-48c1.654 0 3 1.346 3 3v1h-6v-1c0-1.654 1.346-3 3-3zm0 56.308-.923-2.308h1.846z" fill="#FFFFFF"/><path d="m27 13h-12c-.552 0-1 .447-1 1v6c0 .553.448 1 1 1h12c.552 0 1-.447 1-1v-6c0-.553-.448-1-1-1zm-1 6h-10v-4h10z" fill="#FFFFFF"/></g></svg>
