<?xml version="1.0"?>
<svg xmlns="http://www.w3.org/2000/svg" id="icons" enable-background="new 0 0 64 64" height="512px" viewBox="0 0 64 64" width="512px"><g><g><g><path d="m41.002 53.498h-38.002c-.553 0-1-.447-1-1v-11c0-.553.447-1 1-1h38.002c.553 0 1 .447 1 1v11c0 .553-.447 1-1 1zm-37.002-2h36.002v-9h-36.002z" fill="#FFFFFF"/></g><g><path d="m40 58.502h-9c-.553 0-1-.447-1-1v-5.004c0-.553.447-1 1-1h9c.553 0 1 .447 1 1v5.004c0 .553-.447 1-1 1zm-8-2h7v-3.004h-7z" fill="#FFFFFF"/></g><g><path d="m13.002 58.502h-9c-.553 0-1-.447-1-1v-5.004c0-.553.447-1 1-1h9c.553 0 1 .447 1 1v5.004c0 .553-.447 1-1 1zm-8-2h7v-3.004h-7z" fill="#FFFFFF"/></g><g><path d="m2.999 42.498c-.219 0-.439-.071-.624-.219-.431-.346-.501-.975-.156-1.406l3.996-4.996c.346-.428.975-.501 1.406-.156.431.346.501.975.156 1.406l-3.996 4.996c-.198.246-.488.375-.782.375z" fill="#FFFFFF"/></g><g><path d="m41.003 42.498c-.294 0-.584-.129-.782-.375l-3.998-4.998c-.345-.432-.274-1.061.156-1.406.433-.346 1.061-.273 1.406.156l3.998 4.998c.345.432.274 1.061-.156 1.406-.185.148-.405.219-.624.219z" fill="#FFFFFF"/></g><g><path d="m37.004 30.5c-.553 0-1-.447-1-1 0-1.103-.897-2-2-2-.553 0-1-.447-1-1s.447-1 1-1c2.206 0 4 1.794 4 4 0 .553-.447 1-1 1z" fill="#FFFFFF"/></g><g><path d="m6.996 30.5c-.553 0-1-.447-1-1 0-2.206 1.794-4 4-4 .553 0 1 .447 1 1s-.447 1-1 1c-1.103 0-2 .897-2 2 0 .553-.447 1-1 1z" fill="#FFFFFF"/></g><g><path d="m37.004 37.5c-.553 0-1-.447-1-1v-7c0-.553.447-1 1-1s1 .447 1 1v7c0 .553-.447 1-1 1z" fill="#FFFFFF"/></g><g><path d="m34.004 27.5h-24.008c-.553 0-1-.447-1-1s.447-1 1-1h24.008c.553 0 1 .447 1 1s-.447 1-1 1z" fill="#FFFFFF"/></g><g><path d="m6.996 37.502c-.553 0-1-.447-1-1v-7.002c0-.553.447-1 1-1s1 .447 1 1v7.002c0 .553-.447 1-1 1z" fill="#FFFFFF"/></g><g><path d="m37.004 37.5h-30.008c-.553 0-1-.447-1-1s.447-1 1-1h30.008c.553 0 1 .447 1 1s-.447 1-1 1z" fill="#FFFFFF"/></g><g><g><path d="m9 48.5c-2.206 0-4-1.794-4-4 0-.553.447-1 1-1s1 .447 1 1c0 1.103.897 2 2 2 .553 0 1 .447 1 1s-.447 1-1 1z" fill="#FFFFFF"/></g><g><path d="m10.5 48.5c-.553 0-1-.447-1-1s.447-1 1-1c.275 0 .5-.225.5-.5s-.225-.5-.5-.5c-.553 0-1-.447-1-1s.447-1 1-1c1.379 0 2.5 1.121 2.5 2.5s-1.121 2.5-2.5 2.5z" fill="#FFFFFF"/></g><g><path d="m10.5 48.5h-1.5c-.553 0-1-.447-1-1s.447-1 1-1h1.5c.553 0 1 .447 1 1s-.447 1-1 1z" fill="#FFFFFF"/></g><g><path d="m10.5 45.5h-4.5c-.553 0-1-.447-1-1s.447-1 1-1h4.5c.553 0 1 .447 1 1s-.447 1-1 1z" fill="#FFFFFF"/></g></g><g><g><path d="m35.002 48.5c-.553 0-1-.447-1-1s.447-1 1-1c1.103 0 2-.897 2-2 0-.553.447-1 1-1s1 .447 1 1c0 2.206-1.794 4-4 4z" fill="#FFFFFF"/></g><g><path d="m33.502 48.5c-1.379 0-2.5-1.121-2.5-2.5s1.121-2.5 2.5-2.5c.553 0 1 .447 1 1s-.447 1-1 1c-.275 0-.5.225-.5.5s.225.5.5.5c.553 0 1 .447 1 1s-.447 1-1 1z" fill="#FFFFFF"/></g><g><path d="m35.002 48.5h-1.5c-.553 0-1-.447-1-1s.447-1 1-1h1.5c.553 0 1 .447 1 1s-.447 1-1 1z" fill="#FFFFFF"/></g><g><path d="m38.002 45.5h-4.5c-.553 0-1-.447-1-1s.447-1 1-1h4.5c.553 0 1 .447 1 1s-.447 1-1 1z" fill="#FFFFFF"/></g></g><g><path d="m28 50.5h-12c-.553 0-1-.447-1-1v-3.998c0-.553.447-1 1-1h12c.553 0 1 .447 1 1v3.998c0 .553-.447 1-1 1zm-11-2h10v-1.998h-10z" fill="#FFFFFF"/></g><g><path d="m25 50.5c-.553 0-1-.447-1-1v-3.998c0-.553.447-1 1-1s1 .447 1 1v3.998c0 .553-.447 1-1 1z" fill="#FFFFFF"/></g><g><path d="m22 50.5c-.553 0-1-.447-1-1v-3.998c0-.553.447-1 1-1s1 .447 1 1v3.998c0 .553-.447 1-1 1z" fill="#FFFFFF"/></g><g><path d="m19 50.5c-.553 0-1-.447-1-1v-3.998c0-.553.447-1 1-1s1 .447 1 1v3.998c0 .553-.447 1-1 1z" fill="#FFFFFF"/></g><g><path d="m28 27.502h-12c-.553 0-1-.447-1-1v-4c0-.553.447-1 1-1h12c.553 0 1 .447 1 1v4c0 .553-.447 1-1 1zm-11-2h10v-2h-10z" fill="#FFFFFF"/></g></g><g><path d="m62.998 58.502h-62c-.553 0-1-.447-1-1s.447-1 1-1h62c.553 0 1 .447 1 1s-.447 1-1 1z" fill="#FFFFFF"/></g><g><path d="m57.002 58.502h-11.004c-.553 0-1-.447-1-1v-3.004c0-.553.447-1 1-1h11.004c.553 0 1 .447 1 1v3.004c0 .553-.447 1-1 1zm-10.004-2h9.004v-1.004h-9.004z" fill="#FFFFFF"/></g><g><path d="m53 55.498h-3c-.553 0-1-.447-1-1v-25.098c0-.553.447-1 1-1s1 .447 1 1v24.098h1v-24.098c0-.553.447-1 1-1s1 .447 1 1v25.098c0 .553-.447 1-1 1z" fill="#FFFFFF"/></g><g><path d="m51.502 30.498c-6.893 0-12.5-5.607-12.5-12.5s5.607-12.5 12.5-12.5 12.5 5.607 12.5 12.5-5.607 12.5-12.5 12.5zm0-23c-5.79 0-10.5 4.71-10.5 10.5s4.71 10.5 10.5 10.5 10.5-4.71 10.5-10.5-4.71-10.5-10.5-10.5z" fill="#FFFFFF"/></g><g><g><path d="m49.5 22.496h-4c-.553 0-1-.447-1-1v-4c0-.553.447-1 1-1h4c.553 0 1 .447 1 1v4c0 .553-.447 1-1 1zm-3-2h2v-2h-2z" fill="#FFFFFF"/></g><g><path d="m53.5 18.496h-4c-.553 0-1-.447-1-1v-4c0-.553.447-1 1-1h4c.553 0 1 .447 1 1v4c0 .553-.447 1-1 1zm-3-2h2v-2h-2z" fill="#FFFFFF"/></g><g><path d="m57.5 22.496h-4c-.553 0-1-.447-1-1v-4c0-.553.447-1 1-1h4c.553 0 1 .447 1 1v4c0 .553-.447 1-1 1zm-3-2h2v-2h-2z" fill="#FFFFFF"/></g></g></g></svg>
