<?xml version="1.0"?>
<svg xmlns="http://www.w3.org/2000/svg" id="Layer_3" enable-background="new 0 0 64 64" height="512px" viewBox="0 0 64 64" width="512px"><path d="m1 61v2h62v-2h-16-30z" fill="#FFFFFF"/><path d="m47 49c-2.206 0-4 1.794-4 4s1.794 4 4 4 4-1.794 4-4-1.794-4-4-4zm0 6c-1.103 0-2-.897-2-2s.897-2 2-2 2 .897 2 2-.897 2-2 2z" fill="#FFFFFF"/><path d="m17 49c-2.206 0-4 1.794-4 4s1.794 4 4 4 4-1.794 4-4-1.794-4-4-4zm0 6c-1.103 0-2-.897-2-2s.897-2 2-2 2 .897 2 2-.897 2-2 2z" fill="#FFFFFF"/><path d="m58.396 27.543c-1.018-2.718-3.652-4.543-6.554-4.543h-43.842c-3.86 0-7 3.141-7 7v23c0 .553.448 1 1 1h7.069c.495 3.94 3.859 7 7.931 7s7.436-3.06 7.931-7h14.139c.495 3.94 3.859 7 7.931 7s7.436-3.06 7.931-7h7.068c.552 0 1-.447 1-1v-13c0-.12-.021-.239-.063-.352zm-55.396 15.457h2v2.586l-2 2zm14 16c-3.309 0-6-2.691-6-6s2.691-6 6-6 6 2.691 6 6-2.691 6-6 6zm30 0c-3.309 0-6-2.691-6-6s2.691-6 6-6 6 2.691 6 6-2.691 6-6 6zm7.931-7c-.495-3.94-3.859-7-7.931-7s-7.436 3.06-7.931 7h-14.138c-.495-3.94-3.859-7-7.931-7s-7.436 3.06-7.931 7h-6.069v-2c.265 0 .52-.105.707-.293l3-3c.188-.187.293-.441.293-.707v-4c0-.553-.448-1-1-1h-3v-11c0-2.757 2.243-5 5-5h43.842c2.073 0 3.954 1.304 4.682 3.245l4.476 11.937v1.818h-3c-.552 0-1 .447-1 1v4c0 .553.448 1 1 1h3v4zm6.069-8v2h-2v-2z" fill="#FFFFFF"/><path d="m54.386 29.139c-.384-1.28-1.539-2.139-2.874-2.139h-43.512c-1.654 0-3 1.346-3 3v8c0 .553.448 1 1 1h50c.316 0 .614-.149.802-.403.189-.253.247-.581.156-.884zm-31.386-.139h8v8h-8zm-2 8h-8v-8h8zm12-8h9v8h-9zm-26 1c0-.552.449-1 1-1h3v8h-4zm37 7v-8h7.512c.445 0 .83.286.958.713l2.186 7.287z" fill="#FFFFFF"/><path d="m41 41h4v2h-4z" fill="#FFFFFF"/><path d="m29 41h4v2h-4z" fill="#FFFFFF"/><path d="m40 15c2.206 0 4 1.794 4 4 0 .553.448 1 1 1s1-.447 1-1c0-2.206 1.794-4 4-4 .552 0 1-.447 1-1s-.448-1-1-1c-2.206 0-4-1.794-4-4 0-.553-.448-1-1-1s-1 .447-1 1c0 2.206-1.794 4-4 4-.552 0-1 .447-1 1s.448 1 1 1zm5-2.687c.444.668 1.019 1.242 1.687 1.687-.668.444-1.242 1.019-1.687 1.687-.444-.668-1.019-1.242-1.687-1.687.668-.444 1.243-1.019 1.687-1.687z" fill="#FFFFFF"/><path d="m52 8c2.206 0 4 1.794 4 4 0 .553.448 1 1 1s1-.447 1-1c0-2.206 1.794-4 4-4 .552 0 1-.447 1-1s-.448-1-1-1c-2.206 0-4-1.794-4-4 0-.553-.448-1-1-1s-1 .447-1 1c0 2.206-1.794 4-4 4-.552 0-1 .447-1 1s.448 1 1 1zm5-2.687c.444.668 1.019 1.243 1.687 1.687-.668.444-1.243 1.019-1.687 1.687-.444-.668-1.019-1.243-1.687-1.687.668-.444 1.243-1.019 1.687-1.687z" fill="#FFFFFF"/><path d="m2 15c2.206 0 4 1.794 4 4 0 .553.448 1 1 1s1-.447 1-1c0-2.206 1.794-4 4-4 .552 0 1-.447 1-1s-.448-1-1-1c-2.206 0-4-1.794-4-4 0-.553-.448-1-1-1s-1 .447-1 1c0 2.206-1.794 4-4 4-.552 0-1 .447-1 1s.448 1 1 1zm5-2.687c.444.668 1.019 1.243 1.687 1.687-.668.444-1.243 1.019-1.687 1.687-.444-.668-1.019-1.243-1.687-1.687.668-.444 1.243-1.019 1.687-1.687z" fill="#FFFFFF"/><path d="m14 8c2.206 0 4 1.794 4 4 0 .553.448 1 1 1s1-.447 1-1c0-2.206 1.794-4 4-4 .552 0 1-.447 1-1s-.448-1-1-1c-2.206 0-4-1.794-4-4 0-.553-.448-1-1-1s-1 .447-1 1c0 2.206-1.794 4-4 4-.552 0-1 .447-1 1s.448 1 1 1zm5-2.687c.444.668 1.019 1.243 1.687 1.687-.668.444-1.243 1.019-1.687 1.687-.444-.668-1.019-1.243-1.687-1.687.668-.444 1.243-1.019 1.687-1.687z" fill="#FFFFFF"/></svg>
