<?xml version="1.0"?>
<svg xmlns="http://www.w3.org/2000/svg" viewBox="0 0 512 512" width="512px" height="512px"><g id="Outline"><path d="M408.073,202.875A56.07,56.07,0,0,0,464,256a8,8,0,0,0,8-8V112a56.056,56.056,0,0,0-54.237-55.955A88.322,88.322,0,0,0,344,16H328a88.1,88.1,0,0,0-88,88v20.305A31.989,31.989,0,0,0,256,184h1.6A79.368,79.368,0,0,0,296,237.258v35.414l-.116.012-24.76,2.294-.87.041A7.98,7.98,0,0,0,264,272H216a8,8,0,0,0-8,8v13.7q-1.123,1.11-2.177,2.3H192v-8a8,8,0,0,0-8-8H128a8,8,0,0,0-7.761,6.06L117.754,296H104V280a8,8,0,0,0-8-8H48a8,8,0,0,0-8,8v80a8,8,0,0,0,8,8H96a8,8,0,0,0,8-8V344h16.984L128,361.541V460a36,36,0,0,0,70.138,11.4l35.736-51.958a68.561,68.561,0,0,0,13.448,31.39L248,496.12l16-.24L263.4,456H408v40h16V450.8a70.138,70.138,0,0,0,1.2-83.945c-.509-.754-1.049-1.5-1.647-2.262l-.779-4.786-10.72-64.388,17.167,2.869A32.043,32.043,0,0,1,456,329.92V496h16V329.92a48.011,48.011,0,0,0-40.121-47.411l-28.263-4.723-26.232-4.306-1.191-.223c-.061-.011-.131-.047-.193-.057V237.257A79.566,79.566,0,0,0,408.073,202.875ZM88,352H56V288H88v64Zm16-24V312h9.754l-1.515,6.06a8,8,0,0,0,.333,4.911L114.584,328Zm264-40.911V328a32,32,0,0,1-64,0V286.526a16.014,16.014,0,0,0,8-13.806V244.3a79.7,79.7,0,0,0,48,0v28.9A15.962,15.962,0,0,0,368,287.089ZM416,168V136a16,16,0,0,1,0,32Zm40-56V239.2A40.071,40.071,0,0,1,424,200V182.987a31.989,31.989,0,0,0,8-58.682V104a87.8,87.8,0,0,0-5.52-30.6A40.065,40.065,0,0,1,456,112Zm-200-8a72.081,72.081,0,0,1,72-72h16a72.272,72.272,0,0,1,62,35.405c.1.232.223.458.35.68A71.835,71.835,0,0,1,416,104v16h-3.056L383.155,60.422a8,8,0,0,0-12.15-2.671c-.627.5-63.243,50.244-108.787,60.45q-3.225.737-6.218,1.174Zm-16,48a16.019,16.019,0,0,1,16-16v32A16.019,16.019,0,0,1,240,152Zm32,16V132.206c38.368-10.825,83.318-42.552,101.184-55.949L400,129.888V168a64,64,0,0,1-128,0ZM224,288h32v64H224V288Zm-16,24v16H192V312ZM184,460a20,20,0,0,1-40,0V360a8,8,0,0,0-.572-2.971l-15.039-37.6L134.246,296H176v64a7.828,7.828,0,0,0,.04.8L184,440.4Zm16-19.537V440a7.828,7.828,0,0,0-.04-.8L192,359.6v-2.9l6.079-12.7H208v16a8,8,0,0,0,8,8h29.953a71.838,71.838,0,0,0-9.7,19.8l-5.965,8.625Zm222.42-36.207A53.686,53.686,0,0,1,412.113,440H259.168a53.233,53.233,0,0,1-9.236-41.022l.118-.565c.241-1.154.49-2.346.762-3.406.1-.328.187-.656.269-.985l.028-.13c.037-.111.071-.222.1-.334a55.988,55.988,0,0,1,10.916-20.416,7.988,7.988,0,0,0,1.771-3.878l.2-1.269a8,8,0,0,0,7.9-8V320.1l4.876-29.579L288,289.5V328a48,48,0,0,0,96,0V290.78l11.37,1.866,11.614,69.76,1.12,6.88a8,8,0,0,0,1.822,3.92,27.824,27.824,0,0,1,2.059,2.673c.064.1.129.19.2.283A53.816,53.816,0,0,1,422.42,404.256Z" fill="#FFFFFF"/><path d="M312,140a12,12,0,1,0-12,12A12.013,12.013,0,0,0,312,140Z" fill="#FFFFFF"/><path d="M372,152a12,12,0,1,0-12-12A12.013,12.013,0,0,0,372,152Z" fill="#FFFFFF"/><path d="M312,192h14.891c13.9,0,27.092-3.228,37.14-9.09l-8.062-13.82c-7.528,4.391-18.127,6.91-29.078,6.91H312Z" fill="#FFFFFF"/></g></svg>
