<?xml version="1.0"?>
<svg xmlns="http://www.w3.org/2000/svg" height="512px" viewBox="-1 0 511 512" width="512px"><path d="m193.863281 252.078125v-12.484375c0-4.140625-3.359375-7.5-7.5-7.5s-7.5 3.359375-7.5 7.5v12.484375c0 4.140625 3.359375 7.5 7.5 7.5s7.5-3.359375 7.5-7.5zm0 0" fill="#FFFFFF"/><path d="m331.816406 252.078125v-12.484375c0-4.140625-3.359375-7.5-7.5-7.5-4.144531 0-7.5 3.359375-7.5 7.5v12.484375c0 4.140625 3.355469 7.5 7.5 7.5 4.140625 0 7.5-3.359375 7.5-7.5zm0 0" fill="#FFFFFF"/><path d="m255.339844 266.242188c8.800781 0 17.0625-3.679688 22.671875-10.097657 2.722656-3.117187 2.40625-7.855469-.710938-10.582031-3.121093-2.726562-7.859375-2.410156-10.585937.710938-2.757813 3.15625-6.90625 4.96875-11.375 4.96875-4.472656 0-8.617188-1.8125-11.378906-4.96875-2.726563-3.121094-7.464844-3.4375-10.582032-.710938-3.117187 2.726562-3.4375 7.464844-.710937 10.582031 5.609375 6.417969 13.871093 10.097657 22.671875 10.097657zm0 0" fill="#FFFFFF"/><path d="m192.695312 102.425781c13.484376 0 24.035157-6.253906 24.035157-23.058593v-10.257813c0-2.539063-1.664063-4.785156-4.59375-4.785156h-16.414063c-2.929687 0-4.589844 3.027343-4.589844 5.859375 0 3.027344 1.660157 5.863281 4.589844 5.863281h5.765625v3.320313c0 6.644531-3.324219 9.769531-8.792969 9.769531s-8.695312-3.125-8.695312-9.769531v-25.886719c0-6.644531 3.226562-9.769531 8.792969-9.769531 8.304687 0 8.597656 5.273437 8.695312 8.792968.097657 3.515625 3.515625 4.589844 7.621094 4.589844 5.175781 0 7.617187-1.367188 7.617187-7.230469 0-12.40625-10.550781-19.4375-24.519531-19.4375-12.796875 0-23.445312 6.25-23.445312 23.054688v25.886719c0 16.804687 10.453125 23.058593 23.933593 23.058593zm0 0" fill="#FFFFFF"/><path d="m240.175781 71.261719c.191407.292969.390625.78125.390625 1.367187v24.519532c0 3.128906 3.808594 4.691406 7.617188 4.691406 3.8125 0 7.621094-1.5625 7.621094-4.691406v-24.519532c0-.589844.195312-1.078125.390624-1.371094l20.125-33.507812c.195313-.390625.195313-.78125.195313-1.074219 0-3.617187-6.152344-6.253906-10.355469-6.253906-2.441406 0-3.417968.976563-4.394531 2.835937l-13.582031 25.105469-13.675782-25.105469c-1.074218-1.859374-1.953124-2.835937-4.394531-2.835937-4.203125 0-10.355469 2.636719-10.355469 6.253906 0 .292969 0 .683594.195313 1.074219zm0 0" fill="#FFFFFF"/><path d="m289.898438 101.839844c3.808593 0 7.621093-1.566406 7.621093-4.691406v-37.613282l9.28125 17c1.171875 2.246094 3.027344 2.832032 4.785157 2.832032 1.855468 0 3.808593-.683594 5.078124-2.832032l9.378907-16.019531v36.632813c0 3.128906 3.8125 4.691406 7.621093 4.691406 3.8125 0 7.621094-1.5625 7.621094-4.691406v-59.105469c0-5.566407-3.710937-7.617188-7.621094-7.617188-5.472656 0-7.8125.582031-11.820312 7.617188l-10.0625 17.585937-10.0625-17.585937c-4.003906-7.03125-6.351562-7.617188-11.820312-7.617188-3.808594 0-7.621094 2.050781-7.621094 7.617188v59.105469c0 3.125 3.8125 4.691406 7.621094 4.691406zm0 0" fill="#FFFFFF"/><path d="m210.300781 395.972656c-12.230469 0-22.183593 9.953125-22.183593 22.183594s9.953124 22.179688 22.183593 22.179688 22.179688-9.949219 22.179688-22.179688-9.949219-22.183594-22.179688-22.183594zm0 29.363282c-3.960937 0-7.183593-3.222657-7.183593-7.179688 0-3.960938 3.222656-7.183594 7.183593-7.183594 3.960938 0 7.179688 3.222656 7.179688 7.183594 0 3.957031-3.21875 7.179688-7.179688 7.179688zm0 0" fill="#FFFFFF"/><path d="m300.378906 440.335938c12.230469 0 22.179688-9.949219 22.179688-22.179688s-9.949219-22.183594-22.179688-22.183594c-12.230468 0-22.183594 9.953125-22.183594 22.183594s9.953126 22.179688 22.183594 22.179688zm0-29.363282c3.960938 0 7.179688 3.222656 7.179688 7.183594 0 3.957031-3.21875 7.179688-7.179688 7.179688-3.960937 0-7.183594-3.21875-7.183594-7.179688s3.222657-7.183594 7.183594-7.183594zm0 0" fill="#FFFFFF"/><path d="m458.53125 504.5v-49.140625c0-4.140625-3.359375-7.5-7.5-7.5-4.144531 0-7.5 3.359375-7.5 7.5v41.640625h-59.261719v-148.96875c0-18.84375-15.328125-34.171875-34.171875-34.171875h-189.515625c-18.84375 0-34.171875 15.328125-34.171875 34.171875v148.96875h-59.261718v-211.640625c0-4.140625-3.359376-7.5-7.5-7.5-4.140626 0-7.5 3.359375-7.5 7.5v219.140625c0 4.140625 3.359374 7.5 7.5 7.5h391.382812c4.140625 0 7.5-3.359375 7.5-7.5zm-89.261719-156.46875v148.96875h-106.429687v-168.140625h87.257812c10.570313 0 19.171875 8.601563 19.171875 19.171875zm-227.859375 0c0-10.570312 8.601563-19.171875 19.171875-19.171875h87.257813v168.140625h-106.429688zm0 0" fill="#FFFFFF"/><path d="m458.53125 204.683594c7.785156-3.019532 13.328125-10.570313 13.328125-19.40625v-7.449219h17.21875c11.636719 0 21.101563-9.464844 21.101563-21.097656v-21.097657c0-11.632812-9.464844-21.097656-21.101563-21.097656h-17.21875v-7.445312c0-11.484375-9.34375-20.828125-20.828125-20.828125h-17.140625c-2.027344 0-3.980469.304687-5.832031.84375-.039063-11.449219-9.363282-20.75-20.824219-20.75h-17.140625c-2.023438 0-3.972656.304687-5.824219.84375v-41.195313c0-14.339844-11.664062-26.003906-26.003906-26.003906h-205.855469c-14.335937 0-26 11.664062-26 26.003906v41.195313c-1.851562-.539063-3.804687-.84375-5.828125-.84375h-17.140625c-11.460937 0-20.78125 9.304687-20.824218 20.753906-1.851563-.542969-3.804688-.847656-5.832032-.847656h-17.136718c-11.484376 0-20.828126 9.34375-20.828126 20.828125v7.445312h-17.222656c-11.632812 0-21.097656 9.464844-21.097656 21.101563v21.09375c0 11.636719 9.464844 21.101562 21.097656 21.101562h17.222656v7.445313c0 8.839844 5.542969 16.386718 13.328126 19.40625v50.679687c0 4.140625 3.359374 7.5 7.5 7.5 4.140624 0 7.5-3.359375 7.5-7.5v-49.257812h9.640624c.496094 0 5.828126-.316407 5.824219-.832031.035157 11.25 9.589844 20.738281 20.828125 20.738281h17.140625c11.296875 0 20.828125-9.535157 20.828125-20.828125v-27.355469h227.859375v27.355469c0 10.804687 8.640625 20.054687 19.414063 20.777344.46875.03125 18.550781.046874 18.550781.046874 10.625.011719 21.523437-9.570312 20.828125-20.734374.039062.621093 5.363281.828124 5.828125.828124h9.640625v219.257813c0 4.144531 3.355469 7.5 7.5 7.5 4.140625 0 7.5-3.355469 7.5-7.5zm30.546875-75.148438c3.363281 0 6.101563 2.734375 6.101563 6.097656v21.097657c0 3.363281-2.738282 6.097656-6.101563 6.097656h-17.21875v-33.292969zm-98.980469-48.179687h17.140625c3.210938 0 5.824219 2.613281 5.824219 5.828125v118c0 3.144531-2.675781 5.824218-5.824219 5.824218 0 0-17.121093 0-17.140625 0-3.152344 0-5.828125-2.679687-5.828125-5.824218v-118c0-3.214844 2.613281-5.828125 5.828125-5.828125zm-248.6875-55.351563c0-6.066406 4.933594-11.003906 11-11.003906h205.855469c6.066406 0 11.003906 4.9375 11.003906 11.003906v88.53125h-227.859375zm-43.796875 61.179688c0-3.214844 2.617188-5.828125 5.828125-5.828125h17.140625c3.214844 0 5.828125 2.613281 5.828125 5.828125v118c0 3.171875-2.65625 5.828125-5.828125 5.828125 0 0-17.136719 0-17.140625 0-3.167968 0-5.828125-2.660157-5.828125-5.828125zm-76.015625 75.644531c-3.363281 0-6.097656-2.734375-6.097656-6.097656v-21.097657c0-3.363281 2.734375-6.097656 6.097656-6.097656h17.222656v33.292969zm38.050782 28.273437c-3.214844 0-5.828126-2.613281-5.828126-5.824218v-78.1875c0-3.214844 2.613282-5.828125 5.828126-5.828125h17.140624c3.210938 0 5.824219 2.613281 5.824219 5.828125v78.1875c0 3.210937-2.613281 5.824218-5.824219 5.824218zm81.761718-28.273437v-33.292969h227.859375v33.292969zm292.480469 28.273437c-3.214844 0-5.828125-2.613281-5.828125-5.824218v-78.1875c0-3.214844 2.613281-5.828125 5.828125-5.828125h17.140625c3.210938 0 5.828125 2.613281 5.828125 5.828125v78.1875c0 3.210937-2.617187 5.824218-5.828125 5.824218zm0 0" fill="#FFFFFF"/></svg>
