<?xml version="1.0" encoding="iso-8859-1"?>
<!-- Generator: Adobe Illustrator 21.0.0, SVG Export Plug-In . SVG Version: 6.00 Build 0)  -->
<svg xmlns="http://www.w3.org/2000/svg" xmlns:xlink="http://www.w3.org/1999/xlink" version="1.1" id="Capa_1" x="0px" y="0px" viewBox="0 0 512 512" style="enable-background:new 0 0 512 512;" xml:space="preserve" width="512px" height="512px">
<g>
	<path d="M504.311,82.589c4.143,0,7.5-3.358,7.5-7.5V30.233c0-4.142-3.357-7.5-7.5-7.5H128.535C118.975,9.007,103.09,0,85.132,0   c-29.152,0-52.87,23.719-52.87,52.874V97c0,9.652,15,9.668,15,0V52.874c0-19.317,15.203-35.956,34.433-37.702   c21.828-1.983,41.308,16.063,41.308,37.702v143.765c0,2.405,1.153,4.664,3.101,6.074c18.141,13.138,28.971,34.332,28.971,56.692   c0,18.87-7.399,36.559-20.836,49.81c-13.431,13.246-31.256,20.384-50.104,20.133c-37.586-0.523-68.513-31.532-68.941-69.125   c-0.258-22.688,10.571-44.187,28.968-57.509c1.947-1.411,3.101-3.669,3.101-6.074V140c0-9.652-15-9.668-15,0v52.921   c-20.445,16.286-32.365,41.223-32.067,67.473c0.254,22.18,9.084,43.11,24.865,58.935c10.55,10.578,23.395,18.035,37.373,21.923   v110.893H46.134c-4.143,0-7.5,3.358-7.5,7.5V504.5c0,4.142,3.357,7.5,7.5,7.5H403.19c9.652,0,9.668-15,0-15H53.634v-29.856h443.177   V497H448.19c-9.652,0-9.668,15,0,15h56.121c4.143,0,7.5-3.358,7.5-7.5v-44.856c0-4.142-3.357-7.5-7.5-7.5h-16.299V82.589H504.311z    M353.271,451.537v-118.96c2.919,0,58.919,0,60.836,0v118.96H353.271z M471.181,139.422v178.155H318.265V139.422H471.181z    M473.012,332.577v118.96h-43.905v-118.96C431.19,332.577,473.012,332.577,473.012,332.577z M473.012,124.422h-43.905V83.581   h43.905V124.422z M414.107,124.422h-60.836V83.581h60.836V124.422z M262.436,125.215H201.6V83.581h60.836V125.215z M138.003,83.581   H186.6v41.635h-48.597V83.581z M496.811,37.733v29.856H138.003V52.874c0-5.261-0.783-10.341-2.22-15.141H496.811z M170.075,259.406   c0-24.573-10.773-47.978-29.14-64.027v-55.164h120.828V281c0,9.652,15,9.668,15,0V83.581h61.508v40.841h-27.506   c-4.143,0-7.5,3.358-7.5,7.5v193.155c0,4.142,3.357,7.5,7.5,7.5c0,0,24.425,0,27.506,0v118.96h-61.508V328c0-9.652-15-9.668-15,0   v123.537H140.935V323.434C159.352,307.332,170.075,283.887,170.075,259.406z M83.926,344.346c0.407,0.006,0.813,0.009,1.219,0.009   c14.494,0,28.422-3.622,40.79-10.42v117.602H77.433V343.984C79.584,344.179,81.747,344.316,83.926,344.346z" fill="#FFFFFF"/>
	<path d="M73.267,167.107c-9.652,0-9.668,15,0,15h4.365v61.671c-6.221,2.855-10.561,9.129-10.561,16.41   c0,9.959,8.102,18.061,18.061,18.061s18.061-8.102,18.061-18.061c0-7.281-4.34-13.555-10.561-16.41v-61.671h4.366   c9.652,0,9.668-15,0-15h-4.366v-35.542h4.366c9.652,0,9.668-15,0-15h-4.366V81.023h4.366c9.652,0,9.668-15,0-15h-4.366V52.875   c0-9.652-15-9.668-15,0v13.148h-4.365c-9.652,0-9.668,15,0,15h4.365v35.542h-4.365c-5.682,0-9.351,6.373-6.476,11.285   c2.389,4.082,6.779,3.715,10.841,3.715v35.542H73.267z" fill="#FFFFFF"/>
</g>















</svg>
