<?xml version="1.0"?>
<svg xmlns="http://www.w3.org/2000/svg" height="512px" viewBox="0 -54 438.85714 438" width="512px"><path d="m411.3125 55.285156-108.988281 1.394532-17.839844-42.597657c-2.089844-7.976562-9.367187-13.652343-17.6875-13.652343h-94.726563c-8.320312 0-15.597656 5.675781-17.6875 13.652343l-17.859374 42.597657-54.238282-.695313v-18.984375h-18.285156v18.753906l-36.5625-.46875c-15.125 0-27.4296875 12.304688-27.4296875 27.429688v73.140625h-.0078125v73.144531h.0078125v73.144531c0 15.125 12.3046875 27.425781 27.4296875 27.425781h383.992188c15.125 0 27.425781-12.300781 27.425781-27.425781v-219.429687c0-15.125-12.300781-27.429688-27.542969-27.429688zm-393.019531 118.859375h102.234375c-.300782 1.632813-.457032 3.292969-.679688 4.941407-.160156 1.210937-.378906 2.402343-.5 3.625-.308594 3.226562-.492187 6.464843-.492187 9.71875 0 3.253906.183593 6.492187.492187 9.714843.121094 1.222657.339844 2.414063.5 3.621094.21875 1.652344.378906 3.3125.679688 4.949219h-102.234375zm402.277343 128c0 5.039063-4.097656 9.140625-9.140624 9.140625h-383.992188c-5.042969 0-9.144531-4.101562-9.144531-9.140625v-73.144531h107.550781c14.667969 37.402344 51.039062 64 93.585938 64 42.542968 0 78.914062-26.597656 93.585937-64h107.554687zm-283.425781-109.714843c0-3.761719.34375-7.492188.851563-11.195313.117187-.859375.25-1.710937.390625-2.5625.625-3.664063 1.410156-7.304687 2.527343-10.859375 10.488282-33.382812 41.714844-57.667969 78.515626-57.667969 36.828124 0 68.074218 24.320313 78.542968 57.742188 1.09375 3.492187 1.863282 7.066406 2.480469 10.671875.152344.914062.292969 1.828125.417969 2.753906.5 3.675781.84375 7.378906.84375 11.117188 0 3.738281-.34375 7.441406-.84375 11.117187-.125.921875-.265625 1.839844-.417969 2.75-.617187 3.605469-1.386719 7.179687-2.480469 10.675781-10.46875 33.421875-41.714844 57.742188-78.542968 57.742188-36.800782 0-68.027344-24.285156-78.515626-57.667969-1.117187-3.558594-1.90625-7.199219-2.527343-10.863281-.140625-.851563-.273438-1.703125-.390625-2.558594-.507813-3.707031-.851563-7.4375-.851563-11.195312zm283.425781 18.285156h-102.238281c.304688-1.660156.464844-3.34375.6875-5.015625.15625-1.183594.371094-2.34375.488281-3.539063.3125-3.226562.492188-6.472656.492188-9.730468 0-3.261719-.179688-6.507813-.492188-9.734376-.117187-1.195312-.332031-2.359374-.488281-3.542968-.222656-1.671875-.382812-3.351563-.6875-5.007813h102.238281zm0-54.859375h-107.554687c-14.671875-37.402344-51.042969-64-93.585937-64-42.546876 0-78.917969 26.597656-93.585938 64h-107.550781v-73.140625c0-5.042969 4.101562-9.144532 9.027343-9.144532l109.367188 1.398438c8.320312 0 15.597656-5.679688 17.6875-13.652344l17.160156-40.851562.535156-1.75 94.726563.003906 17.695313 42.597656c2.089843 7.972656 9.367187 13.652344 17.804687 13.652344l109.132813-1.398438c5.042968 0 9.140624 4.101563 9.140624 9.144532zm0 0" fill="#FFFFFF"/><path d="m384 101h-36.570312c-5.054688 0-9.144532 4.09375-9.144532 9.144531 0 5.046875 4.089844 9.140625 9.144532 9.140625h36.570312c5.054688 0 9.144531-4.09375 9.144531-9.140625 0-5.050781-4.089843-9.144531-9.144531-9.144531zm0 0" fill="#FFFFFF"/><path d="m219.429688 238.144531c25.203124 0 45.714843-20.511719 45.714843-45.714843 0-25.207032-20.511719-45.714844-45.714843-45.714844-25.207032 0-45.714844 20.507812-45.714844 45.714844 0 25.203124 20.507812 45.714843 45.714844 45.714843zm0-73.144531c15.125 0 27.425781 12.304688 27.425781 27.429688s-12.300781 27.425781-27.425781 27.425781-27.429688-12.300781-27.429688-27.425781 12.304688-27.429688 27.429688-27.429688zm0 0" fill="#FFFFFF"/></svg>
