<?xml version="1.0" encoding="iso-8859-1"?>
<!-- Generator: Adobe Illustrator 19.0.0, SVG Export Plug-In . SVG Version: 6.00 Build 0)  -->
<svg xmlns="http://www.w3.org/2000/svg" xmlns:xlink="http://www.w3.org/1999/xlink" version="1.1" id="Capa_1" x="0px" y="0px" viewBox="0 0 512 512" style="enable-background:new 0 0 512 512;" xml:space="preserve" width="512px" height="512px">
<g>
	<g>
		<path d="M349.696,213.897l-11.529-11.529c-9.105-9.131-19.43-19.482-33.178-22.921l-44.723-0.179v-21.572l42.667-34.133V22.067    L280.866,0h-46.199v63.701L217.6,75.076l-17.067-11.375V0h-46.199l-22.067,22.067v101.495l42.667,34.133V204.8h-25.6    c-23.526,0-42.667,19.14-42.667,42.667V384c0,23.526,19.14,42.667,42.667,42.667h25.6v42.667c0,23.526,19.14,42.667,42.667,42.667    c23.526,0,42.667-19.14,42.667-42.667v-42.667h52.898c16.657,0,33.22-2.313,49.229-6.895l42.94-12.271V223.172L349.696,213.897z     M149.333,115.371V29.133L161.4,17.067h22.067v55.765L217.6,95.59l34.133-22.758V17.067h22.067l12.066,12.066v86.238    l-37.128,29.696h-62.276L149.333,115.371z M243.2,162.133V179.2v25.6H192v-42.667H243.2z M243.2,469.333    c0,14.114-11.486,25.6-25.6,25.6s-25.6-11.486-25.6-25.6v-42.667h51.2V469.333z M388.267,394.633l-30.558,8.721    c-14.481,4.147-29.474,6.246-44.544,6.246h-52.898h-85.333h-25.6c-14.114,0-25.6-11.486-25.6-25.6v-8.533H166.4V358.4h-42.667    v-34.133H166.4V307.2h-42.667v-34.133H166.4V256h-42.667v-8.533c0-14.114,11.486-25.6,25.6-25.6h25.6h85.333v-25.6h41.532    c8.764,2.594,16.649,10.496,24.294,18.159l15.411,15.411l46.763,7.791V394.633z" fill="#FFFFFF"/>
	</g>
</g>
<g>
	<g>
		<rect x="209.067" y="460.8" width="17.067" height="17.067" fill="#FFFFFF"/>
	</g>
</g>
<g>
	<g>
		<rect x="200.533" y="110.933" width="32" height="17.067" fill="#FFFFFF"/>
	</g>
</g>
<g>
</g>
<g>
</g>
<g>
</g>
<g>
</g>
<g>
</g>
<g>
</g>
<g>
</g>
<g>
</g>
<g>
</g>
<g>
</g>
<g>
</g>
<g>
</g>
<g>
</g>
<g>
</g>
<g>
</g>
</svg>
