<?xml version="1.0" encoding="iso-8859-1"?>
<!-- Generator: Adobe Illustrator 19.0.0, SVG Export Plug-In . SVG Version: 6.00 Build 0)  -->
<svg xmlns="http://www.w3.org/2000/svg" xmlns:xlink="http://www.w3.org/1999/xlink" version="1.1" id="Capa_1" x="0px" y="0px" viewBox="0 0 496 496" style="enable-background:new 0 0 496 496;" xml:space="preserve" width="512px" height="512px">
<g>
	<g>
		<g>
			<path d="M447.812,390.192c-5.368-32.232-27.968-58.68-58.976-69.016l-68.832-22.944V288h-16v15.016l-11.944,47.76L259.748,312     h-23.496l-32.312,38.776l-11.936-47.76V288h-16v10.232l-68.832,22.944c-31,10.336-53.6,36.784-58.976,69.016L30.556,496h434.888     L447.812,390.192z M104.764,480H49.452l14.528-87.176c3.968-23.8,19.48-43.656,41.112-53.536L111.964,408L104.764,480z      M375.164,480H288.06c0.048-5.616,0.136-11.016,0.272-16h71.672v-16h-71.016c0.312-5.88,0.672-11.2,1.072-16h69.944v-16h-68.296     c1.912-15.104,3.856-21.392,3.896-21.504l-7.6-2.496l-7.592-2.528c-0.328,0.992-7.776,24.304-8.352,90.528h-16.056V352h-16v128     h-16.056c-0.576-66.224-8.024-89.536-8.352-90.528l-15.192,5.024c0.04,0.12,1.984,6.408,3.896,21.504h-68.296v16h69.936     c0.4,4.8,0.76,10.12,1.072,16h-71.008v16h71.672c0.144,4.984,0.224,10.384,0.272,16h-87.104l7.2-72l-7.44-74.44l57.736-19.24     l17.728,70.904L243.748,328h8.504l47.688,57.224l17.728-70.904l57.736,19.24l-7.44,74.44L375.164,480z M391.244,480l-7.2-72     l6.872-68.712c21.632,9.88,37.152,29.728,41.112,53.536L446.556,480H391.244z" fill="#FFFFFF"/>
			<path d="M121.132,150.88c-5.616,6.888-9.128,15.56-9.128,25.12c0,20.528,15.6,37.296,35.536,39.552     c4.08,14.04,11.616,26.912,22.24,37.536l31.2,31.192c7.552,7.552,17.6,11.72,28.28,11.72h37.496     c10.68,0,20.728-4.168,28.28-11.72l31.2-31.192c10.624-10.624,18.16-23.504,22.24-37.536     c19.928-2.256,35.528-19.024,35.528-39.552c0-9.56-3.512-18.232-9.128-25.12c9.872-2.976,17.128-12.048,17.128-22.88     c0-13.232-10.768-24-24-24h-1.136c-6.376-47.224-40.84-86.736-86.864-99.496V0h-64v4.504     C169.98,17.264,135.508,56.784,129.14,104h-1.136c-13.232,0-24,10.768-24,24C104.004,138.832,111.26,147.904,121.132,150.88z      M128.004,176c0-10.416,6.712-19.216,16-22.528v37.392c0,2.616,0.152,5.208,0.376,7.784     C134.9,195.44,128.004,186.552,128.004,176z M335.996,190.864c0.008,19.232-7.48,37.312-21.08,50.912l-31.2,31.192     c-4.464,4.472-10.648,7.032-16.968,7.032h-37.496c-6.32,0-12.496-2.56-16.968-7.032l-31.2-31.192     c-13.6-13.6-21.088-31.68-21.088-50.912V152h176V190.864z M351.628,198.64c0.224-2.568,0.376-5.16,0.376-7.776v-37.392     c9.288,3.312,16,12.112,16,22.528C368.004,186.552,361.108,195.44,351.628,198.64z M216.004,21.168V88h16V16h32v72h16V21.168     c37.08,12.024,64.752,44.312,70.768,82.832H145.236C151.252,65.48,178.924,33.192,216.004,21.168z M128.004,120h240     c4.408,0,8,3.592,8,8s-3.592,8-8,8h-240c-4.408,0-8-3.592-8-8S123.596,120,128.004,120z" fill="#FFFFFF"/>
			<rect x="296.004" y="72" width="16" height="16" fill="#FFFFFF"/>
			<rect x="184.004" y="72" width="16" height="16" fill="#FFFFFF"/>
		</g>
	</g>
</g>
<g>
</g>
<g>
</g>
<g>
</g>
<g>
</g>
<g>
</g>
<g>
</g>
<g>
</g>
<g>
</g>
<g>
</g>
<g>
</g>
<g>
</g>
<g>
</g>
<g>
</g>
<g>
</g>
<g>
</g>
</svg>
