<?xml version="1.0"?>
<svg xmlns="http://www.w3.org/2000/svg" height="512px" viewBox="0 0 512 512" width="512px"><path d="m415.923 322.159-42.59-6.041-21.333-16.102v-4.05a79.8 79.8 0 0 0 32-63.966v-8a31.985 31.985 0 0 0 21.546-55.638 24.562 24.562 0 0 0 -5.636-48.348 91.927 91.927 0 0 0 -66.416-84.423 32 32 0 0 0 -58.988 0 91.927 91.927 0 0 0 -66.416 84.423 24.562 24.562 0 0 0 -5.637 48.348 31.986 31.986 0 0 0 21.547 55.638v8a79.792 79.792 0 0 0 32 63.967v4.049l-19.045 14.375-43.255 3.966a56.77 56.77 0 0 0 -9.7 1.82v-48.177a31.984 31.984 0 0 0 -58.132-18.434 32.182 32.182 0 0 0 -6.014-6.1 32 32 0 0 0 -51.334 29.342c.07.556.157 1.108.255 1.656l18.391 134.587-2.855 3.126a40 40 0 0 0 3.689 79.823h138.949a21.074 21.074 0 0 0 21.051-21.051v-17.06l5.79-11.579a20.945 20.945 0 0 0 -18.734-30.31h-19.056v-16h-16v16h-16v-78.952a39.968 39.968 0 0 1 11.211-2.761l35.274-3.235 9.638 54.345a8 8 0 0 0 11.993 5.463l33.459-20.075 10.425 15.637v109.578h16v-109.578l10.425-15.637 33.459 20.075a8 8 0 0 0 11.993-5.463l9.323-52.57 36.446 5.173a40.293 40.293 0 0 1 34.354 39.6v118.4h16v-118.4a56.388 56.388 0 0 0 -48.077-55.441zm-296.042-24.1 16.149 117.941h-32.315l-.189-1.4-15.326-112.2a31.645 31.645 0 0 0 12 2.377 32.442 32.442 0 0 0 4.105-.261 31.8 31.8 0 0 0 15.576-6.454zm48.119 181.941h-80a24 24 0 0 1 0-48h80zm0-64h-15.821l-15.9-116.147a31.886 31.886 0 0 0 31.721-.153zm-16-128a16 16 0 1 1 16-16 16.019 16.019 0 0 1 -16 16zm83.056 144a4.946 4.946 0 0 1 4.423 7.155l-6.634 13.267a7.994 7.994 0 0 0 -.845 3.578v18.949a5.057 5.057 0 0 1 -5.051 5.051h-42.949v-48zm148.944-224v-32a16 16 0 0 1 0 32zm-96-160a16 16 0 0 1 32 0v40h-32zm-48 29.267v26.733h16v-41.992a76.171 76.171 0 0 1 16-8.684v42.676a8 8 0 0 0 8 8h48a8 8 0 0 0 8-8v-42.676a76.154 76.154 0 0 1 16 8.685v41.991h16v-26.734a75.3 75.3 0 0 1 15.9 42.734h-159.8a75.3 75.3 0 0 1 15.9-42.733zm-40 67.3a8.581 8.581 0 0 1 8.57-8.567h190.86a8.571 8.571 0 0 1 .611 17.12l-96.041 6.859-96.041-6.859a8.6 8.6 0 0 1 -7.959-8.549zm24 63.433a16 16 0 0 1 0-32zm16 24v-60.551l63.43 4.53q.285.021.57.021t.57-.021l63.43-4.53v60.551a63.811 63.811 0 0 1 -16 42.311v-26.311a32.036 32.036 0 0 0 -32-32h-32a32.036 32.036 0 0 0 -32 32v26.314a63.817 63.817 0 0 1 -16-42.314zm96 16v39.4a63.845 63.845 0 0 1 -64 0v-39.4a16.019 16.019 0 0 1 16-16h32a16.019 16.019 0 0 1 16 16zm-82.152 123.162-7.739-43.635 14.56-10.99 17.227 40.2zm59.087-14.986-8.935 13.402-8.935-13.4-21.516-50.208a79.915 79.915 0 0 0 60.9 0zm41.217 14.986-24.052-14.429 17.227-40.2 14.56 10.99zm-253.819-82.162a16 16 0 1 1 16-16 16.019 16.019 0 0 1 -16 16z" fill="#FFFFFF"/><path d="m392 448h-64v16h64v32h16v-96h-16z" fill="#FFFFFF"/><circle cx="268" cy="187.998" r="12" fill="#FFFFFF"/><circle cx="340" cy="187.998" r="12" fill="#FFFFFF"/><path d="m264 408h16v16h-16z" fill="#FFFFFF"/><path d="m264 480h16v16h-16z" fill="#FFFFFF"/><path d="m299.289 248h-11.289v16h11.289a56.254 56.254 0 0 0 24.119-5.487l-6.816-14.476a40.372 40.372 0 0 1 -17.303 3.963z" fill="#FFFFFF"/></svg>
