<?xml version="1.0"?>
<svg xmlns="http://www.w3.org/2000/svg" id="Layer_1_1_" enable-background="new 0 0 64 64" height="512px" viewBox="0 0 64 64" width="512px"><path d="m18 24.25c-.965 0-1.75.785-1.75 1.75s.785 1.75 1.75 1.75 1.75-.785 1.75-1.75-.785-1.75-1.75-1.75zm-.25 1.75c0-.138.112-.25.25-.25s.25.112.25.25c0 .275-.5.275-.5 0z" fill="#FFFFFF"/><path d="m28 27.75c.965 0 1.75-.785 1.75-1.75s-.785-1.75-1.75-1.75-1.75.785-1.75 1.75.785 1.75 1.75 1.75zm0-2c.138 0 .25.112.25.25 0 .275-.5.275-.5 0 0-.138.112-.25.25-.25z" fill="#FFFFFF"/><path d="m26.75 31h-1.5c0 1.24-1.01 2.25-2.25 2.25s-2.25-1.01-2.25-2.25h-1.5c0 2.067 1.683 3.75 3.75 3.75s3.75-1.683 3.75-3.75z" fill="#FFFFFF"/><path d="m57.919 23.852c.932-.301 1.667-1.043 1.952-1.981 1.231-.374 2.129-1.519 2.129-2.871s-.898-2.497-2.129-2.871c-.374-1.231-1.519-2.129-2.871-2.129-.786 0-1.496.31-2.032.806-.008-.041-.007-.083-.02-.122l-2-6c-.135-.409-.517-.684-.948-.684s-.813.275-.948.684l-2 6c-.034.102-.052.209-.052.316 0 1.654 1.346 3 3 3 .062 0 .121-.015.182-.018-.115.318-.182.66-.182 1.018 0 1.352.898 2.497 2.129 2.871.266.876.927 1.577 1.772 1.912-.187.929-.736 2.5-2.329 3.691-.524-.879-1.477-1.474-2.572-1.474-1.217 0-2.262.732-2.732 1.775-.544-.771-.562-1.456-.491-1.887.998-.269 1.795-1.032 2.094-2.017 1.231-.374 2.129-1.519 2.129-2.871s-.898-2.497-2.129-2.871c-.374-1.231-1.519-2.129-2.871-2.129s-2.497.898-2.871 2.129c-1.231.374-2.129 1.519-2.129 2.871s.898 2.497 2.129 2.871c.254.835.868 1.509 1.655 1.861-.106.852.002 2.067.947 3.321-.174.202-.321.426-.436.669l-.346-1.039c-.136-.408-.518-.683-.949-.683s-.813.275-.948.684l-2 6c-.034.102-.052.209-.052.316 0 .352.072.686.184 1h-.184c-.302 0-.588.137-.777.371-.19.235-.264.543-.2.839l2.322 10.838c.367 1.709 1.606 3.067 3.184 3.647-.874.255-1.764.44-2.664.536-.868-6.332-6.299-11.231-12.865-11.231h-2v-3h5c2.998 0 5.489-2.21 5.931-5.087 2.313-.437 4.069-2.474 4.069-4.913 0-2.415-1.721-4.435-4-4.899v-3.648c0-9.348-7.106-17.005-16.18-17.433-4.691-.217-9.158 1.44-12.554 4.679s-5.266 7.609-5.266 12.301v4.101c-2.279.464-4 2.484-4 4.899 0 2.439 1.756 4.476 4.069 4.913.442 2.877 2.933 5.087 5.931 5.087h5v3h-2c-7.168 0-13 5.832-13 13v7c0 .553.447 1 1 1h40c.553 0 1-.447 1-1v-6.77c.961-.099 1.912-.285 2.849-.544l-2.777 6.943c-.123.308-.085.657.101.932.185.274.495.439.827.439h12c.332 0 .642-.165.828-.439s.224-.624.101-.932l-2.806-7.014.151.056c2.009.753 3.702 2.096 4.895 3.884l1.664-1.109c-1.427-2.14-3.452-3.747-5.856-4.647l-.402-.151c1.527-.601 2.723-1.929 3.081-3.599l2.322-10.838c.063-.296-.01-.604-.2-.839s-.476-.372-.778-.372v-2.184c1.161-.414 2-1.514 2-2.816 0-.107-.018-.214-.052-.316l-2-6c-.135-.409-.517-.684-.948-.684s-.813.275-.948.684l-2 6c-.034.102-.052.209-.052.316 0 1.302.839 2.402 2 2.816v2.184h-1.103c-.26-1.341-1.01-2.278-1.764-2.9.534-.541.867-1.281.867-2.1 0-.849-.355-1.616-.924-2.162 2.035-1.668 2.658-3.813 2.843-4.986zm-6.91-8.717.991-2.973.991 2.973c-.066.488-.485.865-.991.865s-.925-.377-.991-.865zm3.991 4.865c-.552 0-1-.448-1-1s.448-1 1-1c.553 0 1-.447 1-1 0-.552.448-1 1-1s1 .448 1 1c0 .553.447 1 1 1 .552 0 1 .448 1 1s-.448 1-1 1c-.553 0-1 .447-1 1 0 .552-.448 1-1 1s-1-.448-1-1c0-.553-.447-1-1-1zm4 8.162.991 2.973c-.066.488-.485.865-.991.865s-.925-.377-.991-.865zm-10 1.838c.553 0 1-.447 1-1 0-.552.448-1 1-1s1 .448 1 1c0 .553.447 1 1 1 .552 0 1 .448 1 1s-.448 1-1 1c-.553 0-1 .447-1 1 0 .552-.448 1-1 1s-1-.448-1-1c0-.553-.447-1-1-1-.552 0-1-.448-1-1s.448-1 1-1zm-4-8c-.552 0-1-.448-1-1s.448-1 1-1c.553 0 1-.447 1-1 0-.552.448-1 1-1s1 .448 1 1c0 .553.447 1 1 1 .552 0 1 .448 1 1s-.448 1-1 1c-.553 0-1 .447-1 1 0 .552-.448 1-1 1s-1-.448-1-1c0-.553-.447-1-1-1zm-.991 13.135.991-2.973.991 2.973c-.066.488-.485.865-.991.865s-.925-.377-.991-.865zm-32.009 18.865h22v6h-22zm1-27v-5h7.096c2.759 0 5.152-1.869 5.813-4.514l1.085-3.813 1.278 4.539c.547 2.19 2.482 3.722 4.728 3.778v5.01c0 5.514-4.486 10-10 10s-10-4.486-10-10zm-5 5c0-.553-.447-1-1-1-1.654 0-3-1.346-3-3s1.346-3 3-3c.553 0 1-.447 1-1v-5c0-4.141 1.65-7.995 4.647-10.854 2.995-2.857 6.925-4.329 11.079-4.128 8.004.377 14.274 7.156 14.274 15.434v4.548c0 .553.447 1 1 1 1.654 0 3 1.346 3 3s-1.346 3-3 3c-.553 0-1 .447-1 1 0 2.206-1.794 4-4 4h-3.089c2.501-2.201 4.089-5.415 4.089-9v-5h1v-2h-2.877c-1.379 0-2.576-.935-2.918-2.301l-2.242-7.97c-.121-.43-.514-.728-.961-.729-.001 0-.001 0-.002 0-.447 0-.84.297-.962.727l-2.061 7.244c-.446 1.783-2.042 3.029-3.881 3.029h-10.096v2h1v5c0 3.585 1.588 6.799 4.089 9h-3.089c-2.206 0-4-1.794-4-4zm10 11c.553 0 1-.447 1-1v-3.7c1.253.445 2.596.7 4 .7s2.747-.255 4-.7v3.7c0 .553.447 1 1 1h1.816c-.414 1.161-1.514 2-2.816 2h-8c-1.302 0-2.402-.839-2.816-2zm1 4h8c2.402 0 4.414-1.702 4.893-3.964.725.058 1.429.19 2.107.382v8.582h-22v-8.582c.679-.193 1.383-.324 2.107-.382.479 2.262 2.491 3.964 4.893 3.964zm-15 7c0-4.265 2.443-7.966 6-9.79v15.79h-6zm32 6v-15.79c3.076 1.577 5.308 4.56 5.858 8.096-.888-.021-1.778-.111-2.661-.287l-.393 1.961c1.061.212 2.13.313 3.196.327v5.693zm19.523 0h-9.047l2.884-7.21 1.664-.713 1.564.587zm1.177-12.372c-.295 1.375-1.528 2.372-2.933 2.372h-.685l2.7-3.375c.141-.178.218-.397.218-.625v-2h-2v1.649l-2.805 3.506-1.195-2.391v-1.764h-2v2c0 .155.036.309.105.447l1.277 2.553h-.382-.767c-1.405 0-2.639-.997-2.934-2.372l-2.062-9.628h15.525zm-5.7-11.628h-3.184c.112-.314.184-.648.184-1 0-.107-.018-.214-.052-.316l-.345-1.036c.168.089.341.167.526.223.374 1.231 1.519 2.129 2.871 2.129 1.124 0 2.098-.626 2.612-1.543.456.324.943.825 1.201 1.543z" fill="#FFFFFF"/></svg>
