<?xml version="1.0"?>
<svg xmlns="http://www.w3.org/2000/svg" viewBox="0 0 64 64" width="512px" height="512px"><g id="Outlines"><g><path d="M6,60V33.576a4.947,4.947,0,0,0,6-1.607,4.954,4.954,0,0,0,8,0,4.954,4.954,0,0,0,8,0,4.954,4.954,0,0,0,8,0,4.954,4.954,0,0,0,8,0,4.954,4.954,0,0,0,8,0A4.985,4.985,0,0,0,61,29V25a1,1,0,0,0-.293-.707L53,16.586V13a7.009,7.009,0,0,0-7-7H41.791a1,1,0,0,0,0,2H46a5.006,5.006,0,0,1,5,5v3H46a1,1,0,0,0-.8,1.6L50,24H44.618l-3.365-6.731a8.942,8.942,0,0,0,4.273-3.77,1,1,0,0,0-.366-1.366l-1.732-1a9.07,9.07,0,0,0-1.886-.82,1,1,0,0,0-.58,1.915,7.007,7.007,0,0,1,1.466.637l.8.465a6.986,6.986,0,0,1-8.648,1.912c.025-.049.054-.094.076-.144a.9.9,0,0,1,.929-.536,2.909,2.909,0,0,0,2.661-4.611.9.9,0,0,1,0-1.071A2.908,2.908,0,0,0,35.59,4.271a.9.9,0,0,1-.929-.536,2.908,2.908,0,0,0-5.322,0,.9.9,0,0,1-.929.536,2.883,2.883,0,0,0-2.833,1.437A3.139,3.139,0,0,0,25.435,6H18a7.009,7.009,0,0,0-7,7v3.586L3.293,24.293A1,1,0,0,0,3,25v4a4.952,4.952,0,0,0,1,2.969V61a1,1,0,0,0,1,1H59a1,1,0,0,0,1-1V36.62a1,1,0,0,0-2,0V60H56V43a7,7,0,0,0-14,0V57a1,1,0,0,0,2,0V56h4v4H33.18l.334-2H38a1,1,0,0,0,1-1V42.618A3.962,3.962,0,0,0,40,40V39a3,3,0,0,0-3-3H11a3,3,0,0,0-3,3v1a4,4,0,0,0,8,0V38h4v2a2,2,0,0,1-2,2,1,1,0,0,0,0,2,3.974,3.974,0,0,0,3-1.382,3.947,3.947,0,0,0,6,0,3.947,3.947,0,0,0,6,0,3.864,3.864,0,0,0,4,1.24V56H33.847l.139-.836A1,1,0,0,0,33,54H31V52.508a3.326,3.326,0,0,1,2.758-.538,1,1,0,1,0,.484-1.94,5.373,5.373,0,0,0-1.388-.153A2.963,2.963,0,0,0,33,49c0-1.593-1.2-4-3-4s-3,2.407-3,4a2.941,2.941,0,0,0,.119.789,4.485,4.485,0,0,0-1.468.274,1,1,0,1,0,.7,1.875,2.47,2.47,0,0,1,2.354.339l.3.223V54H27a1,1,0,0,0-.986,1.164l.139.836H21.847l.139-.836A1,1,0,0,0,21,54H19V52.816a2.746,2.746,0,0,0,.285-.117l.836.836a1,1,0,1,0,1.414-1.414l-.836-.836A2.746,2.746,0,0,0,20.816,51H22a1,1,0,0,0,0-2H20.816a2.746,2.746,0,0,0-.117-.285l.836-.836a1,1,0,1,0-1.414-1.414l-.836.836A2.746,2.746,0,0,0,19,47.184V46a1,1,0,0,0-2,0v1.184a2.746,2.746,0,0,0-.285.117l-.836-.836a1,1,0,1,0-1.414,1.414l.836.836a2.746,2.746,0,0,0-.117.285H14a1,1,0,0,0,0,2h1.184a2.746,2.746,0,0,0,.117.285l-.836.836a1,1,0,1,0,1.414,1.414l.836-.836a2.746,2.746,0,0,0,.285.117V54H15a1,1,0,0,0-.986,1.164l.139.836H11V46.222a1,1,0,0,0-2,0V57a1,1,0,0,0,1,1h4.486l.334,2ZM8,32a3,3,0,0,1-3-3V26h6v3A3,3,0,0,1,8,32ZM25.2,11.945a2.945,2.945,0,0,0,.382,1.18,2.878,2.878,0,0,0,2.833,1.437.9.9,0,0,1,.929.536c.022.05.051.095.076.144a6.986,6.986,0,0,1-8.648-1.912l.8-.465A6.9,6.9,0,0,1,25.2,11.945Zm7.8,4.71.073.042a.968.968,0,0,0-.036.545L34.719,24H29.281l1.689-6.758a.968.968,0,0,0-.036-.545l.073-.042a2.874,2.874,0,0,0,1.986,0ZM26.282,18a8.957,8.957,0,0,0,2.533-.379L27.219,24h-5.6l3.08-6.161A8.953,8.953,0,0,0,26.282,18Zm-6.9,6H14l4.5-6h3.882ZM16,32a3,3,0,0,1-3-3V26h6v3A3,3,0,0,1,16,32Zm8,0a3,3,0,0,1-3-3V26h6v3A3,3,0,0,1,24,32Zm8,0a3,3,0,0,1-3-3V26h6v3A3,3,0,0,1,32,32Zm8,0a3,3,0,0,1-3-3V26h6v3A3,3,0,0,1,40,32Zm8,0a3,3,0,0,1-3-3V26h6v3A3,3,0,0,1,48,32Zm8,0a3,3,0,0,1-3-3V26h6v3A3,3,0,0,1,56,32ZM51.586,18l6,6H52.5L48,18ZM37.718,18a8.953,8.953,0,0,0,1.584-.158L42.382,24h-5.6l-1.6-6.382A8.957,8.957,0,0,0,37.718,18ZM27.31,6.708a.9.9,0,0,1,.883-.448,2.9,2.9,0,0,0,2.976-1.718.908.908,0,0,1,1.662,0A2.887,2.887,0,0,0,35.807,6.26a.911.911,0,0,1,.883.448.888.888,0,0,1-.052.989,2.894,2.894,0,0,0,0,3.437.909.909,0,0,1-.831,1.439,2.907,2.907,0,0,0-2.976,1.718.909.909,0,0,1-1.662,0,2.9,2.9,0,0,0-2.656-1.735,3.148,3.148,0,0,0-.32.017.912.912,0,0,1-.883-.448.892.892,0,0,1,.052-.99,2.894,2.894,0,0,0,0-3.437A.89.89,0,0,1,27.31,6.708ZM13,13a5.006,5.006,0,0,1,5-5h7.312a2.949,2.949,0,0,0,.437.881.9.9,0,0,1,0,1.071l0,.005a9.029,9.029,0,0,0-5.174,1.176l-1.732,1a1,1,0,0,0-.366,1.366A8.92,8.92,0,0,0,20.635,16H16a1,1,0,0,0,0,2h0l-4.5,6H6.414l6.293-6.293A1,1,0,0,0,13,17Zm1,27a2,2,0,0,1-4,0V39a1,1,0,0,1,1-1h3Zm10,2a2,2,0,0,1-2-2V38h4v2A2,2,0,0,1,24,42Zm6,0a2,2,0,0,1-2-2V38h4v2A2,2,0,0,1,30,42Zm4-2V38h3a1,1,0,0,1,1,1v1a2,2,0,0,1-4,0Zm-4,7c.323.044,1,1.18,1,2a1,1,0,0,1-2,0C29,48.18,29.68,47.044,30,47ZM17,50a1,1,0,1,1,1,1A1,1,0,0,1,17,50Zm27-6h4v4H44Zm10,4H50V44h4Zm-4,2h4v4H50Zm3.9-8H50V38.11A5.006,5.006,0,0,1,53.9,42ZM48,38.11V42H44.1A5.006,5.006,0,0,1,48,38.11ZM44,54V50h4v4Zm6,2h4v4H50ZM31.819,56l-.666,4H28.847l-.666-4Zm-5.333,2,.334,2H21.18l.334-2Zm-10.3-2h3.638l-.666,4H16.847Z" fill="#FFFFFF"/><path d="M32,12.416a3,3,0,1,0-3-3A3,3,0,0,0,32,12.416Zm0-4a1,1,0,1,1-1,1A1,1,0,0,1,32,8.416Z" fill="#FFFFFF"/></g></g></svg>
