<?xml version="1.0" encoding="iso-8859-1"?>
<!-- Generator: Adobe Illustrator 19.0.0, SVG Export Plug-In . SVG Version: 6.00 Build 0)  -->
<svg xmlns="http://www.w3.org/2000/svg" xmlns:xlink="http://www.w3.org/1999/xlink" version="1.1" id="Layer_1" x="0px" y="0px" viewBox="0 0 512 512" style="enable-background:new 0 0 512 512;" xml:space="preserve" width="512px" height="512px">
<g>
	<g>
		<path d="M478.224,439.724c-4.465,0-8.084,3.618-8.084,8.084v43.173c0,0.17-0.009,0.337-0.025,0.504    c-0.251,2.478-2.326,4.346-4.826,4.346H412.01v-78.893c0-4.466-3.618-8.084-8.084-8.084c-4.466,0-8.084,3.618-8.084,8.084v78.893    h-10.456v-36.905v-30.804c0-4.466-3.618-8.084-8.084-8.084h-50.543c-4.466,0-8.084,3.618-8.084,8.084v30.804v36.905h-10.503    V375.785l2.307,1.562c1.349,0.914,2.932,1.391,4.534,1.391c0.603,0,1.207-0.068,1.803-0.204c2.186-0.5,4.065-1.885,5.19-3.824    l37.546-64.748h18.43c51.273,0,85.406,35.359,91.306,94.584c0.565,5.682,0.852,11.568,0.852,17.499    c0,4.466,3.62,8.084,8.084,8.084c4.466,0,8.084-3.619,8.084-8.084c0-6.463-0.314-12.889-0.931-19.1    c-6.707-67.328-47.857-109.152-107.395-109.152h-21.384l-20.172-8.893v-9.517c24.275-14.642,41.082-40.426,43.337-70.215    c16.548-1.481,29.565-15.417,29.565-32.343c0-8.108-2.993-15.526-7.925-21.224v-19.86c2.884-0.384,5.378-2.292,6.461-5.052    c1.214-3.096,0.409-6.619-2.03-8.88c-3.029-2.808-6.699-5.461-10.928-7.941C392.532,48.856,345.466,0,287.955,0    c-57.51,0-104.575,48.857-106.952,109.868c-4.229,2.481-7.9,5.134-10.928,7.942c-2.438,2.261-3.244,5.784-2.03,8.88    c1.082,2.76,3.576,4.668,6.461,5.052v19.492c-5.122,5.744-8.243,13.309-8.243,21.591c0,17.035,13.185,31.039,29.885,32.368    c2.262,29.778,19.068,55.553,43.337,70.19v9.517l-20.172,8.893h-21.384c-1.06,0-2.109,0.037-3.163,0.063    c0.091-0.801,0.148-1.613,0.148-2.437c0-11.887-9.671-21.558-21.558-21.558H47.249c-11.887,0-21.558,9.671-21.558,21.558    c0,10.134,7.039,18.636,16.478,20.928v32.514c0,28.521,19.922,52.461,46.576,58.68v87.442c0,11.59,9.429,21.019,21.019,21.019    h1.078h164.981h24.266h26.671h50.542h87.987c10.828,0,19.817-8.115,20.911-18.879c0.071-0.703,0.108-1.423,0.108-2.14v-43.173    C486.308,443.344,482.689,439.724,478.224,439.724z M380.05,131.823h5.185v9.617c-0.041-0.011-0.082-0.017-0.123-0.027    c-0.729-0.192-1.469-0.355-2.216-0.496c-0.162-0.03-0.324-0.059-0.487-0.087c-0.764-0.133-1.536-0.246-2.317-0.323    c-0.014-0.001-0.027-0.004-0.041-0.005V131.823z M380.05,156.836c0.269,0.054,0.536,0.122,0.802,0.19    c0.177,0.045,0.358,0.08,0.532,0.131c0.306,0.088,0.606,0.198,0.905,0.304c0.403,0.143,0.798,0.303,1.186,0.476    c0.19,0.085,0.384,0.161,0.57,0.252c0.264,0.13,0.517,0.279,0.774,0.424c0.16,0.089,0.321,0.172,0.477,0.267    c0.249,0.152,0.488,0.318,0.729,0.483c0.154,0.106,0.312,0.207,0.462,0.318c0.229,0.168,0.448,0.348,0.667,0.528    c0.153,0.126,0.308,0.25,0.457,0.382c3.394,2.991,5.545,7.365,5.545,12.235c0.002,7.897-5.641,14.502-13.107,15.995V156.836z     M195.54,188.823c-7.466-1.495-13.108-8.1-13.108-15.999c0-4.907,2.18-9.311,5.618-12.304c0.183-0.159,0.375-0.304,0.564-0.455    c0.184-0.147,0.363-0.3,0.554-0.438c0.236-0.171,0.483-0.327,0.727-0.484c0.211-0.137,0.422-0.275,0.64-0.402    c0.348-0.203,0.7-0.4,1.061-0.576c0.122-0.059,0.249-0.108,0.372-0.164c0.315-0.144,0.631-0.288,0.953-0.411    c0.137-0.053,0.279-0.094,0.418-0.142c0.315-0.111,0.631-0.221,0.953-0.313c0.157-0.045,0.32-0.078,0.479-0.117    c0.255-0.065,0.512-0.126,0.771-0.178V188.823z M195.859,140.471c-0.042,0.003-0.082,0.012-0.124,0.016    c-0.793,0.073-1.578,0.177-2.354,0.306c-0.111,0.018-0.221,0.04-0.332,0.059c-0.801,0.142-1.595,0.305-2.375,0.505v-9.536h5.185    V140.471z M203.905,99.836c-1.522,0.503-3.012,1.02-4.47,1.551c-0.205,0.074-0.416,0.147-0.619,0.222    c-0.326,0.121-0.667,0.234-0.99,0.356c5.785-48.334,44.003-85.796,90.128-85.796c46.126,0,84.344,37.462,90.129,85.796    c-0.327-0.123-0.674-0.238-1.005-0.36c-0.156-0.058-0.318-0.113-0.475-0.17c-1.517-0.553-3.067-1.091-4.652-1.615    c-0.8-0.265-1.603-0.528-2.42-0.786c-0.52-0.163-1.046-0.323-1.572-0.483c-1.165-0.355-2.347-0.702-3.544-1.04    c-0.23-0.065-0.455-0.131-0.685-0.195c-18.059-5.038-39.63-8.244-62.758-9.124c-0.29-0.011-0.581-0.021-0.872-0.031    c-1.629-0.057-3.265-0.104-4.909-0.138c-0.465-0.01-0.928-0.022-1.393-0.029c-1.94-0.033-3.887-0.055-5.844-0.055    c-1.958,0-3.904,0.023-5.844,0.055c-0.465,0.009-0.928,0.019-1.392,0.029c-1.644,0.034-3.281,0.081-4.911,0.138    c-0.29,0.011-0.58,0.019-0.87,0.031c-23.135,0.881-44.71,4.087-62.771,9.128c-0.216,0.06-0.427,0.123-0.641,0.182    c-1.216,0.344-2.416,0.696-3.599,1.056c-0.513,0.155-1.024,0.312-1.531,0.47C205.555,99.291,204.728,99.563,203.905,99.836z     M207.468,115.654c0.354-0.122,0.704-0.246,1.062-0.365c0.165-0.055,0.333-0.11,0.499-0.165    c18.525-6.141,42.411-9.979,68.007-10.835c1.343-0.043,2.689-0.083,4.054-0.11c0.516-0.011,1.035-0.017,1.551-0.025    c1.757-0.027,3.521-0.047,5.314-0.047c1.791,0,3.557,0.02,5.314,0.047c0.517,0.009,1.035,0.014,1.551,0.025    c1.365,0.027,2.712,0.067,4.055,0.11c25.572,0.854,49.437,4.687,67.955,10.818c0.193,0.065,0.388,0.127,0.579,0.192    c0.348,0.117,0.689,0.237,1.034,0.357H207.468V115.654z M212.028,198.323v-49.407v-17.093h151.854v17.093v47.816v1.591    c0,30.429-18.524,56.609-44.885,67.869c-0.096,0.041-0.191,0.084-0.288,0.125c-0.926,0.391-1.864,0.756-2.808,1.109    c-0.34,0.126-0.679,0.25-1.02,0.371c-0.689,0.246-1.383,0.48-2.08,0.705c-0.605,0.195-1.213,0.382-1.822,0.561    c-0.492,0.146-0.984,0.286-1.479,0.42c-0.528,0.144-1.057,0.288-1.589,0.419c-0.758,0.189-1.521,0.364-2.288,0.529    c-0.54,0.115-1.082,0.221-1.625,0.326c-0.515,0.099-1.034,0.191-1.553,0.278c-0.674,0.114-1.348,0.22-2.025,0.316    c-0.685,0.096-1.372,0.185-2.062,0.263c-0.389,0.044-0.779,0.087-1.169,0.125c-0.984,0.094-1.973,0.171-2.967,0.226    c-0.257,0.014-0.514,0.024-0.771,0.036c-1.106,0.05-2.215,0.084-3.332,0.084h-4.32c-1.118,0-2.227-0.036-3.332-0.084    c-0.258-0.012-0.514-0.022-0.772-0.036c-0.995-0.055-1.983-0.133-2.967-0.226c-0.39-0.038-0.78-0.082-1.171-0.126    c-0.69-0.077-1.376-0.166-2.06-0.262c-0.678-0.096-1.355-0.202-2.031-0.316c-0.517-0.087-1.035-0.179-1.548-0.277    c-0.544-0.105-1.088-0.21-1.629-0.327c-0.766-0.165-1.528-0.341-2.285-0.528c-0.534-0.133-1.063-0.276-1.593-0.42    c-0.493-0.135-0.982-0.274-1.471-0.418c-0.613-0.181-1.226-0.369-1.835-0.565c-0.694-0.225-1.386-0.457-2.072-0.703    c-0.343-0.122-0.684-0.246-1.025-0.373c-0.942-0.352-1.88-0.718-2.804-1.107c-0.098-0.041-0.196-0.086-0.294-0.127    c-1.033-0.441-2.057-0.901-3.065-1.387c-0.001,0-0.001,0-0.002-0.001C229.123,252.873,212.028,227.558,212.028,198.323z     M320.256,283.052v15.146v0.001v0.841l-32.302,40.353L255.65,299.04v-0.821c0-0.008,0.001-0.015,0.001-0.023v-15.146    c0.375,0.134,0.758,0.248,1.135,0.376c3.095,1.057,6.26,1.952,9.494,2.671c0.179,0.04,0.356,0.085,0.535,0.124    c0.959,0.207,1.926,0.389,2.896,0.565c0.405,0.074,0.811,0.15,1.217,0.218c0.859,0.143,1.721,0.273,2.588,0.391    c0.565,0.079,1.131,0.149,1.698,0.217c0.755,0.088,1.509,0.175,2.268,0.245c0.773,0.072,1.547,0.125,2.322,0.178    c0.591,0.039,1.179,0.087,1.773,0.114c1.405,0.067,2.81,0.107,4.217,0.107h4.32c1.407,0,2.813-0.041,4.217-0.107    c0.594-0.028,1.182-0.075,1.773-0.114c0.775-0.052,1.549-0.106,2.322-0.178c0.76-0.07,1.514-0.155,2.268-0.245    c0.567-0.068,1.133-0.138,1.699-0.217c0.867-0.119,1.729-0.248,2.588-0.391c0.407-0.068,0.813-0.144,1.218-0.218    c0.97-0.176,1.937-0.358,2.895-0.565c0.179-0.039,0.357-0.084,0.536-0.124c3.23-0.718,6.393-1.611,9.483-2.667    C319.493,283.302,319.878,283.187,320.256,283.052z M115.692,490.981c0,2.674-2.176,4.851-4.851,4.851h-1.078    c-2.674,0-4.851-2.176-4.851-4.851v-85.853h10.779V490.981z M123.097,388.677c-0.064,0.008-0.126,0.017-0.191,0.024    c-1.601,0.17-3.194,0.258-4.736,0.258h-15.734c-1.541,0-3.133-0.087-4.735-0.258c-22.097-2.37-39.364-21.125-39.364-43.841    v-31.884h63.277c4.465,0,8.084-3.618,8.084-8.084c0-4.466-3.62-8.084-8.084-8.084H47.249c-2.972,0-5.389-2.418-5.389-5.389    s2.418-5.389,5.389-5.389h126.107c2.972,0,5.389,2.418,5.389,5.389c0,2.168-1.293,4.029-3.143,4.884    c-0.083,0.039-0.165,0.079-0.249,0.112c-0.269,0.109-0.55,0.197-0.839,0.261c-0.061,0.014-0.124,0.023-0.185,0.033    c-0.316,0.058-0.639,0.098-0.972,0.098h-1.223h-23.93c-4.465,0-8.084,3.618-8.084,8.084c0,4.466,3.62,8.084,8.084,8.084h14.067    v31.884c0,0.738-0.019,1.472-0.056,2.202c-0.009,0.18-0.027,0.358-0.038,0.538c-0.034,0.557-0.072,1.112-0.127,1.664    c-0.016,0.166-0.04,0.331-0.058,0.497c-0.064,0.573-0.133,1.145-0.218,1.712c-0.017,0.114-0.039,0.227-0.056,0.342    c-0.1,0.63-0.209,1.256-0.336,1.876c-0.009,0.044-0.019,0.088-0.028,0.133c-3.699,17.846-18.215,31.777-36.361,34.608    C124.366,388.526,123.733,388.606,123.097,388.677z M267.739,495.832h-87.671v-78.893c0-4.466-3.62-8.084-8.084-8.084    c-4.465,0-8.084,3.618-8.084,8.084v78.893h-32.604c0.034-0.147,0.06-0.297,0.093-0.446c0.024-0.113,0.047-0.226,0.07-0.341    c0.117-0.595,0.211-1.199,0.277-1.81c0.011-0.099,0.017-0.198,0.026-0.297c0.06-0.646,0.099-1.297,0.099-1.956v-87.417    c0.375-0.086,0.744-0.19,1.117-0.282c0.134-0.033,0.268-0.067,0.402-0.101c22.301-5.758,39.256-23.756,43.825-46.159    c0.006-0.031,0.012-0.063,0.018-0.094c0.176-0.869,0.332-1.744,0.47-2.626c0.031-0.196,0.06-0.393,0.089-0.591    c0.107-0.73,0.199-1.463,0.28-2.201c0.029-0.268,0.06-0.535,0.087-0.804c0.068-0.705,0.119-1.414,0.162-2.125    c0.016-0.271,0.04-0.539,0.053-0.81c0.045-0.966,0.073-1.935,0.073-2.91v-32.495c0.192-0.046,0.378-0.113,0.568-0.165    c0.361-0.098,0.721-0.196,1.075-0.313c0.275-0.091,0.544-0.197,0.816-0.3c0.347-0.13,0.695-0.254,1.034-0.401    c0.031-0.014,0.065-0.024,0.097-0.038c5.106-0.788,10.449-1.189,15.902-1.189h18.43l37.546,64.748    c1.125,1.939,3.004,3.324,5.19,3.824c0.597,0.137,1.201,0.204,1.803,0.204c1.602,0,3.184-0.476,4.534-1.391l2.307-1.562V495.832z     M274.622,351.595l-11.08,7.504l-31.003-53.468l6.974-3.075c0.135,1.593,0.739,3.116,1.745,4.372l34.914,43.617L274.622,351.595z     M292.004,495.832h-8.097V364.835l2.008-1.36l2.04-1.382l4.049,2.742V495.832z M304.621,353.851l-4.883-3.307l34.915-43.616    c1.006-1.257,1.609-2.779,1.744-4.373l6.974,3.075l-31.003,53.468l-7.736-5.24C304.629,353.857,304.625,353.853,304.621,353.851z     M369.217,495.832h-34.374v-28.821h34.374V495.832z M369.217,450.842h-34.374v-14.636h34.374V450.842z" fill="#FFFFFF"/>
	</g>
</g>
<g>
</g>
<g>
</g>
<g>
</g>
<g>
</g>
<g>
</g>
<g>
</g>
<g>
</g>
<g>
</g>
<g>
</g>
<g>
</g>
<g>
</g>
<g>
</g>
<g>
</g>
<g>
</g>
<g>
</g>
</svg>
