<?xml version="1.0" encoding="iso-8859-1"?>
<!-- Generator: Adobe Illustrator 19.0.0, SVG Export Plug-In . SVG Version: 6.00 Build 0)  -->
<svg xmlns="http://www.w3.org/2000/svg" xmlns:xlink="http://www.w3.org/1999/xlink" version="1.1" id="Layer_1" x="0px" y="0px" viewBox="0 0 512 512" style="enable-background:new 0 0 512 512;" xml:space="preserve" width="512px" height="512px">
<g>
	<path d="M502,170h-36v-50c0-5.522-4.477-10-10-10h-35V10c0-5.522-4.477-10-10-10H101c-5.523,0-10,4.478-10,10v100H56   c-5.523,0-10,4.478-10,10v50H10c-5.523,0-10,4.478-10,10v322c0,5.522,4.477,10,10,10h492c5.523,0,10-4.478,10-10V180   C512,174.478,507.523,170,502,170z M111,20h290v110H111V20z M66,130h25v10c0,5.522,4.477,10,10,10h310c5.523,0,10-4.478,10-10v-10   h25v40H66V130z M243,492h-60V352h60V492z M263,492V352h60v140H263z M343,492V342c0-5.522-4.477-10-10-10H173   c-5.523,0-10,4.478-10,10v150H20v-20h78c5.51,0,10-4.49,10-10s-4.49-10-10-10H20V190h472v262h-78c-5.51,0-10,4.49-10,10   s4.49,10,10,10h78v20H343z" fill="#FFFFFF"/>
	<path d="M460,332h-80c-5.523,0-10,4.478-10,10v80c0,5.522,4.477,10,10,10h80c5.523,0,10-4.478,10-10v-80   C470,336.478,465.523,332,460,332z M450,412h-60v-60h60V412z" fill="#FFFFFF"/>
	<path d="M470,302v-80c0-5.522-4.477-10-10-10H280c-5.523,0-10,4.478-10,10v80c0,5.522,4.477,10,10,10h180   C465.523,312,470,307.522,470,302z M450,292H290v-60h160V292z" fill="#FFFFFF"/>
	<path d="M230,212H50c-5.523,0-10,4.478-10,10v80c0,5.522,4.477,10,10,10h180c5.523,0,10-4.478,10-10v-80   C240,216.478,235.523,212,230,212z M220,292H60v-60h160V292z" fill="#FFFFFF"/>
	<path d="M140,422v-80c0-5.522-4.477-10-10-10H50c-5.523,0-10,4.478-10,10v80c0,5.522,4.477,10,10,10h80   C135.523,432,140,427.522,140,422z M120,412H60v-60h60V412z" fill="#FFFFFF"/>
	<path d="M374,452c-5.51,0-10,4.49-10,10s4.49,10,10,10c5.51,0,10-4.49,10-10S379.51,452,374,452z" fill="#FFFFFF"/>
	<path d="M138,452c-5.51,0-10,4.49-10,10s4.49,10,10,10c5.51,0,10-4.49,10-10S143.51,452,138,452z" fill="#FFFFFF"/>
	<path d="M175.673,42.357c-4.196-3.893-10-6.123-16.621-6.123c0,0-20.604,0-20.699,0c-2.536,0-5.801,1.63-5.801,4.699   c0,0,0,62.949,0,63.596c0,3.826,4.854,4.805,7.802,4.805c2.947,0,7.799-1.002,7.799-4.8V82.934c0,0,9.891,0,9.899,0   c14.271,0,24.601-8.484,24.601-23.199c0,0,0-0.497,0-0.5C182.652,52.237,180.03,46.4,175.673,42.357z M167.052,60.934   c0,6.668-3,10-9,10h-9.899v-21.1h9.899c6,0,9,3.334,9,10V60.934z" fill="#FFFFFF"/>
	<path d="M240.506,42.529c-4.398-4.02-10.481-6.294-17.356-6.294c-14.557,0-24.5,8.768-24.5,23.6c0,0,0,26.469,0,26.5   c0,14.766,9.768,23.6,24.5,23.6c14.58,0,24.601-8.689,24.601-23.6c0,0,0-26.441,0-26.5   C247.751,52.608,245.015,46.65,240.506,42.529z M232.15,86.334c0,6.667-3,10-9,10c-5.935,0-8.899-3.333-8.899-10v-26.5   c0-6.666,2.965-10,8.899-10c6,0,9,3.334,9,10V86.334z" fill="#FFFFFF"/>
	<path d="M305.092,70.955c-2.581-2.082-5.551-3.734-8.577-5.176c-4.178-1.991-14.862-4.772-14.866-10.541   c-0.004-4.896,6.33-6.004,10-6.004c4.985,0,9.098,3.785,13.695,3.8c4.044,0.013,6.205-4.871,6.205-8.334   c-0.001-8.592-13.964-9.066-19.9-9.066c-7.066,0-13.1,1.75-18.1,5.25c-5,3.5-7.5,8.783-7.5,15.851c0,4.334,1.083,8.066,3.25,11.199   c2.166,3.135,4.815,5.551,7.95,7.25c5.59,3.034,20.495,7.001,20.5,14.946c0.003,5.002-5.613,6.604-9.699,6.605   c-5.785,0-9.207-3.671-13.65-6.587c-2.808-1.843-6.047-1.221-8.101,1.587c-1.367,1.867-2.049,3.733-2.05,5.599   c0,10.078,16.826,13,24.1,13c6.222,0,13.082-1.566,18.101-5.744c4.6-3.829,6.899-9.181,6.899-16.056   C313.35,81.814,310.474,75.297,305.092,70.955z" fill="#FFFFFF"/>
	<path d="M374.349,36.234c0,0-42.967,0-43.199,0c-3.492,0-4.701,3.821-4.701,6.703c0,2.69,1.17,6.897,4.7,6.897h13.8   c0,0,0,54.219,0,54.664c0,3.796,4.873,4.836,7.801,4.836c2.956,0,7.799-1.047,7.799-4.833V49.834c0,0,13.673,0,13.799,0   c3.495,0,4.701-4.075,4.701-6.896C379.049,40.243,377.786,36.234,374.349,36.234z" fill="#FFFFFF"/>
</g>















</svg>
