<?xml version="1.0" encoding="iso-8859-1"?>
<!-- Generator: Adobe Illustrator 21.0.0, SVG Export Plug-In . SVG Version: 6.00 Build 0)  -->
<svg xmlns="http://www.w3.org/2000/svg" xmlns:xlink="http://www.w3.org/1999/xlink" version="1.1" id="Capa_1" x="0px" y="0px" viewBox="0 0 512 512" style="enable-background:new 0 0 512 512;" xml:space="preserve" width="512px" height="512px">
<g>
	<path d="M371.182,396.817c0-4.142-3.357-7.5-7.5-7.5h-16.565c-4.143,0-7.5,3.358-7.5,7.5c0,4.142,3.357,7.5,7.5,7.5h16.565   C367.825,404.317,371.182,400.959,371.182,396.817z" fill="#FFFFFF"/>
	<path d="M487.931,497h-9.067v-25.633c0-4.142-3.357-7.5-7.5-7.5h-42.198V230.368h9.064c4.142,0,7.5-3.358,7.5-7.5l0.002-33.132   c0-1.989-0.79-3.897-2.196-5.304c-1.407-1.407-3.314-2.197-5.304-2.197h-42.198V97.832h9.064c4.142,0,7.5-3.357,7.5-7.5   l0.002-33.132c0-1.989-0.79-3.897-2.196-5.304c-1.407-1.407-3.314-2.197-5.304-2.197h-58.767V7.5c0-0.076-0.009-0.151-0.012-0.227   c-0.005-0.157-0.009-0.313-0.024-0.47c-0.01-0.105-0.026-0.207-0.04-0.31c-0.019-0.139-0.037-0.278-0.064-0.417   c-0.022-0.113-0.05-0.223-0.077-0.334c-0.03-0.126-0.06-0.252-0.097-0.377c-0.035-0.117-0.076-0.231-0.116-0.346   c-0.04-0.115-0.079-0.229-0.125-0.342c-0.049-0.121-0.105-0.238-0.16-0.355c-0.048-0.103-0.095-0.207-0.148-0.308   c-0.066-0.126-0.139-0.247-0.212-0.368c-0.053-0.088-0.103-0.177-0.16-0.264c-0.088-0.133-0.183-0.26-0.279-0.387   c-0.045-0.059-0.083-0.121-0.129-0.18c-0.01-0.012-0.021-0.023-0.031-0.035c-0.101-0.124-0.21-0.241-0.318-0.359   c-0.062-0.067-0.121-0.139-0.185-0.204c-0.089-0.089-0.184-0.17-0.277-0.255c-0.091-0.083-0.179-0.17-0.273-0.248   c-0.026-0.021-0.055-0.04-0.081-0.061c-0.46-0.37-0.956-0.675-1.476-0.921c-0.482-0.23-0.991-0.41-1.523-0.533   c-0.053-0.012-0.105-0.03-0.158-0.041c-0.11-0.023-0.223-0.035-0.335-0.053c-0.134-0.022-0.267-0.047-0.401-0.061   c-0.084-0.009-0.17-0.01-0.254-0.016c-0.167-0.012-0.333-0.024-0.5-0.025c-0.015,0-0.029-0.002-0.044-0.002H173.167   c-0.016,0-0.032,0.002-0.048,0.002c-0.156,0.001-0.311,0.013-0.466,0.024c-0.096,0.006-0.193,0.008-0.288,0.018   c-0.117,0.013-0.233,0.035-0.35,0.053c-0.129,0.02-0.259,0.035-0.385,0.062c-0.012,0.002-0.024,0.007-0.036,0.009   c-0.605,0.129-1.18,0.336-1.722,0.602c-0.485,0.237-0.948,0.526-1.38,0.87c-0.032,0.026-0.066,0.048-0.098,0.074   c-0.092,0.076-0.178,0.162-0.268,0.243c-0.094,0.086-0.191,0.169-0.281,0.26c-0.063,0.064-0.122,0.135-0.183,0.202   c-0.109,0.118-0.218,0.236-0.32,0.361c-0.01,0.012-0.021,0.023-0.031,0.035c-0.047,0.058-0.085,0.12-0.129,0.18   c-0.096,0.127-0.191,0.254-0.279,0.387c-0.057,0.087-0.107,0.176-0.16,0.264c-0.073,0.121-0.146,0.242-0.212,0.368   c-0.054,0.102-0.1,0.206-0.149,0.309c-0.055,0.117-0.11,0.233-0.159,0.353c-0.046,0.114-0.085,0.229-0.126,0.344   c-0.04,0.115-0.081,0.228-0.116,0.345c-0.037,0.125-0.066,0.251-0.097,0.377c-0.027,0.111-0.055,0.221-0.077,0.334   c-0.027,0.139-0.045,0.278-0.063,0.417c-0.014,0.103-0.031,0.206-0.04,0.31c-0.014,0.157-0.019,0.313-0.024,0.47   c-0.002,0.076-0.012,0.15-0.012,0.227v42.2h-58.768c-4.143,0-7.5,3.358-7.5,7.5v33.132c0,4.142,3.357,7.5,7.5,7.5h9.068v84.403   h-42.2c-4.143,0-7.5,3.358-7.5,7.5v33.132c0,4.142,3.357,7.5,7.5,7.5h9.065v233.499H40.635c-4.143,0-7.5,3.358-7.5,7.5V497h-9.066   c-4.143,0-7.5,3.358-7.5,7.5c0,4.142,3.357,7.5,7.5,7.5h59.547c4.143,0,7.5-3.358,7.5-7.5c0-4.142-3.357-7.5-7.5-7.5h-35.48   v-18.133h415.729V497H113.615c-4.143,0-7.5,3.358-7.5,7.5c0,4.142,3.357,7.5,7.5,7.5h374.316c4.143,0,7.5-3.358,7.5-7.5   C495.431,500.357,492.074,497,487.931,497z M97.833,263.5h316.333v200.363H362.9v-18.131h25.633c4.143,0,7.5-3.358,7.5-7.5v-99.399   c0-4.142-3.357-7.5-7.5-7.5h-66.266c-4.143,0-7.5,3.358-7.5,7.5v99.399c0,4.142,3.357,7.5,7.5,7.5H347.9v18.131H246.933V362.9   h0.783c4.143,0,7.5-3.358,7.5-7.5s-3.357-7.5-7.5-7.5h-8.283H123.467h-8.282c-4.143,0-7.5,3.358-7.5,7.5s3.357,7.5,7.5,7.5h0.782   v100.963H97.833V263.5z M381.033,356.183h-51.266v-9.85h51.266V356.183z M329.767,371.183h51.266v59.549h-51.266V371.183z    M231.933,362.9v100.963h-42.982V362.9H231.933z M130.967,362.9h42.984v100.963h-42.984V362.9z M397.599,64.7l-0.002,18.132h-9.064   h-42.2V64.7H397.599z M180.667,23.105l70.648,56.518c1.37,1.096,3.027,1.644,4.686,1.644s3.315-0.548,4.685-1.644l70.648-56.518   v109.428H180.667V23.105z M194.548,15h122.904L256,64.162L194.548,15z M114.399,64.7h51.268v18.132h-42.199h-9.068V64.7z    M130.968,97.832h34.699v42.201c0,4.142,3.357,7.5,7.5,7.5h165.666c4.143,0,7.5-3.358,7.5-7.5V97.832h34.7v84.403H130.968V97.832z    M81.267,197.235h42.2h265.065h42.198l-0.002,18.132h-9.064H90.333h-9.065V197.235z M414.166,230.368v18.132H97.833v-18.132   H414.166z" fill="#FFFFFF"/>
</g>















</svg>
