<?xml version="1.0"?>
<svg xmlns="http://www.w3.org/2000/svg" id="Outline" height="512px" viewBox="0 0 64 64" width="512px"><path d="m14 37a1 1 0 0 0 -1-1h-6a1 1 0 0 0 -1 1v4a1 1 0 0 0 1 1h6a1 1 0 0 0 1-1zm-2 3h-4v-2h4z" fill="#FFFFFF"/><path d="m13 44h-6a1 1 0 0 0 0 2h6a1 1 0 0 0 0-2z" fill="#FFFFFF"/><path d="m21 38h3.59l6.7 6.71a1 1 0 0 0 1.42 0 1 1 0 0 0 0-1.42l-5.3-5.29h7.59v14h-18a1 1 0 0 0 0 2h19a1 1 0 0 0 1-1v-16a1 1 0 0 0 -1-1h-15a1 1 0 0 0 0 2z" fill="#FFFFFF"/><path d="m44 46v3a1 1 0 0 0 2 0v-3a1 1 0 0 0 -2 0z" fill="#FFFFFF"/><path d="m61 16h-8a1 1 0 0 0 0 2h7v4h-7a1 1 0 0 0 0 2h7v36h-18v-22h14v19a1 1 0 0 0 2 0v-20a1 1 0 0 0 -1-1h-16a1 1 0 0 0 -1 1v23h-24v-3a1 1 0 0 0 -1-1h-2v-6h4a1 1 0 0 0 1-1v-3a1 1 0 0 0 -2 0v2h-12v-10a6 6 0 0 1 12 0v4a1 1 0 0 0 2 0v-4a8 8 0 0 0 -6-7.74v-6.26h7a1 1 0 0 0 0-2h-7v-4h7a1 1 0 0 0 0-2h-8a1 1 0 0 0 -1 1v13a8 8 0 0 0 -8 8v11a1 1 0 0 0 1 1h4v6h-2a1 1 0 0 0 -1 1v4a1 1 0 0 0 1 1h56a1 1 0 0 0 1-1v-44a1 1 0 0 0 -1-1zm-52 34h2v6h-2zm-3 10v-2h8v2z" fill="#FFFFFF"/><path d="m23 28h26a1 1 0 0 0 1-1v-16a1 1 0 0 0 -1-1h-26a1 1 0 0 0 -1 1v16a1 1 0 0 0 1 1zm23.06-16-10.06 7.74-10.06-7.74zm-22.06 1 11.39 8.76a1 1 0 0 0 1.22 0l11.39-8.76v11.59l-4.51-4.51a1 1 0 0 0 -1.41 0 1 1 0 0 0 0 1.41l4.51 4.51h-21.18l4.51-4.51a1 1 0 0 0 0-1.41 1 1 0 0 0 -1.41 0l-4.51 4.51z" fill="#FFFFFF"/></svg>
