<?xml version="1.0"?>
<svg xmlns="http://www.w3.org/2000/svg" id="Capa_1" enable-background="new 0 0 491.687 491.687" height="512px" viewBox="0 0 491.687 491.687" width="512px"><g><path d="m120.76 200c22.332 0 40.5-18.168 40.5-40.5s-18.168-40.5-40.5-40.5-40.5 18.168-40.5 40.5 18.168 40.5 40.5 40.5zm0-61c11.304 0 20.5 9.196 20.5 20.5s-9.196 20.5-20.5 20.5-20.5-9.196-20.5-20.5 9.196-20.5 20.5-20.5zm-88.5 12c0-5.521 4.49-10 10-10s10 4.479 10 10c0 5.51-4.49 10-10 10s-10-4.49-10-10zm434.859-92.385c-5.148-5.146-12.598-6.838-19.442-4.416-27.965 9.899-52.858 25.632-73.98 46.755l-41.437 41.366v-77.32c0-5.523-4.477-10-10-10h-69v-5c0-5.523-4.477-10-10-10h-26v-30c0-5.523-4.477-10-10-10h-50c-5.523 0-10 4.477-10 10v30h-26c-5.523 0-10 4.477-10 10v5h-69c-5.523 0-10 4.477-10 10v40.642c0 5.318 4 9.973 9.306 10.335 5.822.396 10.694-4.237 10.694-9.976v-31.001h60.6c4.209 12.763 16.245 22 30.4 22h78c14.154 0 26.191-9.237 30.4-22h60.6v87.285l-34.755 34.695c-15.521 2.736-31.491 10.659-47.528 23.603-7.668 6.188-32.546 29.77-38.06 34.485-12.988-7.163-24.515-12.705-35.86-17.257-25.86-10.375-50.753-15.225-73.979-14.387h-29.818v-27.424c0-5.51-4.49-10-10-10s-10 4.49-10 10v188c0 5.937 4.704 10.775 10.588 10.992l-22.456 61.697c-4.149 11.399 1.75 24.049 13.149 28.198l15.035 5.472c11.399 4.149 24.049-1.75 28.198-13.149l29.921-82.21h45.564v41c0 12.131 9.869 22 22 22h16c12.131 0 22-9.869 22-22v-41h45.574l29.922 82.21c4.149 11.399 16.798 17.298 28.198 13.149l15.035-5.472c11.399-4.149 17.298-16.798 13.149-28.198l-22.456-61.698c5.88-.222 10.578-5.057 10.578-10.991v-139.601l92.515-92.355c21.129-21.13 36.862-46.022 46.761-73.987 2.423-6.845.731-14.294-4.416-19.442zm-299.859-38.615h30v20h-30zm66 45c0 6.617-5.383 12-12 12h-78c-6.617 0-12-5.383-12-12v-5h102zm13.66 187.414c2.673-8.447 7.221-15.923 13.518-22.22 5.448-5.449 11.984-9.656 19.111-12.4l28.222 28.222c-2.744 7.126-6.951 13.662-12.4 19.111-6.297 6.298-13.772 10.846-22.218 13.518-6.875 2.176-20.41 6.463-32.539 10.306l-5.852 1.854c4.223-13.335 9.623-30.382 12.158-38.391zm-194.66-8.991c11.969-.002 30.37-.005 30.37-.005 20.478-.013 42.666 3.602 65.98 12.956 8.209 3.294 16.565 7.168 25.629 11.9-27.017 17.347-59.653 26.578-91.682 25.622-.067-.003-18.385-.004-30.298-.005v-50.468zm0 70.484c12.852.021 33.66.055 34.794.055 40.165-.001 80.78-14.068 112.165-38.991 4.864-3.862 16.945-15.015 27.357-24.55-2.993 9.49-7.867 24.992-11.633 36.72-4.295 13.375 6.869 24.028 17.806 24.363 7.77.238 20.802-6.085 46.437-13.791 11.184-3.362 23.537-10.728 33.075-21.358v58.645h-260v-21.093zm5.72 156.463c-.377 1.036-1.527 1.573-2.563 1.195l-15.035-5.472c-1.036-.377-1.573-1.527-1.195-2.563l24.942-68.53h21.283zm134.28-34.37c0 1.103-.897 2-2 2h-16c-1.103 0-2-.897-2-2v-41h20zm-140-61v-20s91.175.012 260 .021v19.979zm273.084 88.529c.377 1.036-.159 2.186-1.195 2.563l-15.035 5.472c-1.037.377-2.186-.159-2.563-1.195l-27.433-75.369h21.283zm-6.136-234.36-22.799-22.8 20.877-20.841 22.8 22.799zm91.43-91.273-56.399 56.302-22.8-22.799 56.394-56.296c18.342-18.343 39.827-32.16 63.898-41.1-8.939 24.069-22.757 45.557-41.093 63.893z" fill="#FFFFFF"/></g></svg>
