<?xml version="1.0" encoding="iso-8859-1"?>
<!-- Generator: Adobe Illustrator 19.0.0, SVG Export Plug-In . SVG Version: 6.00 Build 0)  -->
<svg xmlns="http://www.w3.org/2000/svg" xmlns:xlink="http://www.w3.org/1999/xlink" version="1.1" id="Capa_1" x="0px" y="0px" viewBox="0 0 503.873 503.873" style="enable-background:new 0 0 503.873 503.873;" xml:space="preserve" width="512px" height="512px">
<g>
	<g>
		<path d="M357.587,203.175v16.254h24.381v40.635c0,71.517-58.514,130.032-130.032,130.032s-130.032-58.514-130.032-130.032v-40.635    h24.381v-16.254h-40.635v56.889c0,78.019,60.952,141.41,138.159,145.473v33.321h-24.381c-31.695,0-56.889,25.194-56.889,56.889    v8.127h178.794v-8.127c0-31.695-25.194-56.889-56.889-56.889h-24.381v-33.321c77.206-4.063,138.159-68.267,138.159-145.473    v-56.889H357.587z M284.444,455.111c19.505,0,35.759,13.816,39.822,32.508h-144.66c4.063-18.692,20.317-32.508,39.822-32.508    H284.444z" fill="#FFFFFF"/>
	</g>
</g>
<g>
	<g>
		<path d="M251.936,0c-53.638,0-97.524,43.886-97.524,97.524v162.54c0,53.638,43.886,97.524,97.524,97.524    c53.638,0,97.524-43.886,97.524-97.524V97.524C349.46,43.886,305.575,0,251.936,0z M333.206,260.064    c0,44.698-36.571,81.27-81.27,81.27s-81.27-36.571-81.27-81.27v-73.143h162.54V260.064z M333.206,170.667h-162.54V97.524    c0-30.07,16.254-56.076,40.635-69.892v21.13h16.254V20.317c4.876-1.625,10.565-2.438,16.254-3.251v39.822h16.254V17.067    c5.689,0.813,11.378,1.625,16.254,3.251v28.444h16.254v-21.13c24.381,13.816,40.635,40.635,40.635,69.892V170.667z" fill="#FFFFFF"/>
	</g>
</g>
<g>
</g>
<g>
</g>
<g>
</g>
<g>
</g>
<g>
</g>
<g>
</g>
<g>
</g>
<g>
</g>
<g>
</g>
<g>
</g>
<g>
</g>
<g>
</g>
<g>
</g>
<g>
</g>
<g>
</g>
</svg>
