<?xml version="1.0" encoding="iso-8859-1"?>
<!-- Generator: Adobe Illustrator 19.0.0, SVG Export Plug-In . SVG Version: 6.00 Build 0)  -->
<svg xmlns="http://www.w3.org/2000/svg" xmlns:xlink="http://www.w3.org/1999/xlink" version="1.1" id="Layer_1" x="0px" y="0px" viewBox="0 0 512 512" style="enable-background:new 0 0 512 512;" xml:space="preserve" width="512px" height="512px">
<g>
	<g>
		<path d="M156.968,264.041c4.142,0,7.5-3.358,7.5-7.5c0-50.411,41.012-91.423,91.423-91.423c4.142,0,7.5-3.358,7.5-7.5    s-3.358-7.5-7.5-7.5c-58.682,0-106.423,47.741-106.423,106.423C149.468,260.683,152.826,264.041,156.968,264.041z" fill="#FFFFFF"/>
		<path d="M263.392,115.5c0-4.142-3.358-7.5-7.5-7.5c-81.905,0-148.541,66.635-148.541,148.541c0,4.142,3.358,7.5,7.5,7.5    s7.5-3.358,7.5-7.5c0-73.634,59.906-133.541,133.541-133.541C260.034,123,263.392,119.642,263.392,115.5z" fill="#FFFFFF"/>
		<path d="M472.844,0H39.156C17.565,0,0,17.565,0,39.156v433.688C0,494.435,17.565,512,39.156,512h433.688    C494.435,512,512,494.435,512,472.844V39.156C512,17.565,494.435,0,472.844,0z M497,472.844c0,13.32-10.836,24.156-24.156,24.156    H39.156C25.836,497,15,486.164,15,472.844V39.156C15,25.836,25.836,15,39.156,15h433.688C486.164,15,497,25.836,497,39.156    V472.844z" fill="#FFFFFF"/>
		<path d="M256,318.294c34.36,0,62.314-27.954,62.314-62.314c0-34.36-27.954-62.314-62.314-62.314s-62.314,27.954-62.314,62.314    C193.686,290.34,221.64,318.294,256,318.294z M256,208.666c26.089,0,47.314,21.225,47.314,47.314    c0,26.089-21.225,47.314-47.314,47.314s-47.314-21.225-47.314-47.314C208.686,229.891,229.911,208.666,256,208.666z" fill="#FFFFFF"/>
		<path d="M256,280.459c13.499,0,24.48-10.981,24.48-24.479c0-13.499-10.981-24.48-24.48-24.48    c-13.498,0-24.479,10.981-24.479,24.48C231.521,269.478,242.502,280.459,256,280.459z M256,246.5c5.227,0,9.48,4.253,9.48,9.48    s-4.253,9.479-9.48,9.479s-9.479-4.252-9.479-9.479S250.773,246.5,256,246.5z" fill="#FFFFFF"/>
		<path d="M437.5,46.055c-20.033,0-36.331,16.298-36.331,36.331c0,14.766,8.855,27.503,21.533,33.179l-31.607,137.865    c-3.155,14.003-8.759,27.063-16.687,38.908c-7.983-2.845-17.256-1.123-23.698,5.203l-23.93,23.507    c-8.98,8.821-9.109,23.305-0.288,32.286c4.327,4.405,10.111,6.831,16.288,6.831c6.021,0,11.702-2.324,15.998-6.543l23.93-23.507    c7.75-7.613,8.908-19.443,3.409-28.314c9.359-13.676,15.947-28.808,19.605-45.046l31.647-138.038c0.044,0,0.087,0.001,0.13,0.001    c20.033,0,36.331-16.298,36.331-36.331C473.831,62.353,457.533,46.055,437.5,46.055z M372.196,319.413l-23.93,23.507    c-1.474,1.447-3.422,2.244-5.487,2.244c-2.119,0-4.103-0.832-5.586-2.342c-3.025-3.081-2.981-8.048,0.099-11.074l23.928-23.506    c1.523-1.495,3.506-2.241,5.489-2.241c2.028,0,4.056,0.781,5.586,2.339C375.321,311.42,375.276,316.387,372.196,319.413z     M437.5,103.716c-0.296,0-0.59-0.006-0.883-0.018c-2.116-0.932-4.852-1.528-7.103-1.533c-7.817-3.168-13.344-10.84-13.344-19.78    c0-11.762,9.569-21.331,21.331-21.331s21.331,9.569,21.331,21.331C458.831,94.147,449.262,103.716,437.5,103.716z" fill="#FFFFFF"/>
		<path d="M62.242,422.626c-15.119,0-27.419,12.3-27.419,27.419s12.3,27.419,27.419,27.419s27.419-12.3,27.419-27.419    S77.361,422.626,62.242,422.626z M62.242,462.464c-6.848,0-12.419-5.571-12.419-12.419s5.571-12.419,12.419-12.419    s12.419,5.571,12.419,12.419S69.09,462.464,62.242,462.464z" fill="#FFFFFF"/>
		<path d="M129.181,422.626c-15.119,0-27.419,12.3-27.419,27.419s12.3,27.419,27.419,27.419s27.419-12.3,27.419-27.419    S144.299,422.626,129.181,422.626z M129.181,462.464c-6.848,0-12.419-5.571-12.419-12.419s5.571-12.419,12.419-12.419    s12.419,5.571,12.419,12.419S136.028,462.464,129.181,462.464z" fill="#FFFFFF"/>
		<path d="M428.525,193.087c-3.947,1.257-6.127,5.477-4.869,9.423c5.488,17.223,8.271,35.213,8.271,53.47    c0,97.006-78.92,175.926-175.926,175.926S80.074,352.986,80.074,255.98c0-97.006,78.92-175.927,175.926-175.927    c28.183,0,55.103,6.461,80.01,19.203c23.767,12.158,44.814,29.909,60.868,51.332c2.484,3.315,7.186,3.989,10.5,1.504    c3.315-2.484,3.988-7.185,1.504-10.5c-17.416-23.24-40.251-42.498-66.04-55.69C315.799,72.068,286.582,65.053,256,65.053    c-105.277,0-190.926,85.649-190.926,190.927c0,105.277,85.649,190.926,190.926,190.926s190.926-85.649,190.926-190.926    c0-19.804-3.021-39.326-8.979-58.023C436.691,194.01,432.47,191.832,428.525,193.087z" fill="#FFFFFF"/>
	</g>
</g>















</svg>
