<?xml version="1.0"?>
<svg xmlns="http://www.w3.org/2000/svg" height="512px" viewBox="0 0 64 64" width="512px"><path d="m32 15a5 5 0 1 0 -5-5 5.006 5.006 0 0 0 5 5zm0-8a3 3 0 1 1 -3 3 3 3 0 0 1 3-3z" fill="#FFFFFF"/><path d="m21 12h4v2h-4z" fill="#FFFFFF"/><path d="m39 12h3v2h-3z" fill="#FFFFFF"/><path d="m57 26a1 1 0 0 0 1-1v-3h1a1 1 0 0 0 1-1v-3h1a1 1 0 0 0 1-1v-4a1 1 0 0 0 -.67-.95l-29-10a1.063 1.063 0 0 0 -.66 0l-29 10a1 1 0 0 0 -.67.95v4a1 1 0 0 0 1 1h1v3a1 1 0 0 0 1 1h1v3a1 1 0 0 0 1 1h1v26h-1a1 1 0 0 0 -1 1v3h-3a1 1 0 0 0 -1 1v4a1 1 0 0 0 1 1h58a1 1 0 0 0 1-1v-4a1 1 0 0 0 -1-1h-3v-3a1 1 0 0 0 -1-1h-1v-26zm-53-10v-2.29l28-9.65 28 9.65v2.29zm2 4v-2h52v2zm44 15v17h-2v-26h6v26h-2v-17zm6 19v2h-10v-2zm-10-2h-1a1 1 0 0 0 -1 1v3h-5v-3a1 1 0 0 0 -1-1h-1v-26h1a1 1 0 0 0 1-1v-3h5v3a1 1 0 0 0 1 1h1zm-27 0h-1v-26h1a1 1 0 0 0 1-1v-3h5v3a1 1 0 0 0 1 1h1v26h-1a1 1 0 0 0 -1 1v3h-5v-3a1 1 0 0 0 -1-1zm-7-17v17h-2v-26h6v26h-2v-17zm-4-11v-2h10v2zm19 30h10v2h-10zm4-19v17h-2v-26h6v26h-2v-17zm-4-11v-2h10v2zm-19 30h10v2h-10zm52 4v2h-56v-2zm-14-34v-2h10v2z" fill="#FFFFFF"/></svg>
