<?xml version="1.0"?>
<svg xmlns="http://www.w3.org/2000/svg" height="512px" viewBox="0 0 64 64" width="512px"><g id="Tissue_Paper-2" data-name="Tissue Paper"><path d="m61.781 47.375-3.501-4.375 3.5-4.375a1 1 0 0 0 -.251-1.473l-6.763-4.228 6.834-5.124a1 1 0 0 0 .3-1.247l-1.741-3.481 1.678-2.517a1 1 0 0 0 -.277-1.387l-3-2a1.006 1.006 0 0 0 -.56-.168h-18v-6c0-4.561-8.168-8-19-8s-19 3.439-19 8v40c0 4.561 8.168 8 19 8h40a1 1 0 0 0 .769-1.64l-4.348-5.216 4.2-3.363a1 1 0 0 0 .16-1.406zm-27.981-30.375a14.164 14.164 0 0 0 4.2-2.326v2.326zm-12.8-12c10.019 0 17 3.162 17 6s-6.981 6-17 6-17-3.162-17-6 6.981-6 17-6zm34.375 46.219a1 1 0 0 0 -.144 1.421l3.634 4.36h-15.865v-2h-2v2h-20a44.083 44.083 0 0 1 -5-.281v-1.719h-2v1.44c-6.12-1.033-10-3.325-10-5.44v-36.326c2.057 1.755 5.582 3.1 10 3.8v2.526h2v-2.267a47.118 47.118 0 0 0 5 .267h20v2h2v-2h14.7l1.916 1.277-1.445 2.168a1 1 0 0 0 -.063 1l1.624 3.255-7.332 5.5a1 1 0 0 0 .07 1.648l7.048 4.4-3.3 4.123a1 1 0 0 0 0 1.25l3.382 4.223z" fill="#FFFFFF"/><path d="m14 23h2v2h-2z" fill="#FFFFFF"/><path d="m14 27h2v2h-2z" fill="#FFFFFF"/><path d="m14 31h2v2h-2z" fill="#FFFFFF"/><path d="m14 35h2v2h-2z" fill="#FFFFFF"/><path d="m14 39h2v2h-2z" fill="#FFFFFF"/><path d="m14 43h2v2h-2z" fill="#FFFFFF"/><path d="m14 47h2v2h-2z" fill="#FFFFFF"/><path d="m14 51h2v2h-2z" fill="#FFFFFF"/><path d="m41 23h2v2h-2z" fill="#FFFFFF"/><path d="m41 27h2v2h-2z" fill="#FFFFFF"/><path d="m41 31h2v2h-2z" fill="#FFFFFF"/><path d="m41 35h2v2h-2z" fill="#FFFFFF"/><path d="m41 39h2v2h-2z" fill="#FFFFFF"/><path d="m41 43h2v2h-2z" fill="#FFFFFF"/><path d="m41 47h2v2h-2z" fill="#FFFFFF"/><path d="m41 51h2v2h-2z" fill="#FFFFFF"/><path d="m21 15c4.816 0 10-1.252 10-4s-5.184-4-10-4-10 1.252-10 4 5.184 4 10 4zm0-6c5.249 0 8 1.486 8 2s-2.751 2-8 2-8-1.486-8-2 2.751-2 8-2z" fill="#FFFFFF"/></g></svg>
